G04 EAGLE Gerber RS-274X export*
G75*
%MOMM*%
%FSLAX34Y34*%
%LPD*%
%IN*%
%IPPOS*%
%AMOC8*
5,1,8,0,0,1.08239X$1,22.5*%
G01*
%ADD10C,0.254000*%


D10*
X31200Y193956D02*
X31220Y193954D01*
X31241Y193953D01*
X31261Y193951D01*
X31281Y193950D01*
X31302Y193949D01*
X31322Y193947D01*
X31343Y193946D01*
X31363Y193944D01*
X31383Y193943D01*
X31404Y193942D01*
X31424Y193940D01*
X31445Y193939D01*
X31465Y193938D01*
X31486Y193936D01*
X31506Y193935D01*
X31526Y193934D01*
X31547Y193933D01*
X31567Y193932D01*
X31588Y193930D01*
X31608Y193929D01*
X31629Y193928D01*
X31649Y193927D01*
X31670Y193926D01*
X31690Y193925D01*
X31711Y193924D01*
X31731Y193923D01*
X31752Y193922D01*
X31772Y193921D01*
X31793Y193920D01*
X31813Y193919D01*
X31834Y193918D01*
X31854Y193917D01*
X31875Y193916D01*
X31895Y193916D01*
X31916Y193915D01*
X31936Y193914D01*
X31957Y193913D01*
X31978Y193913D01*
X31998Y193912D01*
X32019Y193911D01*
X32039Y193910D01*
X32060Y193910D01*
X32080Y193909D01*
X32101Y193909D01*
X32122Y193908D01*
X32142Y193907D01*
X32163Y193907D01*
X32184Y193906D01*
X32204Y193906D01*
X32225Y193905D01*
X32245Y193905D01*
X32266Y193904D01*
X32287Y193904D01*
X32307Y193904D01*
X32328Y193903D01*
X32349Y193903D01*
X32369Y193902D01*
X32390Y193902D01*
X32411Y193902D01*
X32431Y193902D01*
X32452Y193901D01*
X32473Y193901D01*
X32493Y193901D01*
X32514Y193901D01*
X32535Y193901D01*
X32556Y193900D01*
X32576Y193900D01*
X32597Y193900D01*
X32618Y193900D01*
X32639Y193900D01*
X32659Y193900D01*
X32680Y193900D01*
X33515Y193895D01*
X34350Y193882D01*
X35183Y193859D01*
X36015Y193827D01*
X36846Y193785D01*
X37675Y193735D01*
X38504Y193676D01*
X39331Y193607D01*
X40156Y193530D01*
X40980Y193443D01*
X41802Y193348D01*
X42622Y193244D01*
X43441Y193131D01*
X44258Y193009D01*
X45072Y192878D01*
X45885Y192738D01*
X46696Y192590D01*
X47505Y192433D01*
X48312Y192267D01*
X49116Y192093D01*
X49918Y191909D01*
X50718Y191718D01*
X51515Y191517D01*
X52310Y191308D01*
X53102Y191091D01*
X53892Y190865D01*
X54679Y190630D01*
X55463Y190387D01*
X56244Y190135D01*
X57022Y189876D01*
X57797Y189607D01*
X58569Y189331D01*
X59338Y189046D01*
X60104Y188753D01*
X60867Y188451D01*
X61626Y188141D01*
X62382Y187823D01*
X63135Y187497D01*
X63883Y187163D01*
X64629Y186820D01*
X65370Y186470D01*
X66108Y186111D01*
X66842Y185745D01*
X67573Y185370D01*
X68299Y184987D01*
X69021Y184597D01*
X69739Y184198D01*
X70453Y183792D01*
X71163Y183378D01*
X71869Y182955D01*
X72570Y182525D01*
X73267Y182088D01*
X73959Y181642D01*
X74647Y181189D01*
X75330Y180728D01*
X76008Y180259D01*
X76682Y179783D01*
X77351Y179299D01*
X78015Y178808D01*
X78674Y178309D01*
X79328Y177802D01*
X79977Y177288D01*
X80620Y176766D01*
X81259Y176237D01*
X81892Y175701D01*
X82520Y175157D01*
X83142Y174606D01*
X83759Y174047D01*
X84370Y173481D01*
X84976Y172908D01*
X85576Y172328D01*
X86170Y171740D01*
X86758Y171146D01*
X87338Y170546D01*
X87911Y169940D01*
X88477Y169329D01*
X89036Y168712D01*
X89587Y168090D01*
X90131Y167462D01*
X90667Y166829D01*
X91196Y166190D01*
X91718Y165547D01*
X92232Y164898D01*
X92739Y164244D01*
X93238Y163585D01*
X93729Y162921D01*
X94213Y162252D01*
X94689Y161578D01*
X95158Y160900D01*
X95619Y160217D01*
X96072Y159529D01*
X96518Y158836D01*
X96955Y158140D01*
X97385Y157438D01*
X97808Y156733D01*
X98222Y156023D01*
X98628Y155309D01*
X99027Y154591D01*
X99417Y153868D01*
X99800Y153142D01*
X100175Y152412D01*
X100541Y151678D01*
X100900Y150940D01*
X101250Y150198D01*
X101593Y149453D01*
X101927Y148704D01*
X102253Y147951D01*
X102571Y147195D01*
X102881Y146436D01*
X103183Y145673D01*
X103476Y144907D01*
X103761Y144138D01*
X104037Y143365D01*
X104306Y142590D01*
X104565Y141812D01*
X104817Y141030D01*
X105060Y140246D01*
X105295Y139459D01*
X105521Y138669D01*
X105738Y137877D01*
X105947Y137082D01*
X106148Y136285D01*
X106339Y135485D01*
X106523Y134682D01*
X106697Y133878D01*
X106863Y133071D01*
X107020Y132262D01*
X107168Y131451D01*
X107308Y130638D01*
X107439Y129822D01*
X107561Y129005D01*
X107674Y128186D01*
X107778Y127366D01*
X107873Y126543D01*
X107960Y125719D01*
X108037Y124893D01*
X108106Y124066D01*
X108165Y123238D01*
X108215Y122408D01*
X108257Y121577D01*
X108289Y120744D01*
X108312Y119911D01*
X108325Y119076D01*
X108330Y118240D01*
X108330Y28210D01*
X108331Y27996D01*
X108335Y27783D01*
X108341Y27570D01*
X108349Y27357D01*
X108359Y27145D01*
X108372Y26933D01*
X108387Y26721D01*
X108405Y26509D01*
X108425Y26298D01*
X108447Y26088D01*
X108471Y25877D01*
X108498Y25668D01*
X108527Y25458D01*
X108558Y25249D01*
X108591Y25041D01*
X108627Y24833D01*
X108665Y24626D01*
X108705Y24419D01*
X108748Y24212D01*
X108792Y24007D01*
X108839Y23802D01*
X108888Y23597D01*
X108940Y23393D01*
X108993Y23190D01*
X109049Y22987D01*
X109106Y22786D01*
X109166Y22584D01*
X109229Y22384D01*
X109293Y22184D01*
X109359Y21985D01*
X109428Y21787D01*
X109499Y21589D01*
X109571Y21393D01*
X109646Y21197D01*
X109723Y21002D01*
X109803Y20808D01*
X109884Y20614D01*
X109967Y20422D01*
X110053Y20230D01*
X110140Y20040D01*
X110230Y19850D01*
X110321Y19661D01*
X110415Y19474D01*
X110511Y19287D01*
X110608Y19101D01*
X110708Y18916D01*
X110810Y18733D01*
X110914Y18550D01*
X111020Y18368D01*
X111127Y18188D01*
X111237Y18009D01*
X111349Y17830D01*
X111463Y17653D01*
X111578Y17478D01*
X111696Y17303D01*
X111816Y17129D01*
X111937Y16957D01*
X112061Y16786D01*
X112186Y16616D01*
X112314Y16448D01*
X112443Y16280D01*
X112574Y16114D01*
X112707Y15950D01*
X112843Y15786D01*
X112979Y15624D01*
X113118Y15464D01*
X113259Y15305D01*
X113401Y15147D01*
X113546Y14990D01*
X113692Y14835D01*
X113840Y14682D01*
X113990Y14530D01*
X114142Y14380D01*
X114295Y14232D01*
X114450Y14086D01*
X114607Y13941D01*
X114765Y13799D01*
X114924Y13658D01*
X115084Y13519D01*
X115246Y13383D01*
X115410Y13247D01*
X115574Y13114D01*
X115740Y12983D01*
X115908Y12854D01*
X116076Y12726D01*
X116246Y12601D01*
X116417Y12477D01*
X116589Y12356D01*
X116763Y12236D01*
X116937Y12118D01*
X117113Y12003D01*
X117290Y11889D01*
X117469Y11777D01*
X117648Y11667D01*
X117828Y11560D01*
X118010Y11454D01*
X118193Y11350D01*
X118376Y11248D01*
X118561Y11148D01*
X118747Y11051D01*
X118934Y10955D01*
X119121Y10861D01*
X119310Y10770D01*
X119500Y10680D01*
X119690Y10593D01*
X119882Y10507D01*
X120074Y10424D01*
X120267Y10343D01*
X120462Y10263D01*
X120657Y10186D01*
X120853Y10111D01*
X121049Y10039D01*
X121247Y9968D01*
X121445Y9899D01*
X121644Y9833D01*
X121844Y9769D01*
X122044Y9706D01*
X122246Y9646D01*
X122447Y9589D01*
X122650Y9533D01*
X122853Y9480D01*
X123057Y9428D01*
X123262Y9379D01*
X123467Y9332D01*
X123672Y9288D01*
X123879Y9245D01*
X124086Y9205D01*
X124293Y9167D01*
X124501Y9131D01*
X124709Y9098D01*
X124918Y9067D01*
X125128Y9038D01*
X125337Y9011D01*
X125548Y8987D01*
X125758Y8965D01*
X125969Y8945D01*
X126181Y8927D01*
X126393Y8912D01*
X126605Y8899D01*
X126817Y8889D01*
X127030Y8881D01*
X127243Y8875D01*
X127456Y8871D01*
X127670Y8870D01*
X966890Y8870D01*
X967104Y8871D01*
X967317Y8875D01*
X967530Y8881D01*
X967743Y8889D01*
X967955Y8899D01*
X968168Y8912D01*
X968379Y8927D01*
X968591Y8945D01*
X968802Y8965D01*
X969012Y8987D01*
X969223Y9011D01*
X969433Y9038D01*
X969642Y9067D01*
X969851Y9098D01*
X970059Y9131D01*
X970267Y9167D01*
X970474Y9205D01*
X970681Y9245D01*
X970888Y9288D01*
X971093Y9332D01*
X971298Y9379D01*
X971503Y9428D01*
X971707Y9480D01*
X971910Y9533D01*
X972113Y9589D01*
X972314Y9646D01*
X972516Y9706D01*
X972716Y9769D01*
X972916Y9833D01*
X973115Y9899D01*
X973313Y9968D01*
X973511Y10039D01*
X973707Y10111D01*
X973903Y10186D01*
X974098Y10263D01*
X974292Y10343D01*
X974486Y10424D01*
X974678Y10507D01*
X974870Y10593D01*
X975060Y10680D01*
X975250Y10770D01*
X975439Y10861D01*
X975626Y10955D01*
X975813Y11051D01*
X975999Y11148D01*
X976184Y11248D01*
X976367Y11350D01*
X976550Y11454D01*
X976732Y11560D01*
X976912Y11667D01*
X977091Y11777D01*
X977270Y11889D01*
X977447Y12003D01*
X977622Y12118D01*
X977797Y12236D01*
X977971Y12356D01*
X978143Y12477D01*
X978314Y12601D01*
X978484Y12726D01*
X978653Y12854D01*
X978820Y12983D01*
X978986Y13114D01*
X979150Y13247D01*
X979314Y13383D01*
X979476Y13519D01*
X979636Y13658D01*
X979795Y13799D01*
X979953Y13941D01*
X980110Y14086D01*
X980265Y14232D01*
X980418Y14380D01*
X980570Y14530D01*
X980720Y14682D01*
X980869Y14835D01*
X981015Y14990D01*
X981160Y15147D01*
X981303Y15305D01*
X981444Y15464D01*
X981583Y15624D01*
X981720Y15786D01*
X981855Y15950D01*
X981989Y16114D01*
X982120Y16280D01*
X982250Y16448D01*
X982377Y16616D01*
X982503Y16786D01*
X982627Y16957D01*
X982748Y17129D01*
X982868Y17303D01*
X982986Y17478D01*
X983102Y17653D01*
X983215Y17830D01*
X983327Y18009D01*
X983437Y18188D01*
X983545Y18368D01*
X983651Y18550D01*
X983755Y18733D01*
X983856Y18916D01*
X983956Y19101D01*
X984054Y19287D01*
X984149Y19474D01*
X984243Y19661D01*
X984335Y19850D01*
X984424Y20040D01*
X984512Y20230D01*
X984597Y20422D01*
X984680Y20614D01*
X984761Y20808D01*
X984840Y21002D01*
X984917Y21197D01*
X984992Y21393D01*
X985065Y21589D01*
X985135Y21787D01*
X985204Y21985D01*
X985270Y22184D01*
X985334Y22384D01*
X985396Y22584D01*
X985456Y22786D01*
X985514Y22987D01*
X985569Y23190D01*
X985623Y23393D01*
X985674Y23597D01*
X985723Y23802D01*
X985769Y24007D01*
X985814Y24212D01*
X985856Y24419D01*
X985896Y24626D01*
X985934Y24833D01*
X985970Y25041D01*
X986003Y25249D01*
X986034Y25458D01*
X986063Y25668D01*
X986089Y25877D01*
X986114Y26088D01*
X986136Y26298D01*
X986155Y26509D01*
X986173Y26721D01*
X986188Y26933D01*
X986201Y27145D01*
X986211Y27357D01*
X986219Y27570D01*
X986225Y27783D01*
X986229Y27996D01*
X986230Y28210D01*
X986230Y118240D01*
X986235Y119076D01*
X986248Y119911D01*
X986271Y120744D01*
X986304Y121577D01*
X986345Y122408D01*
X986395Y123238D01*
X986454Y124066D01*
X986523Y124893D01*
X986600Y125719D01*
X986687Y126543D01*
X986782Y127366D01*
X986886Y128186D01*
X986999Y129005D01*
X987121Y129822D01*
X987252Y130638D01*
X987392Y131451D01*
X987540Y132262D01*
X987697Y133071D01*
X987863Y133878D01*
X988037Y134682D01*
X988221Y135485D01*
X988412Y136285D01*
X988613Y137082D01*
X988822Y137877D01*
X989039Y138669D01*
X989265Y139459D01*
X989500Y140246D01*
X989743Y141030D01*
X989995Y141812D01*
X990254Y142590D01*
X990523Y143365D01*
X990799Y144138D01*
X991084Y144907D01*
X991378Y145673D01*
X991679Y146436D01*
X991989Y147195D01*
X992307Y147951D01*
X992633Y148704D01*
X992967Y149453D01*
X993310Y150198D01*
X993660Y150940D01*
X994019Y151678D01*
X994385Y152412D01*
X994760Y153142D01*
X995143Y153868D01*
X995533Y154591D01*
X995932Y155309D01*
X996338Y156023D01*
X996752Y156733D01*
X997175Y157438D01*
X997605Y158140D01*
X998042Y158836D01*
X998488Y159529D01*
X998941Y160217D01*
X999402Y160900D01*
X999871Y161578D01*
X1000347Y162252D01*
X1000831Y162921D01*
X1001322Y163585D01*
X1001821Y164244D01*
X1002328Y164898D01*
X1002842Y165547D01*
X1003364Y166190D01*
X1003893Y166829D01*
X1004429Y167462D01*
X1004973Y168090D01*
X1005524Y168712D01*
X1006083Y169329D01*
X1006649Y169940D01*
X1007222Y170546D01*
X1007802Y171146D01*
X1008390Y171740D01*
X1008984Y172328D01*
X1009584Y172908D01*
X1010190Y173481D01*
X1010801Y174047D01*
X1011418Y174606D01*
X1012040Y175157D01*
X1012668Y175701D01*
X1013301Y176237D01*
X1013940Y176766D01*
X1014583Y177288D01*
X1015232Y177802D01*
X1015886Y178309D01*
X1016545Y178808D01*
X1017209Y179299D01*
X1017878Y179783D01*
X1018552Y180259D01*
X1019230Y180728D01*
X1019913Y181189D01*
X1020601Y181642D01*
X1021293Y182088D01*
X1021990Y182525D01*
X1022691Y182955D01*
X1023397Y183378D01*
X1024107Y183792D01*
X1024821Y184198D01*
X1025539Y184597D01*
X1026261Y184987D01*
X1026987Y185370D01*
X1027718Y185745D01*
X1028452Y186111D01*
X1029190Y186470D01*
X1029931Y186820D01*
X1030677Y187163D01*
X1031425Y187497D01*
X1032178Y187823D01*
X1032934Y188141D01*
X1033693Y188451D01*
X1034456Y188753D01*
X1035222Y189046D01*
X1035991Y189331D01*
X1036763Y189607D01*
X1037538Y189876D01*
X1038316Y190135D01*
X1039097Y190387D01*
X1039882Y190630D01*
X1040668Y190865D01*
X1041458Y191091D01*
X1042250Y191308D01*
X1043045Y191517D01*
X1043842Y191718D01*
X1044642Y191909D01*
X1045444Y192093D01*
X1046248Y192267D01*
X1047055Y192433D01*
X1047864Y192590D01*
X1048675Y192738D01*
X1049488Y192878D01*
X1050302Y193009D01*
X1051119Y193131D01*
X1051938Y193244D01*
X1052758Y193348D01*
X1053580Y193443D01*
X1054404Y193530D01*
X1055230Y193607D01*
X1056056Y193676D01*
X1056885Y193735D01*
X1057714Y193785D01*
X1058545Y193827D01*
X1059377Y193859D01*
X1060210Y193882D01*
X1061045Y193895D01*
X1061880Y193900D01*
X1061901Y193900D01*
X1061922Y193900D01*
X1061942Y193900D01*
X1061963Y193900D01*
X1061984Y193900D01*
X1062004Y193900D01*
X1062025Y193901D01*
X1062046Y193901D01*
X1062067Y193901D01*
X1062087Y193901D01*
X1062108Y193901D01*
X1062129Y193902D01*
X1062149Y193902D01*
X1062170Y193902D01*
X1062191Y193902D01*
X1062211Y193903D01*
X1062232Y193903D01*
X1062253Y193904D01*
X1062273Y193904D01*
X1062294Y193904D01*
X1062315Y193905D01*
X1062335Y193905D01*
X1062356Y193906D01*
X1062376Y193906D01*
X1062397Y193907D01*
X1062418Y193907D01*
X1062438Y193908D01*
X1062459Y193909D01*
X1062480Y193909D01*
X1062500Y193910D01*
X1062521Y193910D01*
X1062541Y193911D01*
X1062562Y193912D01*
X1062582Y193913D01*
X1062603Y193913D01*
X1062624Y193914D01*
X1062644Y193915D01*
X1062665Y193916D01*
X1062685Y193916D01*
X1062706Y193917D01*
X1062726Y193918D01*
X1062747Y193919D01*
X1062767Y193920D01*
X1062788Y193921D01*
X1062808Y193922D01*
X1062829Y193923D01*
X1062849Y193924D01*
X1062870Y193925D01*
X1062890Y193926D01*
X1062911Y193927D01*
X1062931Y193928D01*
X1062952Y193929D01*
X1062972Y193930D01*
X1062993Y193932D01*
X1063013Y193933D01*
X1063034Y193934D01*
X1063054Y193935D01*
X1063074Y193936D01*
X1063095Y193938D01*
X1063115Y193939D01*
X1063136Y193940D01*
X1063156Y193942D01*
X1063177Y193943D01*
X1063197Y193944D01*
X1063217Y193946D01*
X1063238Y193947D01*
X1063258Y193949D01*
X1063279Y193950D01*
X1063299Y193951D01*
X1063319Y193953D01*
X1063340Y193954D01*
X1063360Y193956D01*
X1063360Y642504D01*
X1063340Y642506D01*
X1063319Y642507D01*
X1063299Y642509D01*
X1063279Y642510D01*
X1063258Y642512D01*
X1063238Y642513D01*
X1063217Y642514D01*
X1063197Y642516D01*
X1063177Y642517D01*
X1063156Y642518D01*
X1063136Y642520D01*
X1063115Y642521D01*
X1063095Y642522D01*
X1063074Y642524D01*
X1063054Y642525D01*
X1063034Y642526D01*
X1063013Y642527D01*
X1062993Y642528D01*
X1062972Y642530D01*
X1062952Y642531D01*
X1062931Y642532D01*
X1062911Y642533D01*
X1062890Y642534D01*
X1062870Y642535D01*
X1062849Y642536D01*
X1062829Y642537D01*
X1062808Y642538D01*
X1062788Y642539D01*
X1062767Y642540D01*
X1062747Y642541D01*
X1062726Y642542D01*
X1062706Y642543D01*
X1062685Y642544D01*
X1062665Y642544D01*
X1062644Y642545D01*
X1062624Y642546D01*
X1062603Y642547D01*
X1062582Y642547D01*
X1062562Y642548D01*
X1062541Y642549D01*
X1062521Y642550D01*
X1062500Y642550D01*
X1062480Y642551D01*
X1062459Y642552D01*
X1062438Y642552D01*
X1062418Y642553D01*
X1062397Y642553D01*
X1062376Y642554D01*
X1062356Y642554D01*
X1062335Y642555D01*
X1062315Y642555D01*
X1062294Y642556D01*
X1062273Y642556D01*
X1062253Y642556D01*
X1062232Y642557D01*
X1062211Y642557D01*
X1062191Y642558D01*
X1062170Y642558D01*
X1062149Y642558D01*
X1062129Y642558D01*
X1062108Y642559D01*
X1062087Y642559D01*
X1062067Y642559D01*
X1062046Y642559D01*
X1062025Y642559D01*
X1062004Y642560D01*
X1061984Y642560D01*
X1061963Y642560D01*
X1061942Y642560D01*
X1061922Y642560D01*
X1061901Y642560D01*
X1061880Y642560D01*
X1061045Y642565D01*
X1060210Y642578D01*
X1059377Y642601D01*
X1058545Y642634D01*
X1057714Y642675D01*
X1056885Y642725D01*
X1056056Y642784D01*
X1055230Y642853D01*
X1054404Y642930D01*
X1053580Y643017D01*
X1052758Y643112D01*
X1051938Y643216D01*
X1051119Y643329D01*
X1050302Y643451D01*
X1049488Y643582D01*
X1048675Y643722D01*
X1047864Y643870D01*
X1047055Y644027D01*
X1046248Y644193D01*
X1045444Y644367D01*
X1044642Y644551D01*
X1043842Y644742D01*
X1043045Y644943D01*
X1042250Y645152D01*
X1041458Y645369D01*
X1040668Y645595D01*
X1039882Y645830D01*
X1039097Y646073D01*
X1038316Y646325D01*
X1037538Y646584D01*
X1036763Y646853D01*
X1035991Y647129D01*
X1035222Y647414D01*
X1034456Y647708D01*
X1033693Y648009D01*
X1032934Y648319D01*
X1032178Y648637D01*
X1031425Y648963D01*
X1030677Y649297D01*
X1029931Y649640D01*
X1029190Y649990D01*
X1028452Y650349D01*
X1027718Y650715D01*
X1026987Y651090D01*
X1026261Y651473D01*
X1025539Y651863D01*
X1024821Y652262D01*
X1024107Y652668D01*
X1023397Y653082D01*
X1022691Y653505D01*
X1021990Y653935D01*
X1021293Y654372D01*
X1020601Y654818D01*
X1019913Y655271D01*
X1019230Y655732D01*
X1018552Y656201D01*
X1017878Y656677D01*
X1017209Y657161D01*
X1016545Y657652D01*
X1015886Y658151D01*
X1015232Y658658D01*
X1014583Y659172D01*
X1013940Y659694D01*
X1013301Y660223D01*
X1012668Y660759D01*
X1012040Y661303D01*
X1011418Y661854D01*
X1010801Y662413D01*
X1010190Y662979D01*
X1009584Y663552D01*
X1008984Y664132D01*
X1008390Y664720D01*
X1007802Y665314D01*
X1007222Y665914D01*
X1006649Y666520D01*
X1006083Y667131D01*
X1005524Y667748D01*
X1004973Y668370D01*
X1004429Y668998D01*
X1003893Y669631D01*
X1003364Y670270D01*
X1002842Y670913D01*
X1002328Y671562D01*
X1001821Y672216D01*
X1001322Y672875D01*
X1000831Y673539D01*
X1000347Y674208D01*
X999871Y674882D01*
X999402Y675560D01*
X998941Y676243D01*
X998488Y676931D01*
X998042Y677624D01*
X997605Y678320D01*
X997175Y679022D01*
X996752Y679727D01*
X996338Y680437D01*
X995932Y681151D01*
X995533Y681869D01*
X995143Y682592D01*
X994760Y683318D01*
X994385Y684048D01*
X994019Y684782D01*
X993660Y685520D01*
X993310Y686262D01*
X992967Y687007D01*
X992633Y687756D01*
X992307Y688509D01*
X991989Y689265D01*
X991679Y690024D01*
X991378Y690787D01*
X991084Y691553D01*
X990799Y692322D01*
X990523Y693095D01*
X990254Y693870D01*
X989995Y694648D01*
X989743Y695430D01*
X989500Y696214D01*
X989265Y697001D01*
X989039Y697791D01*
X988822Y698583D01*
X988613Y699378D01*
X988412Y700175D01*
X988221Y700975D01*
X988037Y701778D01*
X987863Y702582D01*
X987697Y703389D01*
X987540Y704198D01*
X987392Y705009D01*
X987252Y705822D01*
X987121Y706638D01*
X986999Y707455D01*
X986886Y708274D01*
X986782Y709094D01*
X986687Y709917D01*
X986600Y710741D01*
X986523Y711567D01*
X986454Y712394D01*
X986395Y713222D01*
X986345Y714052D01*
X986304Y714883D01*
X986271Y715716D01*
X986248Y716550D01*
X986235Y717384D01*
X986230Y718220D01*
X986230Y808250D01*
X986225Y808694D01*
X986210Y809135D01*
X986185Y809574D01*
X986151Y810010D01*
X986107Y810444D01*
X986053Y810874D01*
X985991Y811302D01*
X985918Y811726D01*
X985837Y812147D01*
X985747Y812565D01*
X985647Y812980D01*
X985539Y813391D01*
X985422Y813798D01*
X985297Y814202D01*
X985162Y814602D01*
X985020Y814998D01*
X984869Y815390D01*
X984710Y815778D01*
X984543Y816161D01*
X984368Y816540D01*
X984185Y816915D01*
X983994Y817285D01*
X983795Y817650D01*
X983589Y818011D01*
X983376Y818366D01*
X983155Y818717D01*
X982927Y819063D01*
X982691Y819403D01*
X982449Y819738D01*
X982200Y820068D01*
X981944Y820392D01*
X981681Y820710D01*
X981412Y821023D01*
X981136Y821329D01*
X980854Y821630D01*
X980565Y821925D01*
X980270Y822214D01*
X979969Y822496D01*
X979663Y822772D01*
X979350Y823041D01*
X979032Y823304D01*
X978708Y823560D01*
X978378Y823809D01*
X978043Y824051D01*
X977703Y824287D01*
X977357Y824515D01*
X977006Y824736D01*
X976651Y824949D01*
X976290Y825155D01*
X975925Y825354D01*
X975555Y825545D01*
X975180Y825728D01*
X974801Y825903D01*
X974418Y826070D01*
X974030Y826229D01*
X973638Y826380D01*
X973242Y826522D01*
X972842Y826657D01*
X972438Y826782D01*
X972031Y826899D01*
X971620Y827007D01*
X971205Y827107D01*
X970787Y827197D01*
X970366Y827278D01*
X969942Y827351D01*
X969514Y827413D01*
X969084Y827467D01*
X968650Y827511D01*
X968214Y827545D01*
X967775Y827570D01*
X967334Y827585D01*
X966890Y827590D01*
X871120Y827590D01*
X871120Y809730D01*
X223440Y809730D01*
X223440Y827590D01*
X127670Y827590D01*
X127226Y827585D01*
X126785Y827570D01*
X126346Y827545D01*
X125910Y827511D01*
X125476Y827467D01*
X125046Y827413D01*
X124618Y827351D01*
X124194Y827278D01*
X123773Y827197D01*
X123355Y827107D01*
X122940Y827007D01*
X122529Y826899D01*
X122122Y826782D01*
X121718Y826657D01*
X121318Y826522D01*
X120922Y826380D01*
X120530Y826229D01*
X120142Y826070D01*
X119759Y825903D01*
X119380Y825728D01*
X119005Y825545D01*
X118635Y825354D01*
X118270Y825155D01*
X117909Y824949D01*
X117554Y824736D01*
X117203Y824515D01*
X116857Y824287D01*
X116517Y824051D01*
X116182Y823809D01*
X115852Y823560D01*
X115528Y823304D01*
X115210Y823041D01*
X114897Y822772D01*
X114591Y822496D01*
X114290Y822214D01*
X113995Y821925D01*
X113706Y821630D01*
X113424Y821329D01*
X113148Y821023D01*
X112879Y820710D01*
X112616Y820392D01*
X112360Y820068D01*
X112111Y819738D01*
X111869Y819403D01*
X111633Y819063D01*
X111405Y818717D01*
X111184Y818366D01*
X110971Y818011D01*
X110765Y817650D01*
X110566Y817285D01*
X110375Y816915D01*
X110192Y816540D01*
X110017Y816161D01*
X109850Y815778D01*
X109691Y815390D01*
X109540Y814998D01*
X109398Y814602D01*
X109263Y814202D01*
X109138Y813798D01*
X109021Y813391D01*
X108913Y812980D01*
X108813Y812565D01*
X108723Y812147D01*
X108642Y811726D01*
X108569Y811302D01*
X108507Y810874D01*
X108453Y810444D01*
X108409Y810010D01*
X108375Y809574D01*
X108350Y809135D01*
X108335Y808694D01*
X108330Y808250D01*
X108330Y718220D01*
X108310Y716483D01*
X108252Y714756D01*
X108155Y713039D01*
X108021Y711333D01*
X107849Y709637D01*
X107639Y707953D01*
X107393Y706280D01*
X107111Y704619D01*
X106793Y702971D01*
X106439Y701335D01*
X106051Y699713D01*
X105628Y698105D01*
X105170Y696511D01*
X104679Y694932D01*
X104155Y693367D01*
X103597Y691818D01*
X103007Y690285D01*
X102385Y688768D01*
X101731Y687268D01*
X101046Y685785D01*
X100330Y684319D01*
X99584Y682871D01*
X98807Y681442D01*
X98001Y680031D01*
X97166Y678640D01*
X96302Y677268D01*
X95410Y675916D01*
X94490Y674585D01*
X93542Y673274D01*
X92567Y671985D01*
X91566Y670717D01*
X90538Y669472D01*
X89484Y668249D01*
X88405Y667048D01*
X87301Y665872D01*
X86172Y664719D01*
X85020Y663590D01*
X83843Y662486D01*
X82643Y661407D01*
X81420Y660353D01*
X80175Y659325D01*
X78907Y658323D01*
X77618Y657349D01*
X76308Y656401D01*
X74976Y655480D01*
X73625Y654588D01*
X72253Y653724D01*
X70862Y652889D01*
X69451Y652083D01*
X68022Y651306D01*
X66575Y650560D01*
X65109Y649844D01*
X63626Y649159D01*
X62126Y648505D01*
X60610Y647883D01*
X59077Y647293D01*
X57528Y646736D01*
X55964Y646211D01*
X54384Y645720D01*
X52791Y645262D01*
X51183Y644839D01*
X49561Y644451D01*
X47926Y644097D01*
X46278Y643779D01*
X44618Y643497D01*
X42945Y643251D01*
X41261Y643041D01*
X39566Y642869D01*
X37859Y642735D01*
X36143Y642638D01*
X34416Y642580D01*
X32680Y642560D01*
X32659Y642560D01*
X32639Y642560D01*
X32618Y642560D01*
X32597Y642560D01*
X32577Y642560D01*
X32556Y642560D01*
X32536Y642559D01*
X32515Y642559D01*
X32494Y642559D01*
X32474Y642559D01*
X32453Y642559D01*
X32432Y642558D01*
X32412Y642558D01*
X32391Y642558D01*
X32370Y642558D01*
X32350Y642557D01*
X32329Y642557D01*
X32309Y642556D01*
X32288Y642556D01*
X32267Y642556D01*
X32247Y642555D01*
X32226Y642555D01*
X32206Y642554D01*
X32185Y642554D01*
X32164Y642553D01*
X32144Y642553D01*
X32123Y642552D01*
X32103Y642551D01*
X32082Y642551D01*
X32062Y642550D01*
X32041Y642550D01*
X32020Y642549D01*
X32000Y642548D01*
X31979Y642547D01*
X31959Y642547D01*
X31938Y642546D01*
X31918Y642545D01*
X31897Y642544D01*
X31876Y642543D01*
X31856Y642543D01*
X31835Y642542D01*
X31815Y642541D01*
X31794Y642540D01*
X31774Y642539D01*
X31753Y642538D01*
X31733Y642537D01*
X31712Y642536D01*
X31692Y642535D01*
X31671Y642534D01*
X31651Y642533D01*
X31630Y642532D01*
X31610Y642531D01*
X31589Y642530D01*
X31569Y642528D01*
X31548Y642527D01*
X31528Y642526D01*
X31507Y642525D01*
X31487Y642524D01*
X31466Y642522D01*
X31446Y642521D01*
X31425Y642520D01*
X31405Y642518D01*
X31384Y642517D01*
X31364Y642516D01*
X31343Y642514D01*
X31323Y642513D01*
X31302Y642511D01*
X31282Y642510D01*
X31261Y642509D01*
X31241Y642507D01*
X31220Y642506D01*
X31200Y642504D01*
X31200Y193956D01*
X914680Y758190D02*
X914682Y757935D01*
X914688Y757681D01*
X914697Y757428D01*
X914710Y757175D01*
X914727Y756922D01*
X914747Y756671D01*
X914772Y756420D01*
X914799Y756170D01*
X914831Y755921D01*
X914866Y755672D01*
X914905Y755425D01*
X914947Y755178D01*
X914993Y754933D01*
X915042Y754688D01*
X915095Y754444D01*
X915151Y754202D01*
X915211Y753960D01*
X915274Y753720D01*
X915341Y753480D01*
X915411Y753242D01*
X915484Y753005D01*
X915561Y752770D01*
X915641Y752535D01*
X915724Y752302D01*
X915811Y752071D01*
X915901Y751840D01*
X915995Y751611D01*
X916091Y751384D01*
X916191Y751158D01*
X916294Y750934D01*
X916400Y750711D01*
X916510Y750490D01*
X916622Y750270D01*
X916738Y750052D01*
X916857Y749836D01*
X916979Y749621D01*
X917104Y749408D01*
X917232Y749198D01*
X917363Y748988D01*
X917497Y748781D01*
X917634Y748576D01*
X917774Y748372D01*
X917917Y748171D01*
X918063Y747971D01*
X918212Y747774D01*
X918363Y747579D01*
X918518Y747386D01*
X918676Y747194D01*
X918836Y747006D01*
X918999Y746819D01*
X919165Y746634D01*
X919334Y746452D01*
X919505Y746272D01*
X919679Y746095D01*
X919856Y745920D01*
X920036Y745747D01*
X920218Y745577D01*
X920403Y745409D01*
X920591Y745244D01*
X920781Y745081D01*
X920973Y744921D01*
X921169Y744763D01*
X921367Y744609D01*
X921567Y744456D01*
X921770Y744307D01*
X921976Y744160D01*
X922184Y744016D01*
X922394Y743875D01*
X922607Y743737D01*
X922822Y743602D01*
X923040Y743469D01*
X923260Y743340D01*
X923482Y743214D01*
X923704Y743092D01*
X923929Y742973D01*
X924154Y742858D01*
X924381Y742747D01*
X924609Y742639D01*
X924839Y742534D01*
X925069Y742433D01*
X925301Y742336D01*
X925533Y742242D01*
X925767Y742152D01*
X926002Y742065D01*
X926238Y741982D01*
X926474Y741902D01*
X926712Y741826D01*
X926950Y741753D01*
X927189Y741684D01*
X927429Y741619D01*
X927669Y741557D01*
X927911Y741498D01*
X928152Y741443D01*
X928395Y741392D01*
X928638Y741344D01*
X928881Y741300D01*
X929126Y741259D01*
X929370Y741222D01*
X929615Y741188D01*
X929860Y741158D01*
X930106Y741132D01*
X930351Y741109D01*
X930597Y741089D01*
X930844Y741073D01*
X931090Y741061D01*
X931337Y741052D01*
X931583Y741047D01*
X931830Y741045D01*
X932077Y741047D01*
X932323Y741052D01*
X932570Y741061D01*
X932816Y741073D01*
X933063Y741089D01*
X933309Y741109D01*
X933554Y741132D01*
X933800Y741158D01*
X934045Y741188D01*
X934290Y741222D01*
X934535Y741259D01*
X934779Y741300D01*
X935022Y741344D01*
X935265Y741392D01*
X935508Y741443D01*
X935749Y741498D01*
X935991Y741557D01*
X936231Y741619D01*
X936471Y741684D01*
X936710Y741753D01*
X936948Y741826D01*
X937186Y741902D01*
X937423Y741982D01*
X937658Y742065D01*
X937893Y742152D01*
X938127Y742242D01*
X938359Y742336D01*
X938591Y742433D01*
X938821Y742534D01*
X939051Y742639D01*
X939279Y742747D01*
X939506Y742858D01*
X939731Y742973D01*
X939956Y743092D01*
X940178Y743214D01*
X940400Y743340D01*
X940620Y743469D01*
X940838Y743602D01*
X941053Y743737D01*
X941266Y743875D01*
X941476Y744016D01*
X941684Y744160D01*
X941890Y744307D01*
X942092Y744456D01*
X942293Y744609D01*
X942491Y744763D01*
X942686Y744921D01*
X942879Y745081D01*
X943069Y745244D01*
X943256Y745409D01*
X943441Y745577D01*
X943623Y745747D01*
X943802Y745920D01*
X943979Y746095D01*
X944153Y746272D01*
X944325Y746452D01*
X944493Y746634D01*
X944659Y746819D01*
X944822Y747006D01*
X944982Y747194D01*
X945139Y747386D01*
X945294Y747579D01*
X945445Y747774D01*
X945594Y747971D01*
X945739Y748171D01*
X945882Y748372D01*
X946022Y748576D01*
X946159Y748781D01*
X946293Y748988D01*
X946424Y749198D01*
X946551Y749408D01*
X946676Y749621D01*
X946798Y749836D01*
X946917Y750052D01*
X947032Y750270D01*
X947144Y750490D01*
X947254Y750711D01*
X947360Y750934D01*
X947462Y751158D01*
X947562Y751384D01*
X947659Y751611D01*
X947752Y751840D01*
X947842Y752071D01*
X947928Y752302D01*
X948011Y752535D01*
X948091Y752770D01*
X948168Y753005D01*
X948241Y753242D01*
X948311Y753480D01*
X948378Y753720D01*
X948441Y753960D01*
X948500Y754202D01*
X948556Y754444D01*
X948609Y754688D01*
X948658Y754933D01*
X948704Y755178D01*
X948746Y755425D01*
X948785Y755672D01*
X948820Y755921D01*
X948851Y756170D01*
X948879Y756420D01*
X948903Y756671D01*
X948923Y756922D01*
X948940Y757175D01*
X948953Y757428D01*
X948962Y757681D01*
X948968Y757935D01*
X948970Y758190D01*
X948968Y758445D01*
X948962Y758700D01*
X948953Y758954D01*
X948940Y759207D01*
X948923Y759460D01*
X948903Y759711D01*
X948879Y759963D01*
X948851Y760213D01*
X948820Y760463D01*
X948785Y760711D01*
X948746Y760959D01*
X948704Y761206D01*
X948658Y761452D01*
X948609Y761697D01*
X948556Y761941D01*
X948500Y762184D01*
X948441Y762425D01*
X948378Y762666D01*
X948311Y762906D01*
X948241Y763144D01*
X948168Y763381D01*
X948091Y763617D01*
X948011Y763851D01*
X947928Y764084D01*
X947842Y764316D01*
X947752Y764547D01*
X947659Y764776D01*
X947562Y765003D01*
X947462Y765229D01*
X947360Y765454D01*
X947254Y765677D01*
X947144Y765898D01*
X947032Y766117D01*
X946917Y766335D01*
X946798Y766552D01*
X946676Y766766D01*
X946551Y766979D01*
X946424Y767190D01*
X946293Y767399D01*
X946159Y767606D01*
X946022Y767812D01*
X945882Y768015D01*
X945739Y768216D01*
X945594Y768416D01*
X945445Y768613D01*
X945294Y768808D01*
X945139Y769001D01*
X944982Y769192D01*
X944822Y769381D01*
X944659Y769568D01*
X944493Y769752D01*
X944325Y769934D01*
X944153Y770113D01*
X943979Y770291D01*
X943802Y770466D01*
X943623Y770638D01*
X943441Y770808D01*
X943256Y770976D01*
X943069Y771141D01*
X942879Y771303D01*
X942686Y771463D01*
X942491Y771620D01*
X942293Y771775D01*
X942092Y771927D01*
X941890Y772076D01*
X941684Y772222D01*
X941476Y772366D01*
X941266Y772506D01*
X941053Y772644D01*
X940838Y772779D01*
X940620Y772911D01*
X940400Y773040D01*
X940178Y773166D01*
X939956Y773288D01*
X939731Y773407D01*
X939506Y773522D01*
X939279Y773633D01*
X939051Y773741D01*
X938821Y773846D01*
X938591Y773947D01*
X938359Y774044D01*
X938127Y774138D01*
X937893Y774228D01*
X937658Y774315D01*
X937423Y774398D01*
X937186Y774478D01*
X936948Y774554D01*
X936710Y774627D01*
X936471Y774696D01*
X936231Y774761D01*
X935991Y774823D01*
X935749Y774882D01*
X935508Y774937D01*
X935265Y774988D01*
X935022Y775036D01*
X934779Y775080D01*
X934535Y775121D01*
X934290Y775158D01*
X934045Y775192D01*
X933800Y775222D01*
X933554Y775248D01*
X933309Y775271D01*
X933063Y775291D01*
X932816Y775307D01*
X932570Y775319D01*
X932323Y775328D01*
X932077Y775333D01*
X931830Y775335D01*
X931583Y775333D01*
X931337Y775328D01*
X931090Y775319D01*
X930844Y775307D01*
X930597Y775291D01*
X930351Y775271D01*
X930106Y775248D01*
X929860Y775222D01*
X929615Y775192D01*
X929370Y775158D01*
X929126Y775121D01*
X928881Y775080D01*
X928638Y775036D01*
X928395Y774988D01*
X928152Y774937D01*
X927911Y774882D01*
X927669Y774823D01*
X927429Y774761D01*
X927189Y774696D01*
X926950Y774627D01*
X926712Y774554D01*
X926474Y774478D01*
X926238Y774398D01*
X926002Y774315D01*
X925767Y774228D01*
X925533Y774138D01*
X925301Y774044D01*
X925069Y773947D01*
X924839Y773846D01*
X924609Y773741D01*
X924381Y773633D01*
X924154Y773522D01*
X923929Y773407D01*
X923704Y773288D01*
X923482Y773166D01*
X923260Y773040D01*
X923040Y772911D01*
X922822Y772779D01*
X922607Y772644D01*
X922394Y772506D01*
X922184Y772366D01*
X921976Y772222D01*
X921770Y772076D01*
X921567Y771927D01*
X921367Y771775D01*
X921169Y771620D01*
X920973Y771463D01*
X920781Y771303D01*
X920591Y771141D01*
X920403Y770976D01*
X920218Y770808D01*
X920036Y770638D01*
X919856Y770466D01*
X919679Y770291D01*
X919505Y770113D01*
X919334Y769934D01*
X919165Y769752D01*
X918999Y769568D01*
X918836Y769381D01*
X918676Y769192D01*
X918518Y769001D01*
X918363Y768808D01*
X918212Y768613D01*
X918063Y768416D01*
X917917Y768216D01*
X917774Y768015D01*
X917634Y767812D01*
X917497Y767606D01*
X917363Y767399D01*
X917232Y767190D01*
X917104Y766979D01*
X916979Y766766D01*
X916857Y766552D01*
X916738Y766335D01*
X916622Y766117D01*
X916510Y765898D01*
X916400Y765677D01*
X916294Y765454D01*
X916191Y765229D01*
X916091Y765003D01*
X915995Y764776D01*
X915901Y764547D01*
X915811Y764316D01*
X915724Y764084D01*
X915641Y763851D01*
X915561Y763617D01*
X915484Y763381D01*
X915411Y763144D01*
X915341Y762906D01*
X915274Y762666D01*
X915211Y762425D01*
X915151Y762184D01*
X915095Y761941D01*
X915042Y761697D01*
X914993Y761452D01*
X914947Y761206D01*
X914905Y760959D01*
X914866Y760711D01*
X914831Y760463D01*
X914799Y760213D01*
X914772Y759963D01*
X914747Y759711D01*
X914727Y759460D01*
X914710Y759207D01*
X914697Y758954D01*
X914688Y758700D01*
X914682Y758445D01*
X914680Y758190D01*
X914680Y78270D02*
X914682Y78015D01*
X914688Y77760D01*
X914697Y77506D01*
X914710Y77253D01*
X914727Y77000D01*
X914747Y76749D01*
X914772Y76497D01*
X914799Y76247D01*
X914831Y75997D01*
X914866Y75749D01*
X914905Y75501D01*
X914947Y75254D01*
X914993Y75008D01*
X915042Y74763D01*
X915095Y74519D01*
X915151Y74276D01*
X915211Y74035D01*
X915274Y73794D01*
X915341Y73554D01*
X915411Y73316D01*
X915484Y73079D01*
X915561Y72843D01*
X915641Y72609D01*
X915724Y72376D01*
X915811Y72144D01*
X915901Y71913D01*
X915995Y71684D01*
X916091Y71457D01*
X916191Y71231D01*
X916294Y71006D01*
X916400Y70783D01*
X916510Y70562D01*
X916622Y70343D01*
X916738Y70125D01*
X916857Y69908D01*
X916979Y69694D01*
X917104Y69481D01*
X917232Y69270D01*
X917363Y69061D01*
X917497Y68854D01*
X917634Y68648D01*
X917774Y68445D01*
X917917Y68244D01*
X918063Y68044D01*
X918212Y67847D01*
X918363Y67652D01*
X918518Y67459D01*
X918676Y67268D01*
X918836Y67079D01*
X918999Y66892D01*
X919165Y66708D01*
X919334Y66526D01*
X919505Y66347D01*
X919679Y66169D01*
X919856Y65994D01*
X920036Y65822D01*
X920218Y65652D01*
X920403Y65484D01*
X920591Y65319D01*
X920781Y65157D01*
X920973Y64997D01*
X921169Y64840D01*
X921367Y64685D01*
X921567Y64533D01*
X921770Y64384D01*
X921976Y64238D01*
X922184Y64094D01*
X922394Y63954D01*
X922607Y63816D01*
X922822Y63681D01*
X923040Y63549D01*
X923260Y63420D01*
X923482Y63294D01*
X923704Y63172D01*
X923929Y63053D01*
X924154Y62938D01*
X924381Y62827D01*
X924609Y62719D01*
X924839Y62614D01*
X925069Y62513D01*
X925301Y62416D01*
X925533Y62322D01*
X925767Y62232D01*
X926002Y62145D01*
X926238Y62062D01*
X926474Y61982D01*
X926712Y61906D01*
X926950Y61833D01*
X927189Y61764D01*
X927429Y61699D01*
X927669Y61637D01*
X927911Y61578D01*
X928152Y61523D01*
X928395Y61472D01*
X928638Y61424D01*
X928881Y61380D01*
X929126Y61339D01*
X929370Y61302D01*
X929615Y61268D01*
X929860Y61238D01*
X930106Y61212D01*
X930351Y61189D01*
X930597Y61169D01*
X930844Y61153D01*
X931090Y61141D01*
X931337Y61132D01*
X931583Y61127D01*
X931830Y61125D01*
X932077Y61127D01*
X932323Y61132D01*
X932570Y61141D01*
X932816Y61153D01*
X933063Y61169D01*
X933309Y61189D01*
X933554Y61212D01*
X933800Y61238D01*
X934045Y61268D01*
X934290Y61302D01*
X934535Y61339D01*
X934779Y61380D01*
X935022Y61424D01*
X935265Y61472D01*
X935508Y61523D01*
X935749Y61578D01*
X935991Y61637D01*
X936231Y61699D01*
X936471Y61764D01*
X936710Y61833D01*
X936948Y61906D01*
X937186Y61982D01*
X937423Y62062D01*
X937658Y62145D01*
X937893Y62232D01*
X938127Y62322D01*
X938359Y62416D01*
X938591Y62513D01*
X938821Y62614D01*
X939051Y62719D01*
X939279Y62827D01*
X939506Y62938D01*
X939731Y63053D01*
X939956Y63172D01*
X940178Y63294D01*
X940400Y63420D01*
X940620Y63549D01*
X940838Y63681D01*
X941053Y63816D01*
X941266Y63954D01*
X941476Y64094D01*
X941684Y64238D01*
X941890Y64384D01*
X942092Y64533D01*
X942293Y64685D01*
X942491Y64840D01*
X942686Y64997D01*
X942879Y65157D01*
X943069Y65319D01*
X943256Y65484D01*
X943441Y65652D01*
X943623Y65822D01*
X943802Y65994D01*
X943979Y66169D01*
X944153Y66347D01*
X944325Y66526D01*
X944493Y66708D01*
X944659Y66892D01*
X944822Y67079D01*
X944982Y67268D01*
X945139Y67459D01*
X945294Y67652D01*
X945445Y67847D01*
X945594Y68044D01*
X945739Y68244D01*
X945882Y68445D01*
X946022Y68648D01*
X946159Y68854D01*
X946293Y69061D01*
X946424Y69270D01*
X946551Y69481D01*
X946676Y69694D01*
X946798Y69908D01*
X946917Y70125D01*
X947032Y70343D01*
X947144Y70562D01*
X947254Y70783D01*
X947360Y71006D01*
X947462Y71231D01*
X947562Y71457D01*
X947659Y71684D01*
X947752Y71913D01*
X947842Y72144D01*
X947928Y72376D01*
X948011Y72609D01*
X948091Y72843D01*
X948168Y73079D01*
X948241Y73316D01*
X948311Y73554D01*
X948378Y73794D01*
X948441Y74035D01*
X948500Y74276D01*
X948556Y74519D01*
X948609Y74763D01*
X948658Y75008D01*
X948704Y75254D01*
X948746Y75501D01*
X948785Y75749D01*
X948820Y75997D01*
X948851Y76247D01*
X948879Y76497D01*
X948903Y76749D01*
X948923Y77000D01*
X948940Y77253D01*
X948953Y77506D01*
X948962Y77760D01*
X948968Y78015D01*
X948970Y78270D01*
X948968Y78525D01*
X948962Y78779D01*
X948953Y79032D01*
X948940Y79285D01*
X948923Y79538D01*
X948903Y79789D01*
X948879Y80040D01*
X948851Y80290D01*
X948820Y80539D01*
X948785Y80788D01*
X948746Y81035D01*
X948704Y81282D01*
X948658Y81527D01*
X948609Y81772D01*
X948556Y82016D01*
X948500Y82258D01*
X948441Y82500D01*
X948378Y82740D01*
X948311Y82980D01*
X948241Y83218D01*
X948168Y83455D01*
X948091Y83690D01*
X948011Y83925D01*
X947928Y84158D01*
X947842Y84389D01*
X947752Y84620D01*
X947659Y84849D01*
X947562Y85076D01*
X947462Y85302D01*
X947360Y85526D01*
X947254Y85749D01*
X947144Y85970D01*
X947032Y86190D01*
X946917Y86408D01*
X946798Y86624D01*
X946676Y86839D01*
X946551Y87052D01*
X946424Y87262D01*
X946293Y87472D01*
X946159Y87679D01*
X946022Y87884D01*
X945882Y88088D01*
X945739Y88289D01*
X945594Y88489D01*
X945445Y88686D01*
X945294Y88881D01*
X945139Y89074D01*
X944982Y89266D01*
X944822Y89454D01*
X944659Y89641D01*
X944493Y89826D01*
X944325Y90008D01*
X944153Y90188D01*
X943979Y90365D01*
X943802Y90540D01*
X943623Y90713D01*
X943441Y90883D01*
X943256Y91051D01*
X943069Y91216D01*
X942879Y91379D01*
X942686Y91539D01*
X942491Y91697D01*
X942293Y91852D01*
X942092Y92004D01*
X941890Y92153D01*
X941684Y92300D01*
X941476Y92444D01*
X941266Y92585D01*
X941053Y92723D01*
X940838Y92858D01*
X940620Y92991D01*
X940400Y93120D01*
X940178Y93246D01*
X939956Y93368D01*
X939731Y93487D01*
X939506Y93602D01*
X939279Y93713D01*
X939051Y93821D01*
X938821Y93926D01*
X938591Y94027D01*
X938359Y94124D01*
X938127Y94218D01*
X937893Y94308D01*
X937658Y94395D01*
X937423Y94478D01*
X937186Y94558D01*
X936948Y94634D01*
X936710Y94707D01*
X936471Y94776D01*
X936231Y94841D01*
X935991Y94903D01*
X935749Y94962D01*
X935508Y95017D01*
X935265Y95068D01*
X935022Y95116D01*
X934779Y95160D01*
X934535Y95201D01*
X934290Y95238D01*
X934045Y95272D01*
X933800Y95302D01*
X933554Y95328D01*
X933309Y95351D01*
X933063Y95371D01*
X932816Y95387D01*
X932570Y95399D01*
X932323Y95408D01*
X932077Y95413D01*
X931830Y95415D01*
X931583Y95413D01*
X931337Y95408D01*
X931090Y95399D01*
X930844Y95387D01*
X930597Y95371D01*
X930351Y95351D01*
X930106Y95328D01*
X929860Y95302D01*
X929615Y95272D01*
X929370Y95238D01*
X929126Y95201D01*
X928881Y95160D01*
X928638Y95116D01*
X928395Y95068D01*
X928152Y95017D01*
X927911Y94962D01*
X927669Y94903D01*
X927429Y94841D01*
X927189Y94776D01*
X926950Y94707D01*
X926712Y94634D01*
X926474Y94558D01*
X926238Y94478D01*
X926002Y94395D01*
X925767Y94308D01*
X925533Y94218D01*
X925301Y94124D01*
X925069Y94027D01*
X924839Y93926D01*
X924609Y93821D01*
X924381Y93713D01*
X924154Y93602D01*
X923929Y93487D01*
X923704Y93368D01*
X923482Y93246D01*
X923260Y93120D01*
X923040Y92991D01*
X922822Y92858D01*
X922607Y92723D01*
X922394Y92585D01*
X922184Y92444D01*
X921976Y92300D01*
X921770Y92153D01*
X921567Y92004D01*
X921367Y91852D01*
X921169Y91697D01*
X920973Y91539D01*
X920781Y91379D01*
X920591Y91216D01*
X920403Y91051D01*
X920218Y90883D01*
X920036Y90713D01*
X919856Y90540D01*
X919679Y90365D01*
X919505Y90188D01*
X919334Y90008D01*
X919165Y89826D01*
X918999Y89641D01*
X918836Y89454D01*
X918676Y89266D01*
X918518Y89074D01*
X918363Y88881D01*
X918212Y88686D01*
X918063Y88489D01*
X917917Y88289D01*
X917774Y88088D01*
X917634Y87884D01*
X917497Y87679D01*
X917363Y87472D01*
X917232Y87262D01*
X917104Y87052D01*
X916979Y86839D01*
X916857Y86624D01*
X916738Y86408D01*
X916622Y86190D01*
X916510Y85970D01*
X916400Y85749D01*
X916294Y85526D01*
X916191Y85302D01*
X916091Y85076D01*
X915995Y84849D01*
X915901Y84620D01*
X915811Y84389D01*
X915724Y84158D01*
X915641Y83925D01*
X915561Y83690D01*
X915484Y83455D01*
X915411Y83218D01*
X915341Y82980D01*
X915274Y82740D01*
X915211Y82500D01*
X915151Y82258D01*
X915095Y82016D01*
X915042Y81772D01*
X914993Y81527D01*
X914947Y81282D01*
X914905Y81035D01*
X914866Y80788D01*
X914831Y80539D01*
X914799Y80290D01*
X914772Y80040D01*
X914747Y79789D01*
X914727Y79538D01*
X914710Y79285D01*
X914697Y79032D01*
X914688Y78779D01*
X914682Y78525D01*
X914680Y78270D01*
X145590Y78270D02*
X145592Y78015D01*
X145598Y77760D01*
X145607Y77506D01*
X145620Y77253D01*
X145637Y77000D01*
X145657Y76749D01*
X145682Y76497D01*
X145709Y76247D01*
X145741Y75997D01*
X145776Y75749D01*
X145815Y75501D01*
X145857Y75254D01*
X145903Y75008D01*
X145952Y74763D01*
X146005Y74519D01*
X146061Y74276D01*
X146121Y74035D01*
X146184Y73794D01*
X146250Y73554D01*
X146320Y73316D01*
X146394Y73079D01*
X146471Y72843D01*
X146551Y72609D01*
X146634Y72376D01*
X146721Y72144D01*
X146811Y71913D01*
X146904Y71684D01*
X147001Y71457D01*
X147100Y71231D01*
X147203Y71006D01*
X147310Y70783D01*
X147419Y70562D01*
X147531Y70343D01*
X147647Y70125D01*
X147766Y69908D01*
X147887Y69694D01*
X148012Y69481D01*
X148140Y69270D01*
X148271Y69061D01*
X148405Y68854D01*
X148542Y68648D01*
X148682Y68445D01*
X148825Y68244D01*
X148971Y68044D01*
X149119Y67847D01*
X149271Y67652D01*
X149425Y67459D01*
X149583Y67268D01*
X149743Y67079D01*
X149906Y66892D01*
X150071Y66708D01*
X150240Y66526D01*
X150411Y66347D01*
X150585Y66169D01*
X150762Y65994D01*
X150941Y65822D01*
X151123Y65652D01*
X151308Y65484D01*
X151495Y65319D01*
X151685Y65157D01*
X151877Y64997D01*
X152072Y64840D01*
X152270Y64685D01*
X152470Y64533D01*
X152673Y64384D01*
X152878Y64238D01*
X153086Y64094D01*
X153296Y63954D01*
X153508Y63816D01*
X153723Y63681D01*
X153940Y63549D01*
X154160Y63420D01*
X154382Y63294D01*
X154605Y63172D01*
X154830Y63053D01*
X155056Y62938D01*
X155283Y62827D01*
X155512Y62719D01*
X155741Y62614D01*
X155972Y62513D01*
X156204Y62416D01*
X156437Y62322D01*
X156670Y62232D01*
X156905Y62145D01*
X157141Y62062D01*
X157378Y61982D01*
X157615Y61906D01*
X157854Y61833D01*
X158093Y61764D01*
X158333Y61699D01*
X158574Y61637D01*
X158815Y61578D01*
X159057Y61523D01*
X159299Y61472D01*
X159542Y61424D01*
X159786Y61380D01*
X160030Y61339D01*
X160274Y61302D01*
X160519Y61268D01*
X160764Y61238D01*
X161010Y61212D01*
X161256Y61189D01*
X161502Y61169D01*
X161748Y61153D01*
X161994Y61141D01*
X162241Y61132D01*
X162487Y61127D01*
X162734Y61125D01*
X162980Y61127D01*
X163227Y61132D01*
X163473Y61141D01*
X163720Y61153D01*
X163966Y61169D01*
X164212Y61189D01*
X164457Y61212D01*
X164703Y61238D01*
X164948Y61268D01*
X165193Y61302D01*
X165437Y61339D01*
X165681Y61380D01*
X165924Y61424D01*
X166167Y61472D01*
X166409Y61523D01*
X166651Y61578D01*
X166892Y61637D01*
X167133Y61699D01*
X167372Y61764D01*
X167611Y61833D01*
X167850Y61906D01*
X168087Y61982D01*
X168323Y62062D01*
X168559Y62145D01*
X168793Y62232D01*
X169027Y62322D01*
X169260Y62416D01*
X169491Y62513D01*
X169722Y62614D01*
X169951Y62719D01*
X170179Y62827D01*
X170406Y62938D01*
X170631Y63053D01*
X170856Y63172D01*
X171078Y63294D01*
X171300Y63420D01*
X171520Y63549D01*
X171738Y63681D01*
X171953Y63816D01*
X172166Y63954D01*
X172376Y64094D01*
X172584Y64238D01*
X172790Y64384D01*
X172993Y64533D01*
X173193Y64685D01*
X173391Y64840D01*
X173587Y64997D01*
X173779Y65157D01*
X173970Y65319D01*
X174157Y65484D01*
X174342Y65652D01*
X174524Y65822D01*
X174704Y65994D01*
X174881Y66169D01*
X175055Y66347D01*
X175226Y66526D01*
X175395Y66708D01*
X175561Y66892D01*
X175724Y67079D01*
X175884Y67268D01*
X176042Y67459D01*
X176197Y67652D01*
X176348Y67847D01*
X176497Y68044D01*
X176643Y68244D01*
X176786Y68445D01*
X176926Y68648D01*
X177063Y68854D01*
X177197Y69061D01*
X177328Y69270D01*
X177456Y69481D01*
X177581Y69694D01*
X177703Y69908D01*
X177822Y70125D01*
X177938Y70343D01*
X178050Y70562D01*
X178160Y70783D01*
X178266Y71006D01*
X178369Y71231D01*
X178469Y71457D01*
X178565Y71684D01*
X178659Y71913D01*
X178749Y72144D01*
X178836Y72376D01*
X178919Y72609D01*
X178999Y72843D01*
X179076Y73079D01*
X179149Y73316D01*
X179219Y73554D01*
X179286Y73794D01*
X179349Y74035D01*
X179409Y74276D01*
X179465Y74519D01*
X179518Y74763D01*
X179567Y75008D01*
X179613Y75254D01*
X179655Y75501D01*
X179694Y75749D01*
X179729Y75997D01*
X179761Y76247D01*
X179788Y76497D01*
X179813Y76749D01*
X179833Y77000D01*
X179850Y77253D01*
X179863Y77506D01*
X179872Y77760D01*
X179878Y78015D01*
X179880Y78270D01*
X179878Y78525D01*
X179872Y78779D01*
X179863Y79032D01*
X179850Y79285D01*
X179833Y79538D01*
X179813Y79789D01*
X179788Y80040D01*
X179761Y80290D01*
X179729Y80539D01*
X179694Y80788D01*
X179655Y81035D01*
X179613Y81282D01*
X179567Y81527D01*
X179518Y81772D01*
X179465Y82016D01*
X179409Y82258D01*
X179349Y82500D01*
X179286Y82740D01*
X179219Y82980D01*
X179149Y83218D01*
X179076Y83455D01*
X178999Y83690D01*
X178919Y83925D01*
X178836Y84158D01*
X178749Y84389D01*
X178659Y84620D01*
X178565Y84849D01*
X178469Y85076D01*
X178369Y85302D01*
X178266Y85526D01*
X178160Y85749D01*
X178050Y85970D01*
X177938Y86190D01*
X177822Y86408D01*
X177703Y86624D01*
X177581Y86839D01*
X177456Y87052D01*
X177328Y87262D01*
X177197Y87472D01*
X177063Y87679D01*
X176926Y87884D01*
X176786Y88088D01*
X176643Y88289D01*
X176497Y88489D01*
X176348Y88686D01*
X176197Y88881D01*
X176042Y89074D01*
X175884Y89266D01*
X175724Y89454D01*
X175561Y89641D01*
X175395Y89826D01*
X175226Y90008D01*
X175055Y90188D01*
X174881Y90365D01*
X174704Y90540D01*
X174524Y90713D01*
X174342Y90883D01*
X174157Y91051D01*
X173970Y91216D01*
X173779Y91379D01*
X173587Y91539D01*
X173391Y91697D01*
X173193Y91852D01*
X172993Y92004D01*
X172790Y92153D01*
X172584Y92300D01*
X172376Y92444D01*
X172166Y92585D01*
X171953Y92723D01*
X171738Y92858D01*
X171520Y92991D01*
X171300Y93120D01*
X171078Y93246D01*
X170856Y93368D01*
X170631Y93487D01*
X170406Y93602D01*
X170179Y93713D01*
X169951Y93821D01*
X169722Y93926D01*
X169491Y94027D01*
X169260Y94124D01*
X169027Y94218D01*
X168793Y94308D01*
X168559Y94395D01*
X168323Y94478D01*
X168087Y94558D01*
X167850Y94634D01*
X167611Y94707D01*
X167372Y94776D01*
X167133Y94841D01*
X166892Y94903D01*
X166651Y94962D01*
X166409Y95017D01*
X166167Y95068D01*
X165924Y95116D01*
X165681Y95160D01*
X165437Y95201D01*
X165193Y95238D01*
X164948Y95272D01*
X164703Y95302D01*
X164457Y95328D01*
X164212Y95351D01*
X163966Y95371D01*
X163720Y95387D01*
X163473Y95399D01*
X163227Y95408D01*
X162980Y95413D01*
X162734Y95415D01*
X162487Y95413D01*
X162241Y95408D01*
X161994Y95399D01*
X161748Y95387D01*
X161502Y95371D01*
X161256Y95351D01*
X161010Y95328D01*
X160764Y95302D01*
X160519Y95272D01*
X160274Y95238D01*
X160030Y95201D01*
X159786Y95160D01*
X159542Y95116D01*
X159299Y95068D01*
X159057Y95017D01*
X158815Y94962D01*
X158574Y94903D01*
X158333Y94841D01*
X158093Y94776D01*
X157854Y94707D01*
X157615Y94634D01*
X157378Y94558D01*
X157141Y94478D01*
X156905Y94395D01*
X156670Y94308D01*
X156437Y94218D01*
X156204Y94124D01*
X155972Y94027D01*
X155741Y93926D01*
X155512Y93821D01*
X155283Y93713D01*
X155056Y93602D01*
X154830Y93487D01*
X154605Y93368D01*
X154382Y93246D01*
X154160Y93120D01*
X153940Y92991D01*
X153723Y92858D01*
X153508Y92723D01*
X153296Y92585D01*
X153086Y92444D01*
X152878Y92300D01*
X152673Y92153D01*
X152470Y92004D01*
X152270Y91852D01*
X152072Y91697D01*
X151877Y91539D01*
X151685Y91379D01*
X151495Y91216D01*
X151308Y91051D01*
X151123Y90883D01*
X150941Y90713D01*
X150762Y90540D01*
X150585Y90365D01*
X150411Y90188D01*
X150240Y90008D01*
X150071Y89826D01*
X149906Y89641D01*
X149743Y89454D01*
X149583Y89266D01*
X149425Y89074D01*
X149271Y88881D01*
X149119Y88686D01*
X148971Y88489D01*
X148825Y88289D01*
X148682Y88088D01*
X148542Y87884D01*
X148405Y87679D01*
X148271Y87472D01*
X148140Y87262D01*
X148012Y87052D01*
X147887Y86839D01*
X147766Y86624D01*
X147647Y86408D01*
X147531Y86190D01*
X147419Y85970D01*
X147310Y85749D01*
X147203Y85526D01*
X147100Y85302D01*
X147001Y85076D01*
X146904Y84849D01*
X146811Y84620D01*
X146721Y84389D01*
X146634Y84158D01*
X146551Y83925D01*
X146471Y83690D01*
X146394Y83455D01*
X146320Y83218D01*
X146250Y82980D01*
X146184Y82740D01*
X146121Y82500D01*
X146061Y82258D01*
X146005Y82016D01*
X145952Y81772D01*
X145903Y81527D01*
X145857Y81282D01*
X145815Y81035D01*
X145776Y80788D01*
X145741Y80539D01*
X145709Y80290D01*
X145682Y80040D01*
X145657Y79789D01*
X145637Y79538D01*
X145620Y79285D01*
X145607Y79032D01*
X145598Y78779D01*
X145592Y78525D01*
X145590Y78270D01*
X145590Y758190D02*
X145592Y757935D01*
X145598Y757681D01*
X145607Y757428D01*
X145620Y757175D01*
X145637Y756922D01*
X145657Y756671D01*
X145682Y756420D01*
X145709Y756170D01*
X145741Y755921D01*
X145776Y755672D01*
X145815Y755425D01*
X145857Y755178D01*
X145903Y754933D01*
X145952Y754688D01*
X146005Y754444D01*
X146061Y754202D01*
X146121Y753960D01*
X146184Y753720D01*
X146250Y753480D01*
X146320Y753242D01*
X146394Y753005D01*
X146471Y752770D01*
X146551Y752535D01*
X146634Y752302D01*
X146721Y752071D01*
X146811Y751840D01*
X146904Y751611D01*
X147001Y751384D01*
X147100Y751158D01*
X147203Y750934D01*
X147310Y750711D01*
X147419Y750490D01*
X147531Y750270D01*
X147647Y750052D01*
X147766Y749836D01*
X147887Y749621D01*
X148012Y749408D01*
X148140Y749198D01*
X148271Y748988D01*
X148405Y748781D01*
X148542Y748576D01*
X148682Y748372D01*
X148825Y748171D01*
X148971Y747971D01*
X149119Y747774D01*
X149271Y747579D01*
X149425Y747386D01*
X149583Y747194D01*
X149743Y747006D01*
X149906Y746819D01*
X150071Y746634D01*
X150240Y746452D01*
X150411Y746272D01*
X150585Y746095D01*
X150762Y745920D01*
X150941Y745747D01*
X151123Y745577D01*
X151308Y745409D01*
X151495Y745244D01*
X151685Y745081D01*
X151877Y744921D01*
X152072Y744763D01*
X152270Y744609D01*
X152470Y744456D01*
X152673Y744307D01*
X152878Y744160D01*
X153086Y744016D01*
X153296Y743875D01*
X153508Y743737D01*
X153723Y743602D01*
X153940Y743469D01*
X154160Y743340D01*
X154382Y743214D01*
X154605Y743092D01*
X154830Y742973D01*
X155056Y742858D01*
X155283Y742747D01*
X155512Y742639D01*
X155741Y742534D01*
X155972Y742433D01*
X156204Y742336D01*
X156437Y742242D01*
X156670Y742152D01*
X156905Y742065D01*
X157141Y741982D01*
X157378Y741902D01*
X157615Y741826D01*
X157854Y741753D01*
X158093Y741684D01*
X158333Y741619D01*
X158574Y741557D01*
X158815Y741498D01*
X159057Y741443D01*
X159299Y741392D01*
X159542Y741344D01*
X159786Y741300D01*
X160030Y741259D01*
X160274Y741222D01*
X160519Y741188D01*
X160764Y741158D01*
X161010Y741132D01*
X161256Y741109D01*
X161502Y741089D01*
X161748Y741073D01*
X161994Y741061D01*
X162241Y741052D01*
X162487Y741047D01*
X162734Y741045D01*
X162980Y741047D01*
X163227Y741052D01*
X163473Y741061D01*
X163720Y741073D01*
X163966Y741089D01*
X164212Y741109D01*
X164457Y741132D01*
X164703Y741158D01*
X164948Y741188D01*
X165193Y741222D01*
X165437Y741259D01*
X165681Y741300D01*
X165924Y741344D01*
X166167Y741392D01*
X166409Y741443D01*
X166651Y741498D01*
X166892Y741557D01*
X167133Y741619D01*
X167372Y741684D01*
X167611Y741753D01*
X167850Y741826D01*
X168087Y741902D01*
X168323Y741982D01*
X168559Y742065D01*
X168793Y742152D01*
X169027Y742242D01*
X169260Y742336D01*
X169491Y742433D01*
X169722Y742534D01*
X169951Y742639D01*
X170179Y742747D01*
X170406Y742858D01*
X170631Y742973D01*
X170856Y743092D01*
X171078Y743214D01*
X171300Y743340D01*
X171520Y743469D01*
X171738Y743602D01*
X171953Y743737D01*
X172166Y743875D01*
X172376Y744016D01*
X172584Y744160D01*
X172790Y744307D01*
X172993Y744456D01*
X173193Y744609D01*
X173391Y744763D01*
X173587Y744921D01*
X173779Y745081D01*
X173970Y745244D01*
X174157Y745409D01*
X174342Y745577D01*
X174524Y745747D01*
X174704Y745920D01*
X174881Y746095D01*
X175055Y746272D01*
X175226Y746452D01*
X175395Y746634D01*
X175561Y746819D01*
X175724Y747006D01*
X175884Y747194D01*
X176042Y747386D01*
X176197Y747579D01*
X176348Y747774D01*
X176497Y747971D01*
X176643Y748171D01*
X176786Y748372D01*
X176926Y748576D01*
X177063Y748781D01*
X177197Y748988D01*
X177328Y749198D01*
X177456Y749408D01*
X177581Y749621D01*
X177703Y749836D01*
X177822Y750052D01*
X177938Y750270D01*
X178050Y750490D01*
X178160Y750711D01*
X178266Y750934D01*
X178369Y751158D01*
X178469Y751384D01*
X178565Y751611D01*
X178659Y751840D01*
X178749Y752071D01*
X178836Y752302D01*
X178919Y752535D01*
X178999Y752770D01*
X179076Y753005D01*
X179149Y753242D01*
X179219Y753480D01*
X179286Y753720D01*
X179349Y753960D01*
X179409Y754202D01*
X179465Y754444D01*
X179518Y754688D01*
X179567Y754933D01*
X179613Y755178D01*
X179655Y755425D01*
X179694Y755672D01*
X179729Y755921D01*
X179761Y756170D01*
X179788Y756420D01*
X179813Y756671D01*
X179833Y756922D01*
X179850Y757175D01*
X179863Y757428D01*
X179872Y757681D01*
X179878Y757935D01*
X179880Y758190D01*
X179878Y758445D01*
X179872Y758700D01*
X179863Y758954D01*
X179850Y759207D01*
X179833Y759460D01*
X179813Y759711D01*
X179788Y759963D01*
X179761Y760213D01*
X179729Y760463D01*
X179694Y760711D01*
X179655Y760959D01*
X179613Y761206D01*
X179567Y761452D01*
X179518Y761697D01*
X179465Y761941D01*
X179409Y762184D01*
X179349Y762425D01*
X179286Y762666D01*
X179219Y762906D01*
X179149Y763144D01*
X179076Y763381D01*
X178999Y763617D01*
X178919Y763851D01*
X178836Y764084D01*
X178749Y764316D01*
X178659Y764547D01*
X178565Y764776D01*
X178469Y765003D01*
X178369Y765229D01*
X178266Y765454D01*
X178160Y765677D01*
X178050Y765898D01*
X177938Y766117D01*
X177822Y766335D01*
X177703Y766552D01*
X177581Y766766D01*
X177456Y766979D01*
X177328Y767190D01*
X177197Y767399D01*
X177063Y767606D01*
X176926Y767812D01*
X176786Y768015D01*
X176643Y768216D01*
X176497Y768416D01*
X176348Y768613D01*
X176197Y768808D01*
X176042Y769001D01*
X175884Y769192D01*
X175724Y769381D01*
X175561Y769568D01*
X175395Y769752D01*
X175226Y769934D01*
X175055Y770113D01*
X174881Y770291D01*
X174704Y770466D01*
X174524Y770638D01*
X174342Y770808D01*
X174157Y770976D01*
X173970Y771141D01*
X173779Y771303D01*
X173587Y771463D01*
X173391Y771620D01*
X173193Y771775D01*
X172993Y771927D01*
X172790Y772076D01*
X172584Y772222D01*
X172376Y772366D01*
X172166Y772506D01*
X171953Y772644D01*
X171738Y772779D01*
X171520Y772911D01*
X171300Y773040D01*
X171078Y773166D01*
X170856Y773288D01*
X170631Y773407D01*
X170406Y773522D01*
X170179Y773633D01*
X169951Y773741D01*
X169722Y773846D01*
X169491Y773947D01*
X169260Y774044D01*
X169027Y774138D01*
X168793Y774228D01*
X168559Y774315D01*
X168323Y774398D01*
X168087Y774478D01*
X167850Y774554D01*
X167611Y774627D01*
X167372Y774696D01*
X167133Y774761D01*
X166892Y774823D01*
X166651Y774882D01*
X166409Y774937D01*
X166167Y774988D01*
X165924Y775036D01*
X165681Y775080D01*
X165437Y775121D01*
X165193Y775158D01*
X164948Y775192D01*
X164703Y775222D01*
X164457Y775248D01*
X164212Y775271D01*
X163966Y775291D01*
X163720Y775307D01*
X163473Y775319D01*
X163227Y775328D01*
X162980Y775333D01*
X162734Y775335D01*
X162487Y775333D01*
X162241Y775328D01*
X161994Y775319D01*
X161748Y775307D01*
X161502Y775291D01*
X161256Y775271D01*
X161010Y775248D01*
X160764Y775222D01*
X160519Y775192D01*
X160274Y775158D01*
X160030Y775121D01*
X159786Y775080D01*
X159542Y775036D01*
X159299Y774988D01*
X159057Y774937D01*
X158815Y774882D01*
X158574Y774823D01*
X158333Y774761D01*
X158093Y774696D01*
X157854Y774627D01*
X157615Y774554D01*
X157378Y774478D01*
X157141Y774398D01*
X156905Y774315D01*
X156670Y774228D01*
X156437Y774138D01*
X156204Y774044D01*
X155972Y773947D01*
X155741Y773846D01*
X155512Y773741D01*
X155283Y773633D01*
X155056Y773522D01*
X154830Y773407D01*
X154605Y773288D01*
X154382Y773166D01*
X154160Y773040D01*
X153940Y772911D01*
X153723Y772779D01*
X153508Y772644D01*
X153296Y772506D01*
X153086Y772366D01*
X152878Y772222D01*
X152673Y772076D01*
X152470Y771927D01*
X152270Y771775D01*
X152072Y771620D01*
X151877Y771463D01*
X151685Y771303D01*
X151495Y771141D01*
X151308Y770976D01*
X151123Y770808D01*
X150941Y770638D01*
X150762Y770466D01*
X150585Y770291D01*
X150411Y770113D01*
X150240Y769934D01*
X150071Y769752D01*
X149906Y769568D01*
X149743Y769381D01*
X149583Y769192D01*
X149425Y769001D01*
X149271Y768808D01*
X149119Y768613D01*
X148971Y768416D01*
X148825Y768216D01*
X148682Y768015D01*
X148542Y767812D01*
X148405Y767606D01*
X148271Y767399D01*
X148140Y767190D01*
X148012Y766979D01*
X147887Y766766D01*
X147766Y766552D01*
X147647Y766335D01*
X147531Y766117D01*
X147419Y765898D01*
X147310Y765677D01*
X147203Y765454D01*
X147100Y765229D01*
X147001Y765003D01*
X146904Y764776D01*
X146811Y764547D01*
X146721Y764316D01*
X146634Y764084D01*
X146551Y763851D01*
X146471Y763617D01*
X146394Y763381D01*
X146320Y763144D01*
X146250Y762906D01*
X146184Y762666D01*
X146121Y762425D01*
X146061Y762184D01*
X146005Y761941D01*
X145952Y761697D01*
X145903Y761452D01*
X145857Y761206D01*
X145815Y760959D01*
X145776Y760711D01*
X145741Y760463D01*
X145709Y760213D01*
X145682Y759963D01*
X145657Y759711D01*
X145637Y759460D01*
X145620Y759207D01*
X145607Y758954D01*
X145598Y758700D01*
X145592Y758445D01*
X145590Y758190D01*
X505070Y295077D02*
X504993Y294295D01*
X504840Y293524D01*
X504611Y292772D01*
X504311Y292045D01*
X503940Y291352D01*
X503503Y290699D01*
X503005Y290091D01*
X502449Y289535D01*
X501841Y289037D01*
X501188Y288600D01*
X500495Y288229D01*
X499768Y287929D01*
X499016Y287700D01*
X498245Y287547D01*
X497463Y287470D01*
X496677Y287470D01*
X495895Y287547D01*
X495124Y287700D01*
X494372Y287929D01*
X493645Y288229D01*
X492952Y288600D01*
X492299Y289037D01*
X491691Y289535D01*
X491135Y290091D01*
X490637Y290699D01*
X490200Y291352D01*
X489829Y292045D01*
X489529Y292772D01*
X489300Y293524D01*
X489147Y294295D01*
X489070Y295077D01*
X489070Y295863D01*
X489147Y296645D01*
X489300Y297416D01*
X489529Y298168D01*
X489829Y298895D01*
X490200Y299588D01*
X490637Y300241D01*
X491135Y300849D01*
X491691Y301405D01*
X492299Y301903D01*
X492952Y302340D01*
X493645Y302711D01*
X494372Y303011D01*
X495124Y303240D01*
X495895Y303393D01*
X496677Y303470D01*
X497463Y303470D01*
X498245Y303393D01*
X499016Y303240D01*
X499768Y303011D01*
X500495Y302711D01*
X501188Y302340D01*
X501841Y301903D01*
X502449Y301405D01*
X503005Y300849D01*
X503503Y300241D01*
X503940Y299588D01*
X504311Y298895D01*
X504611Y298168D01*
X504840Y297416D01*
X504993Y296645D01*
X505070Y295863D01*
X505070Y295077D01*
X752570Y295161D02*
X752501Y294547D01*
X752363Y293945D01*
X752159Y293362D01*
X751891Y292805D01*
X751563Y292282D01*
X751178Y291799D01*
X750741Y291363D01*
X750258Y290977D01*
X749735Y290649D01*
X749178Y290381D01*
X748595Y290177D01*
X747993Y290039D01*
X747379Y289970D01*
X746761Y289970D01*
X746147Y290039D01*
X745545Y290177D01*
X744962Y290381D01*
X744405Y290649D01*
X743882Y290977D01*
X743399Y291363D01*
X742963Y291799D01*
X742577Y292282D01*
X742249Y292805D01*
X741981Y293362D01*
X741777Y293945D01*
X741639Y294547D01*
X741570Y295161D01*
X741570Y295779D01*
X741639Y296393D01*
X741777Y296995D01*
X741981Y297578D01*
X742249Y298135D01*
X742577Y298658D01*
X742963Y299141D01*
X743399Y299578D01*
X743882Y299963D01*
X744405Y300291D01*
X744962Y300559D01*
X745545Y300763D01*
X746147Y300901D01*
X746761Y300970D01*
X747379Y300970D01*
X747993Y300901D01*
X748595Y300763D01*
X749178Y300559D01*
X749735Y300291D01*
X750258Y299963D01*
X750741Y299578D01*
X751178Y299141D01*
X751563Y298658D01*
X751891Y298135D01*
X752159Y297578D01*
X752363Y296995D01*
X752501Y296393D01*
X752570Y295779D01*
X752570Y295161D01*
X513070Y529934D02*
X512994Y528866D01*
X512841Y527805D01*
X512613Y526758D01*
X512311Y525730D01*
X511937Y524726D01*
X511492Y523751D01*
X510978Y522811D01*
X510399Y521910D01*
X509757Y521052D01*
X509055Y520242D01*
X508298Y519485D01*
X507488Y518783D01*
X506630Y518141D01*
X505729Y517562D01*
X504789Y517048D01*
X503814Y516603D01*
X502810Y516229D01*
X501782Y515927D01*
X500735Y515699D01*
X499674Y515546D01*
X498606Y515470D01*
X497534Y515470D01*
X496466Y515546D01*
X495405Y515699D01*
X494358Y515927D01*
X493330Y516229D01*
X492326Y516603D01*
X491351Y517048D01*
X490411Y517562D01*
X489510Y518141D01*
X488652Y518783D01*
X487842Y519485D01*
X487085Y520242D01*
X486383Y521052D01*
X485741Y521910D01*
X485162Y522811D01*
X484648Y523751D01*
X484203Y524726D01*
X483829Y525730D01*
X483527Y526758D01*
X483299Y527805D01*
X483146Y528866D01*
X483070Y529934D01*
X483070Y531006D01*
X483146Y532074D01*
X483299Y533135D01*
X483527Y534182D01*
X483829Y535210D01*
X484203Y536214D01*
X484648Y537189D01*
X485162Y538129D01*
X485741Y539030D01*
X486383Y539888D01*
X487085Y540698D01*
X487842Y541455D01*
X488652Y542157D01*
X489510Y542799D01*
X490411Y543378D01*
X491351Y543892D01*
X492326Y544337D01*
X493330Y544711D01*
X494358Y545013D01*
X495405Y545241D01*
X496466Y545394D01*
X497534Y545470D01*
X498606Y545470D01*
X499674Y545394D01*
X500735Y545241D01*
X501782Y545013D01*
X502810Y544711D01*
X503814Y544337D01*
X504789Y543892D01*
X505729Y543378D01*
X506630Y542799D01*
X507488Y542157D01*
X508298Y541455D01*
X509055Y540698D01*
X509757Y539888D01*
X510399Y539030D01*
X510978Y538129D01*
X511492Y537189D01*
X511937Y536214D01*
X512311Y535210D01*
X512613Y534182D01*
X512841Y533135D01*
X512994Y532074D01*
X513070Y531006D01*
X513070Y529934D01*
X761070Y528934D02*
X760994Y527866D01*
X760841Y526805D01*
X760613Y525758D01*
X760311Y524730D01*
X759937Y523726D01*
X759492Y522751D01*
X758978Y521811D01*
X758399Y520910D01*
X757757Y520052D01*
X757055Y519242D01*
X756298Y518485D01*
X755488Y517783D01*
X754630Y517141D01*
X753729Y516562D01*
X752789Y516048D01*
X751814Y515603D01*
X750810Y515229D01*
X749782Y514927D01*
X748735Y514699D01*
X747674Y514546D01*
X746606Y514470D01*
X745534Y514470D01*
X744466Y514546D01*
X743405Y514699D01*
X742358Y514927D01*
X741330Y515229D01*
X740326Y515603D01*
X739351Y516048D01*
X738411Y516562D01*
X737510Y517141D01*
X736652Y517783D01*
X735842Y518485D01*
X735085Y519242D01*
X734383Y520052D01*
X733741Y520910D01*
X733162Y521811D01*
X732648Y522751D01*
X732203Y523726D01*
X731829Y524730D01*
X731527Y525758D01*
X731299Y526805D01*
X731146Y527866D01*
X731070Y528934D01*
X731070Y530006D01*
X731146Y531074D01*
X731299Y532135D01*
X731527Y533182D01*
X731829Y534210D01*
X732203Y535214D01*
X732648Y536189D01*
X733162Y537129D01*
X733741Y538030D01*
X734383Y538888D01*
X735085Y539698D01*
X735842Y540455D01*
X736652Y541157D01*
X737510Y541799D01*
X738411Y542378D01*
X739351Y542892D01*
X740326Y543337D01*
X741330Y543711D01*
X742358Y544013D01*
X743405Y544241D01*
X744466Y544394D01*
X745534Y544470D01*
X746606Y544470D01*
X747674Y544394D01*
X748735Y544241D01*
X749782Y544013D01*
X750810Y543711D01*
X751814Y543337D01*
X752789Y542892D01*
X753729Y542378D01*
X754630Y541799D01*
X755488Y541157D01*
X756298Y540455D01*
X757055Y539698D01*
X757757Y538888D01*
X758399Y538030D01*
X758978Y537129D01*
X759492Y536189D01*
X759937Y535214D01*
X760311Y534210D01*
X760613Y533182D01*
X760841Y532135D01*
X760994Y531074D01*
X761070Y530006D01*
X761070Y528934D01*
X393737Y32000D02*
X394407Y31925D01*
X395064Y31775D01*
X395700Y31552D01*
X396307Y31260D01*
X396878Y30901D01*
X397404Y30481D01*
X397881Y30004D01*
X398301Y29478D01*
X398660Y28907D01*
X398952Y28300D01*
X399175Y27664D01*
X399325Y27007D01*
X399400Y26337D01*
X399400Y25663D01*
X399325Y24993D01*
X399175Y24336D01*
X398952Y23700D01*
X398660Y23093D01*
X398301Y22523D01*
X397881Y21996D01*
X397404Y21519D01*
X396878Y21099D01*
X396307Y20740D01*
X395700Y20448D01*
X395064Y20225D01*
X394407Y20075D01*
X393737Y20000D01*
X393063Y20000D01*
X392393Y20075D01*
X391736Y20225D01*
X391100Y20448D01*
X390493Y20740D01*
X389923Y21099D01*
X389396Y21519D01*
X388919Y21996D01*
X388499Y22523D01*
X388140Y23093D01*
X387848Y23700D01*
X387625Y24336D01*
X387475Y24993D01*
X387400Y25663D01*
X387400Y26337D01*
X387475Y27007D01*
X387625Y27664D01*
X387848Y28300D01*
X388140Y28907D01*
X388499Y29478D01*
X388919Y30004D01*
X389396Y30481D01*
X389923Y30901D01*
X390493Y31260D01*
X391100Y31552D01*
X391736Y31775D01*
X392393Y31925D01*
X393063Y32000D01*
X393737Y32000D01*
X393737Y102000D02*
X394407Y101925D01*
X395064Y101775D01*
X395700Y101552D01*
X396307Y101260D01*
X396878Y100901D01*
X397404Y100481D01*
X397881Y100004D01*
X398301Y99478D01*
X398660Y98907D01*
X398952Y98300D01*
X399175Y97664D01*
X399325Y97007D01*
X399400Y96337D01*
X399400Y95663D01*
X399325Y94993D01*
X399175Y94336D01*
X398952Y93700D01*
X398660Y93093D01*
X398301Y92523D01*
X397881Y91996D01*
X397404Y91519D01*
X396878Y91099D01*
X396307Y90740D01*
X395700Y90448D01*
X395064Y90225D01*
X394407Y90075D01*
X393737Y90000D01*
X393063Y90000D01*
X392393Y90075D01*
X391736Y90225D01*
X391100Y90448D01*
X390493Y90740D01*
X389923Y91099D01*
X389396Y91519D01*
X388919Y91996D01*
X388499Y92523D01*
X388140Y93093D01*
X387848Y93700D01*
X387625Y94336D01*
X387475Y94993D01*
X387400Y95663D01*
X387400Y96337D01*
X387475Y97007D01*
X387625Y97664D01*
X387848Y98300D01*
X388140Y98907D01*
X388499Y99478D01*
X388919Y100004D01*
X389396Y100481D01*
X389923Y100901D01*
X390493Y101260D01*
X391100Y101552D01*
X391736Y101775D01*
X392393Y101925D01*
X393063Y102000D01*
X393737Y102000D01*
X500337Y32000D02*
X501007Y31925D01*
X501664Y31775D01*
X502300Y31552D01*
X502907Y31260D01*
X503478Y30901D01*
X504004Y30481D01*
X504481Y30004D01*
X504901Y29478D01*
X505260Y28907D01*
X505552Y28300D01*
X505775Y27664D01*
X505925Y27007D01*
X506000Y26337D01*
X506000Y25663D01*
X505925Y24993D01*
X505775Y24336D01*
X505552Y23700D01*
X505260Y23093D01*
X504901Y22523D01*
X504481Y21996D01*
X504004Y21519D01*
X503478Y21099D01*
X502907Y20740D01*
X502300Y20448D01*
X501664Y20225D01*
X501007Y20075D01*
X500337Y20000D01*
X499663Y20000D01*
X498993Y20075D01*
X498336Y20225D01*
X497700Y20448D01*
X497093Y20740D01*
X496523Y21099D01*
X495996Y21519D01*
X495519Y21996D01*
X495099Y22523D01*
X494740Y23093D01*
X494448Y23700D01*
X494225Y24336D01*
X494075Y24993D01*
X494000Y25663D01*
X494000Y26337D01*
X494075Y27007D01*
X494225Y27664D01*
X494448Y28300D01*
X494740Y28907D01*
X495099Y29478D01*
X495519Y30004D01*
X495996Y30481D01*
X496523Y30901D01*
X497093Y31260D01*
X497700Y31552D01*
X498336Y31775D01*
X498993Y31925D01*
X499663Y32000D01*
X500337Y32000D01*
X500337Y102000D02*
X501007Y101925D01*
X501664Y101775D01*
X502300Y101552D01*
X502907Y101260D01*
X503478Y100901D01*
X504004Y100481D01*
X504481Y100004D01*
X504901Y99478D01*
X505260Y98907D01*
X505552Y98300D01*
X505775Y97664D01*
X505925Y97007D01*
X506000Y96337D01*
X506000Y95663D01*
X505925Y94993D01*
X505775Y94336D01*
X505552Y93700D01*
X505260Y93093D01*
X504901Y92523D01*
X504481Y91996D01*
X504004Y91519D01*
X503478Y91099D01*
X502907Y90740D01*
X502300Y90448D01*
X501664Y90225D01*
X501007Y90075D01*
X500337Y90000D01*
X499663Y90000D01*
X498993Y90075D01*
X498336Y90225D01*
X497700Y90448D01*
X497093Y90740D01*
X496523Y91099D01*
X495996Y91519D01*
X495519Y91996D01*
X495099Y92523D01*
X494740Y93093D01*
X494448Y93700D01*
X494225Y94336D01*
X494075Y94993D01*
X494000Y95663D01*
X494000Y96337D01*
X494075Y97007D01*
X494225Y97664D01*
X494448Y98300D01*
X494740Y98907D01*
X495099Y99478D01*
X495519Y100004D01*
X495996Y100481D01*
X496523Y100901D01*
X497093Y101260D01*
X497700Y101552D01*
X498336Y101775D01*
X498993Y101925D01*
X499663Y102000D01*
X500337Y102000D01*
X619350Y94626D02*
X619282Y93581D01*
X619145Y92542D01*
X618940Y91515D01*
X618669Y90503D01*
X618333Y89511D01*
X617932Y88543D01*
X617468Y87604D01*
X616945Y86696D01*
X616363Y85825D01*
X615725Y84994D01*
X615034Y84207D01*
X614293Y83466D01*
X613506Y82775D01*
X612675Y82138D01*
X611804Y81556D01*
X610896Y81032D01*
X609957Y80568D01*
X608989Y80167D01*
X607997Y79831D01*
X606985Y79560D01*
X605958Y79355D01*
X604919Y79219D01*
X603874Y79150D01*
X602826Y79150D01*
X601781Y79219D01*
X600742Y79355D01*
X599715Y79560D01*
X598703Y79831D01*
X597711Y80167D01*
X596743Y80568D01*
X595804Y81032D01*
X594896Y81556D01*
X594025Y82138D01*
X593194Y82775D01*
X592407Y83466D01*
X591666Y84207D01*
X590975Y84994D01*
X590338Y85825D01*
X589756Y86696D01*
X589232Y87604D01*
X588768Y88543D01*
X588367Y89511D01*
X588031Y90503D01*
X587760Y91515D01*
X587555Y92542D01*
X587419Y93581D01*
X587350Y94626D01*
X587350Y95674D01*
X587419Y96719D01*
X587555Y97758D01*
X587760Y98785D01*
X588031Y99797D01*
X588367Y100789D01*
X588768Y101757D01*
X589232Y102696D01*
X589756Y103604D01*
X590338Y104475D01*
X590975Y105306D01*
X591666Y106093D01*
X592407Y106834D01*
X593194Y107525D01*
X594025Y108163D01*
X594896Y108745D01*
X595804Y109268D01*
X596743Y109732D01*
X597711Y110133D01*
X598703Y110469D01*
X599715Y110740D01*
X600742Y110945D01*
X601781Y111082D01*
X602826Y111150D01*
X603874Y111150D01*
X604919Y111082D01*
X605958Y110945D01*
X606985Y110740D01*
X607997Y110469D01*
X608989Y110133D01*
X609957Y109732D01*
X610896Y109268D01*
X611804Y108745D01*
X612675Y108163D01*
X613506Y107525D01*
X614293Y106834D01*
X615034Y106093D01*
X615725Y105306D01*
X616363Y104475D01*
X616945Y103604D01*
X617468Y102696D01*
X617932Y101757D01*
X618333Y100789D01*
X618669Y99797D01*
X618940Y98785D01*
X619145Y97758D01*
X619282Y96719D01*
X619350Y95674D01*
X619350Y94626D01*
X733650Y94626D02*
X733582Y93581D01*
X733445Y92542D01*
X733240Y91515D01*
X732969Y90503D01*
X732633Y89511D01*
X732232Y88543D01*
X731768Y87604D01*
X731245Y86696D01*
X730663Y85825D01*
X730025Y84994D01*
X729334Y84207D01*
X728593Y83466D01*
X727806Y82775D01*
X726975Y82138D01*
X726104Y81556D01*
X725196Y81032D01*
X724257Y80568D01*
X723289Y80167D01*
X722297Y79831D01*
X721285Y79560D01*
X720258Y79355D01*
X719219Y79219D01*
X718174Y79150D01*
X717126Y79150D01*
X716081Y79219D01*
X715042Y79355D01*
X714015Y79560D01*
X713003Y79831D01*
X712011Y80167D01*
X711043Y80568D01*
X710104Y81032D01*
X709196Y81556D01*
X708325Y82138D01*
X707494Y82775D01*
X706707Y83466D01*
X705966Y84207D01*
X705275Y84994D01*
X704638Y85825D01*
X704056Y86696D01*
X703532Y87604D01*
X703068Y88543D01*
X702667Y89511D01*
X702331Y90503D01*
X702060Y91515D01*
X701855Y92542D01*
X701719Y93581D01*
X701650Y94626D01*
X701650Y95674D01*
X701719Y96719D01*
X701855Y97758D01*
X702060Y98785D01*
X702331Y99797D01*
X702667Y100789D01*
X703068Y101757D01*
X703532Y102696D01*
X704056Y103604D01*
X704638Y104475D01*
X705275Y105306D01*
X705966Y106093D01*
X706707Y106834D01*
X707494Y107525D01*
X708325Y108163D01*
X709196Y108745D01*
X710104Y109268D01*
X711043Y109732D01*
X712011Y110133D01*
X713003Y110469D01*
X714015Y110740D01*
X715042Y110945D01*
X716081Y111082D01*
X717126Y111150D01*
X718174Y111150D01*
X719219Y111082D01*
X720258Y110945D01*
X721285Y110740D01*
X722297Y110469D01*
X723289Y110133D01*
X724257Y109732D01*
X725196Y109268D01*
X726104Y108745D01*
X726975Y108163D01*
X727806Y107525D01*
X728593Y106834D01*
X729334Y106093D01*
X730025Y105306D01*
X730663Y104475D01*
X731245Y103604D01*
X731768Y102696D01*
X732232Y101757D01*
X732633Y100789D01*
X732969Y99797D01*
X733240Y98785D01*
X733445Y97758D01*
X733582Y96719D01*
X733650Y95674D01*
X733650Y94626D01*
X306821Y763450D02*
X306269Y763523D01*
X305731Y763667D01*
X305216Y763880D01*
X304734Y764159D01*
X304292Y764498D01*
X303898Y764892D01*
X303559Y765334D01*
X303280Y765816D01*
X303067Y766331D01*
X302923Y766869D01*
X302850Y767421D01*
X302850Y767979D01*
X302923Y768531D01*
X303067Y769069D01*
X303280Y769584D01*
X303559Y770066D01*
X303898Y770508D01*
X304292Y770902D01*
X304734Y771241D01*
X305216Y771520D01*
X305731Y771733D01*
X306269Y771877D01*
X306821Y771950D01*
X307379Y771950D01*
X307931Y771877D01*
X308469Y771733D01*
X308984Y771520D01*
X309466Y771241D01*
X309908Y770902D01*
X310302Y770508D01*
X310641Y770066D01*
X310920Y769584D01*
X311133Y769069D01*
X311277Y768531D01*
X311350Y767979D01*
X311350Y767421D01*
X311277Y766869D01*
X311133Y766331D01*
X310920Y765816D01*
X310641Y765334D01*
X310302Y764892D01*
X309908Y764498D01*
X309466Y764159D01*
X308984Y763880D01*
X308469Y763667D01*
X307931Y763523D01*
X307379Y763450D01*
X306821Y763450D01*
X268821Y763450D02*
X268269Y763523D01*
X267731Y763667D01*
X267216Y763880D01*
X266734Y764159D01*
X266292Y764498D01*
X265898Y764892D01*
X265559Y765334D01*
X265280Y765816D01*
X265067Y766331D01*
X264923Y766869D01*
X264850Y767421D01*
X264850Y767979D01*
X264923Y768531D01*
X265067Y769069D01*
X265280Y769584D01*
X265559Y770066D01*
X265898Y770508D01*
X266292Y770902D01*
X266734Y771241D01*
X267216Y771520D01*
X267731Y771733D01*
X268269Y771877D01*
X268821Y771950D01*
X269379Y771950D01*
X269931Y771877D01*
X270469Y771733D01*
X270984Y771520D01*
X271466Y771241D01*
X271908Y770902D01*
X272302Y770508D01*
X272641Y770066D01*
X272920Y769584D01*
X273133Y769069D01*
X273277Y768531D01*
X273350Y767979D01*
X273350Y767421D01*
X273277Y766869D01*
X273133Y766331D01*
X272920Y765816D01*
X272641Y765334D01*
X272302Y764892D01*
X271908Y764498D01*
X271466Y764159D01*
X270984Y763880D01*
X270469Y763667D01*
X269931Y763523D01*
X269379Y763450D01*
X268821Y763450D01*
X699900Y778087D02*
X699977Y778473D01*
X700128Y778837D01*
X700347Y779165D01*
X700625Y779444D01*
X700953Y779662D01*
X701317Y779813D01*
X701703Y779890D01*
X702097Y779890D01*
X702483Y779813D01*
X702847Y779662D01*
X703175Y779444D01*
X703454Y779165D01*
X703672Y778837D01*
X703823Y778473D01*
X703900Y778087D01*
X703900Y777693D01*
X703823Y777307D01*
X703672Y776943D01*
X703454Y776615D01*
X703175Y776337D01*
X702847Y776118D01*
X702483Y775967D01*
X702097Y775890D01*
X701703Y775890D01*
X701317Y775967D01*
X700953Y776118D01*
X700625Y776337D01*
X700347Y776615D01*
X700128Y776943D01*
X699977Y777307D01*
X699900Y777693D01*
X699900Y778087D01*
X539900Y778087D02*
X539977Y778473D01*
X540128Y778837D01*
X540347Y779165D01*
X540625Y779444D01*
X540953Y779662D01*
X541317Y779813D01*
X541703Y779890D01*
X542097Y779890D01*
X542483Y779813D01*
X542847Y779662D01*
X543175Y779444D01*
X543454Y779165D01*
X543672Y778837D01*
X543823Y778473D01*
X543900Y778087D01*
X543900Y777693D01*
X543823Y777307D01*
X543672Y776943D01*
X543454Y776615D01*
X543175Y776337D01*
X542847Y776118D01*
X542483Y775967D01*
X542097Y775890D01*
X541703Y775890D01*
X541317Y775967D01*
X540953Y776118D01*
X540625Y776337D01*
X540347Y776615D01*
X540128Y776943D01*
X539977Y777307D01*
X539900Y777693D01*
X539900Y778087D01*
X493776Y200121D02*
X493712Y199554D01*
X493585Y198997D01*
X493397Y198459D01*
X493149Y197945D01*
X492846Y197462D01*
X492490Y197016D01*
X492086Y196612D01*
X491640Y196256D01*
X491157Y195953D01*
X490643Y195705D01*
X490105Y195517D01*
X489548Y195390D01*
X488981Y195326D01*
X488411Y195326D01*
X487844Y195390D01*
X487287Y195517D01*
X486749Y195705D01*
X486235Y195953D01*
X485752Y196256D01*
X485306Y196612D01*
X484902Y197016D01*
X484546Y197462D01*
X484243Y197945D01*
X483995Y198459D01*
X483807Y198997D01*
X483680Y199554D01*
X483616Y200121D01*
X483616Y200691D01*
X483680Y201258D01*
X483807Y201815D01*
X483995Y202353D01*
X484243Y202867D01*
X484546Y203350D01*
X484902Y203796D01*
X485306Y204200D01*
X485752Y204556D01*
X486235Y204859D01*
X486749Y205107D01*
X487287Y205295D01*
X487844Y205422D01*
X488411Y205486D01*
X488981Y205486D01*
X489548Y205422D01*
X490105Y205295D01*
X490643Y205107D01*
X491157Y204859D01*
X491640Y204556D01*
X492086Y204200D01*
X492490Y203796D01*
X492846Y203350D01*
X493149Y202867D01*
X493397Y202353D01*
X493585Y201815D01*
X493712Y201258D01*
X493776Y200691D01*
X493776Y200121D01*
X544576Y210281D02*
X544512Y209714D01*
X544385Y209157D01*
X544197Y208619D01*
X543949Y208105D01*
X543646Y207622D01*
X543290Y207176D01*
X542886Y206772D01*
X542440Y206416D01*
X541957Y206113D01*
X541443Y205865D01*
X540905Y205677D01*
X540348Y205550D01*
X539781Y205486D01*
X539211Y205486D01*
X538644Y205550D01*
X538087Y205677D01*
X537549Y205865D01*
X537035Y206113D01*
X536552Y206416D01*
X536106Y206772D01*
X535702Y207176D01*
X535346Y207622D01*
X535043Y208105D01*
X534795Y208619D01*
X534607Y209157D01*
X534480Y209714D01*
X534416Y210281D01*
X534416Y210851D01*
X534480Y211418D01*
X534607Y211975D01*
X534795Y212513D01*
X535043Y213027D01*
X535346Y213510D01*
X535702Y213956D01*
X536106Y214360D01*
X536552Y214716D01*
X537035Y215019D01*
X537549Y215267D01*
X538087Y215455D01*
X538644Y215582D01*
X539211Y215646D01*
X539781Y215646D01*
X540348Y215582D01*
X540905Y215455D01*
X541443Y215267D01*
X541957Y215019D01*
X542440Y214716D01*
X542886Y214360D01*
X543290Y213956D01*
X543646Y213510D01*
X543949Y213027D01*
X544197Y212513D01*
X544385Y211975D01*
X544512Y211418D01*
X544576Y210851D01*
X544576Y210281D01*
X544576Y189961D02*
X544512Y189394D01*
X544385Y188837D01*
X544197Y188299D01*
X543949Y187785D01*
X543646Y187302D01*
X543290Y186856D01*
X542886Y186452D01*
X542440Y186096D01*
X541957Y185793D01*
X541443Y185545D01*
X540905Y185357D01*
X540348Y185230D01*
X539781Y185166D01*
X539211Y185166D01*
X538644Y185230D01*
X538087Y185357D01*
X537549Y185545D01*
X537035Y185793D01*
X536552Y186096D01*
X536106Y186452D01*
X535702Y186856D01*
X535346Y187302D01*
X535043Y187785D01*
X534795Y188299D01*
X534607Y188837D01*
X534480Y189394D01*
X534416Y189961D01*
X534416Y190531D01*
X534480Y191098D01*
X534607Y191655D01*
X534795Y192193D01*
X535043Y192707D01*
X535346Y193190D01*
X535702Y193636D01*
X536106Y194040D01*
X536552Y194396D01*
X537035Y194699D01*
X537549Y194947D01*
X538087Y195135D01*
X538644Y195262D01*
X539211Y195326D01*
X539781Y195326D01*
X540348Y195262D01*
X540905Y195135D01*
X541443Y194947D01*
X541957Y194699D01*
X542440Y194396D01*
X542886Y194040D01*
X543290Y193636D01*
X543646Y193190D01*
X543949Y192707D01*
X544197Y192193D01*
X544385Y191655D01*
X544512Y191098D01*
X544576Y190531D01*
X544576Y189961D01*
M02*
