G04 EAGLE Gerber RS-274X export*
G75*
%MOMM*%
%FSLAX34Y34*%
%LPD*%
%INSilkscreen Bottom*%
%IPPOS*%
%AMOC8*
5,1,8,0,0,1.08239X$1,22.5*%
G01*
%ADD10C,0.150000*%
%ADD11C,0.500000*%
%ADD12C,0.076200*%
%ADD13C,0.203200*%
%ADD14C,0.304800*%


D10*
X899250Y478450D02*
X901050Y478450D01*
X978550Y478450D02*
X980350Y478450D01*
X988350Y556150D02*
X988350Y591850D01*
X988350Y530650D02*
X988350Y498650D01*
X975550Y604950D02*
X904050Y604950D01*
X891250Y591850D02*
X891250Y556150D01*
X891250Y530650D02*
X891250Y498650D01*
D11*
X958750Y466650D03*
D12*
X900895Y469069D02*
X900895Y461884D01*
X900897Y461794D01*
X900903Y461705D01*
X900913Y461616D01*
X900926Y461528D01*
X900944Y461440D01*
X900965Y461353D01*
X900990Y461267D01*
X901019Y461182D01*
X901051Y461098D01*
X901087Y461016D01*
X901127Y460936D01*
X901170Y460858D01*
X901217Y460781D01*
X901266Y460706D01*
X901319Y460634D01*
X901375Y460564D01*
X901434Y460497D01*
X901496Y460432D01*
X901561Y460370D01*
X901628Y460311D01*
X901698Y460255D01*
X901770Y460202D01*
X901845Y460153D01*
X901922Y460106D01*
X902000Y460063D01*
X902080Y460023D01*
X902162Y459987D01*
X902246Y459955D01*
X902331Y459926D01*
X902417Y459901D01*
X902504Y459880D01*
X902592Y459862D01*
X902680Y459849D01*
X902769Y459839D01*
X902858Y459833D01*
X902948Y459831D01*
X903975Y459831D01*
X896763Y459831D02*
X894197Y459831D01*
X894098Y459833D01*
X893998Y459839D01*
X893899Y459848D01*
X893801Y459862D01*
X893703Y459879D01*
X893605Y459900D01*
X893509Y459925D01*
X893414Y459954D01*
X893319Y459986D01*
X893227Y460022D01*
X893135Y460061D01*
X893045Y460104D01*
X892957Y460150D01*
X892871Y460200D01*
X892787Y460253D01*
X892705Y460309D01*
X892625Y460369D01*
X892548Y460431D01*
X892473Y460497D01*
X892400Y460565D01*
X892331Y460636D01*
X892264Y460710D01*
X892200Y460786D01*
X892139Y460865D01*
X892081Y460946D01*
X892026Y461029D01*
X891975Y461114D01*
X891927Y461201D01*
X891882Y461290D01*
X891841Y461381D01*
X891803Y461473D01*
X891769Y461566D01*
X891739Y461661D01*
X891712Y461757D01*
X891689Y461854D01*
X891670Y461951D01*
X891655Y462050D01*
X891643Y462149D01*
X891635Y462248D01*
X891631Y462347D01*
X891631Y462447D01*
X891635Y462546D01*
X891643Y462645D01*
X891655Y462744D01*
X891670Y462843D01*
X891689Y462940D01*
X891712Y463037D01*
X891739Y463133D01*
X891769Y463228D01*
X891803Y463321D01*
X891841Y463413D01*
X891882Y463504D01*
X891927Y463593D01*
X891975Y463680D01*
X892026Y463765D01*
X892081Y463848D01*
X892139Y463929D01*
X892200Y464008D01*
X892264Y464084D01*
X892331Y464158D01*
X892400Y464229D01*
X892473Y464297D01*
X892548Y464363D01*
X892625Y464425D01*
X892705Y464485D01*
X892787Y464541D01*
X892871Y464594D01*
X892957Y464644D01*
X893045Y464690D01*
X893135Y464733D01*
X893227Y464772D01*
X893319Y464808D01*
X893414Y464840D01*
X893509Y464869D01*
X893605Y464894D01*
X893703Y464915D01*
X893801Y464932D01*
X893899Y464946D01*
X893998Y464955D01*
X894098Y464961D01*
X894197Y464963D01*
X893684Y469069D02*
X896763Y469069D01*
X893684Y469069D02*
X893594Y469067D01*
X893505Y469061D01*
X893416Y469051D01*
X893328Y469038D01*
X893240Y469020D01*
X893153Y468999D01*
X893067Y468974D01*
X892982Y468945D01*
X892898Y468913D01*
X892816Y468877D01*
X892736Y468837D01*
X892658Y468794D01*
X892581Y468747D01*
X892506Y468698D01*
X892434Y468645D01*
X892364Y468589D01*
X892297Y468530D01*
X892232Y468468D01*
X892170Y468403D01*
X892111Y468336D01*
X892055Y468266D01*
X892002Y468194D01*
X891953Y468119D01*
X891906Y468043D01*
X891863Y467964D01*
X891823Y467884D01*
X891787Y467802D01*
X891755Y467718D01*
X891726Y467633D01*
X891701Y467547D01*
X891680Y467460D01*
X891662Y467372D01*
X891649Y467284D01*
X891639Y467195D01*
X891633Y467106D01*
X891631Y467016D01*
X891633Y466926D01*
X891639Y466837D01*
X891649Y466748D01*
X891662Y466660D01*
X891680Y466572D01*
X891701Y466485D01*
X891726Y466399D01*
X891755Y466314D01*
X891787Y466230D01*
X891823Y466148D01*
X891863Y466068D01*
X891906Y465990D01*
X891953Y465913D01*
X892002Y465838D01*
X892055Y465766D01*
X892111Y465696D01*
X892170Y465629D01*
X892232Y465564D01*
X892297Y465502D01*
X892364Y465443D01*
X892434Y465387D01*
X892506Y465334D01*
X892581Y465285D01*
X892658Y465238D01*
X892736Y465195D01*
X892816Y465155D01*
X892898Y465119D01*
X892982Y465087D01*
X893067Y465058D01*
X893153Y465033D01*
X893240Y465012D01*
X893328Y464994D01*
X893416Y464981D01*
X893505Y464971D01*
X893594Y464965D01*
X893684Y464963D01*
X895737Y464963D01*
D13*
X624940Y145490D02*
X607160Y145490D01*
D10*
X971100Y323700D02*
X971100Y341700D01*
X919100Y341700D02*
X919100Y323700D01*
X927100Y306700D02*
X963100Y306700D01*
X963100Y358700D02*
X927100Y358700D01*
D11*
X990850Y351200D03*
D12*
X984719Y366463D02*
X982153Y366463D01*
X982054Y366461D01*
X981954Y366455D01*
X981855Y366446D01*
X981757Y366432D01*
X981659Y366415D01*
X981561Y366394D01*
X981465Y366369D01*
X981370Y366340D01*
X981275Y366308D01*
X981183Y366272D01*
X981091Y366233D01*
X981001Y366190D01*
X980913Y366144D01*
X980827Y366094D01*
X980743Y366041D01*
X980661Y365985D01*
X980581Y365925D01*
X980504Y365863D01*
X980429Y365797D01*
X980356Y365729D01*
X980287Y365658D01*
X980220Y365584D01*
X980156Y365508D01*
X980095Y365429D01*
X980037Y365348D01*
X979982Y365265D01*
X979931Y365180D01*
X979883Y365093D01*
X979838Y365004D01*
X979797Y364913D01*
X979759Y364821D01*
X979725Y364728D01*
X979695Y364633D01*
X979668Y364537D01*
X979645Y364440D01*
X979626Y364343D01*
X979611Y364244D01*
X979599Y364145D01*
X979591Y364046D01*
X979587Y363947D01*
X979587Y363847D01*
X979591Y363748D01*
X979599Y363649D01*
X979611Y363550D01*
X979626Y363451D01*
X979645Y363354D01*
X979668Y363257D01*
X979695Y363161D01*
X979725Y363066D01*
X979759Y362973D01*
X979797Y362881D01*
X979838Y362790D01*
X979883Y362701D01*
X979931Y362614D01*
X979982Y362529D01*
X980037Y362446D01*
X980095Y362365D01*
X980156Y362286D01*
X980220Y362210D01*
X980287Y362136D01*
X980356Y362065D01*
X980429Y361997D01*
X980504Y361931D01*
X980581Y361869D01*
X980661Y361809D01*
X980743Y361753D01*
X980827Y361700D01*
X980913Y361650D01*
X981001Y361604D01*
X981091Y361561D01*
X981183Y361522D01*
X981275Y361486D01*
X981370Y361454D01*
X981465Y361425D01*
X981561Y361400D01*
X981659Y361379D01*
X981757Y361362D01*
X981855Y361348D01*
X981954Y361339D01*
X982054Y361333D01*
X982153Y361331D01*
X984719Y361331D01*
X984719Y370569D01*
X982153Y370569D01*
X982063Y370567D01*
X981974Y370561D01*
X981885Y370551D01*
X981797Y370538D01*
X981709Y370520D01*
X981622Y370499D01*
X981536Y370474D01*
X981451Y370445D01*
X981367Y370413D01*
X981285Y370377D01*
X981205Y370337D01*
X981127Y370294D01*
X981050Y370247D01*
X980975Y370198D01*
X980903Y370145D01*
X980833Y370089D01*
X980766Y370030D01*
X980701Y369968D01*
X980639Y369903D01*
X980580Y369836D01*
X980524Y369766D01*
X980471Y369694D01*
X980422Y369619D01*
X980375Y369543D01*
X980332Y369464D01*
X980292Y369384D01*
X980256Y369302D01*
X980224Y369218D01*
X980195Y369133D01*
X980170Y369047D01*
X980149Y368960D01*
X980131Y368872D01*
X980118Y368784D01*
X980108Y368695D01*
X980102Y368606D01*
X980100Y368516D01*
X980102Y368426D01*
X980108Y368337D01*
X980118Y368248D01*
X980131Y368160D01*
X980149Y368072D01*
X980170Y367985D01*
X980195Y367899D01*
X980224Y367814D01*
X980256Y367730D01*
X980292Y367648D01*
X980332Y367568D01*
X980375Y367490D01*
X980422Y367413D01*
X980471Y367338D01*
X980524Y367266D01*
X980580Y367196D01*
X980639Y367129D01*
X980701Y367064D01*
X980766Y367002D01*
X980833Y366943D01*
X980903Y366887D01*
X980975Y366834D01*
X981050Y366785D01*
X981127Y366738D01*
X981205Y366695D01*
X981285Y366655D01*
X981367Y366619D01*
X981451Y366587D01*
X981536Y366558D01*
X981622Y366533D01*
X981709Y366512D01*
X981797Y366494D01*
X981885Y366481D01*
X981974Y366471D01*
X982063Y366465D01*
X982153Y366463D01*
X976149Y368003D02*
X976149Y363897D01*
X976149Y368003D02*
X976147Y368102D01*
X976141Y368202D01*
X976132Y368301D01*
X976118Y368399D01*
X976101Y368497D01*
X976080Y368595D01*
X976055Y368691D01*
X976026Y368786D01*
X975994Y368881D01*
X975958Y368973D01*
X975919Y369065D01*
X975876Y369155D01*
X975830Y369243D01*
X975780Y369329D01*
X975727Y369413D01*
X975671Y369495D01*
X975611Y369575D01*
X975549Y369652D01*
X975483Y369727D01*
X975415Y369800D01*
X975344Y369869D01*
X975270Y369936D01*
X975194Y370000D01*
X975115Y370061D01*
X975034Y370119D01*
X974951Y370174D01*
X974866Y370225D01*
X974779Y370273D01*
X974690Y370318D01*
X974599Y370359D01*
X974507Y370397D01*
X974414Y370431D01*
X974319Y370461D01*
X974223Y370488D01*
X974126Y370511D01*
X974029Y370530D01*
X973930Y370545D01*
X973831Y370557D01*
X973732Y370565D01*
X973633Y370569D01*
X973533Y370569D01*
X973434Y370565D01*
X973335Y370557D01*
X973236Y370545D01*
X973137Y370530D01*
X973040Y370511D01*
X972943Y370488D01*
X972847Y370461D01*
X972752Y370431D01*
X972659Y370397D01*
X972567Y370359D01*
X972476Y370318D01*
X972387Y370273D01*
X972300Y370225D01*
X972215Y370174D01*
X972132Y370119D01*
X972051Y370061D01*
X971972Y370000D01*
X971896Y369936D01*
X971822Y369869D01*
X971751Y369800D01*
X971683Y369727D01*
X971617Y369652D01*
X971555Y369575D01*
X971495Y369495D01*
X971439Y369413D01*
X971386Y369329D01*
X971336Y369243D01*
X971290Y369155D01*
X971247Y369065D01*
X971208Y368973D01*
X971172Y368881D01*
X971140Y368786D01*
X971111Y368691D01*
X971086Y368595D01*
X971065Y368497D01*
X971048Y368399D01*
X971034Y368301D01*
X971025Y368202D01*
X971019Y368102D01*
X971017Y368003D01*
X971017Y363897D01*
X971019Y363798D01*
X971025Y363698D01*
X971034Y363599D01*
X971048Y363501D01*
X971065Y363403D01*
X971086Y363305D01*
X971111Y363209D01*
X971140Y363114D01*
X971172Y363019D01*
X971208Y362927D01*
X971247Y362835D01*
X971290Y362745D01*
X971336Y362657D01*
X971386Y362571D01*
X971439Y362487D01*
X971495Y362405D01*
X971555Y362325D01*
X971617Y362248D01*
X971683Y362173D01*
X971751Y362100D01*
X971822Y362031D01*
X971896Y361964D01*
X971972Y361900D01*
X972051Y361839D01*
X972132Y361781D01*
X972215Y361726D01*
X972300Y361675D01*
X972387Y361627D01*
X972476Y361582D01*
X972567Y361541D01*
X972659Y361503D01*
X972752Y361469D01*
X972847Y361439D01*
X972943Y361412D01*
X973040Y361389D01*
X973137Y361370D01*
X973236Y361355D01*
X973335Y361343D01*
X973434Y361335D01*
X973533Y361331D01*
X973633Y361331D01*
X973732Y361335D01*
X973831Y361343D01*
X973930Y361355D01*
X974029Y361370D01*
X974126Y361389D01*
X974223Y361412D01*
X974319Y361439D01*
X974414Y361469D01*
X974507Y361503D01*
X974599Y361541D01*
X974690Y361582D01*
X974779Y361627D01*
X974866Y361675D01*
X974951Y361726D01*
X975034Y361781D01*
X975115Y361839D01*
X975194Y361900D01*
X975270Y361964D01*
X975344Y362031D01*
X975415Y362100D01*
X975483Y362173D01*
X975549Y362248D01*
X975611Y362325D01*
X975671Y362405D01*
X975727Y362487D01*
X975780Y362571D01*
X975830Y362657D01*
X975876Y362745D01*
X975919Y362835D01*
X975958Y362927D01*
X975994Y363019D01*
X976026Y363114D01*
X976055Y363209D01*
X976080Y363305D01*
X976101Y363403D01*
X976118Y363501D01*
X976132Y363599D01*
X976141Y363698D01*
X976147Y363798D01*
X976149Y363897D01*
X967149Y363897D02*
X967149Y368003D01*
X967147Y368102D01*
X967141Y368202D01*
X967132Y368301D01*
X967118Y368399D01*
X967101Y368497D01*
X967080Y368595D01*
X967055Y368691D01*
X967026Y368786D01*
X966994Y368881D01*
X966958Y368973D01*
X966919Y369065D01*
X966876Y369155D01*
X966830Y369243D01*
X966780Y369329D01*
X966727Y369413D01*
X966671Y369495D01*
X966611Y369575D01*
X966549Y369652D01*
X966483Y369727D01*
X966415Y369800D01*
X966344Y369869D01*
X966270Y369936D01*
X966194Y370000D01*
X966115Y370061D01*
X966034Y370119D01*
X965951Y370174D01*
X965866Y370225D01*
X965779Y370273D01*
X965690Y370318D01*
X965599Y370359D01*
X965507Y370397D01*
X965414Y370431D01*
X965319Y370461D01*
X965223Y370488D01*
X965126Y370511D01*
X965029Y370530D01*
X964930Y370545D01*
X964831Y370557D01*
X964732Y370565D01*
X964633Y370569D01*
X964533Y370569D01*
X964434Y370565D01*
X964335Y370557D01*
X964236Y370545D01*
X964137Y370530D01*
X964040Y370511D01*
X963943Y370488D01*
X963847Y370461D01*
X963752Y370431D01*
X963659Y370397D01*
X963567Y370359D01*
X963476Y370318D01*
X963387Y370273D01*
X963300Y370225D01*
X963215Y370174D01*
X963132Y370119D01*
X963051Y370061D01*
X962972Y370000D01*
X962896Y369936D01*
X962822Y369869D01*
X962751Y369800D01*
X962683Y369727D01*
X962617Y369652D01*
X962555Y369575D01*
X962495Y369495D01*
X962439Y369413D01*
X962386Y369329D01*
X962336Y369243D01*
X962290Y369155D01*
X962247Y369065D01*
X962208Y368973D01*
X962172Y368881D01*
X962140Y368786D01*
X962111Y368691D01*
X962086Y368595D01*
X962065Y368497D01*
X962048Y368399D01*
X962034Y368301D01*
X962025Y368202D01*
X962019Y368102D01*
X962017Y368003D01*
X962017Y363897D01*
X962019Y363798D01*
X962025Y363698D01*
X962034Y363599D01*
X962048Y363501D01*
X962065Y363403D01*
X962086Y363305D01*
X962111Y363209D01*
X962140Y363114D01*
X962172Y363019D01*
X962208Y362927D01*
X962247Y362835D01*
X962290Y362745D01*
X962336Y362657D01*
X962386Y362571D01*
X962439Y362487D01*
X962495Y362405D01*
X962555Y362325D01*
X962617Y362248D01*
X962683Y362173D01*
X962751Y362100D01*
X962822Y362031D01*
X962896Y361964D01*
X962972Y361900D01*
X963051Y361839D01*
X963132Y361781D01*
X963215Y361726D01*
X963300Y361675D01*
X963387Y361627D01*
X963476Y361582D01*
X963567Y361541D01*
X963659Y361503D01*
X963752Y361469D01*
X963847Y361439D01*
X963943Y361412D01*
X964040Y361389D01*
X964137Y361370D01*
X964236Y361355D01*
X964335Y361343D01*
X964434Y361335D01*
X964533Y361331D01*
X964633Y361331D01*
X964732Y361335D01*
X964831Y361343D01*
X964930Y361355D01*
X965029Y361370D01*
X965126Y361389D01*
X965223Y361412D01*
X965319Y361439D01*
X965414Y361469D01*
X965507Y361503D01*
X965599Y361541D01*
X965690Y361582D01*
X965779Y361627D01*
X965866Y361675D01*
X965951Y361726D01*
X966034Y361781D01*
X966115Y361839D01*
X966194Y361900D01*
X966270Y361964D01*
X966344Y362031D01*
X966415Y362100D01*
X966483Y362173D01*
X966549Y362248D01*
X966611Y362325D01*
X966671Y362405D01*
X966727Y362487D01*
X966780Y362571D01*
X966830Y362657D01*
X966876Y362745D01*
X966919Y362835D01*
X966958Y362927D01*
X966994Y363019D01*
X967026Y363114D01*
X967055Y363209D01*
X967080Y363305D01*
X967101Y363403D01*
X967118Y363501D01*
X967132Y363599D01*
X967141Y363698D01*
X967147Y363798D01*
X967149Y363897D01*
X956183Y361331D02*
X956183Y370569D01*
X958749Y370569D02*
X953617Y370569D01*
X950032Y370569D02*
X950032Y361331D01*
X945926Y361331D01*
X942549Y363897D02*
X942549Y368003D01*
X942547Y368102D01*
X942541Y368202D01*
X942532Y368301D01*
X942518Y368399D01*
X942501Y368497D01*
X942480Y368595D01*
X942455Y368691D01*
X942426Y368786D01*
X942394Y368881D01*
X942358Y368973D01*
X942319Y369065D01*
X942276Y369155D01*
X942230Y369243D01*
X942180Y369329D01*
X942127Y369413D01*
X942071Y369495D01*
X942011Y369575D01*
X941949Y369652D01*
X941883Y369727D01*
X941815Y369800D01*
X941744Y369869D01*
X941670Y369936D01*
X941594Y370000D01*
X941515Y370061D01*
X941434Y370119D01*
X941351Y370174D01*
X941266Y370225D01*
X941179Y370273D01*
X941090Y370318D01*
X940999Y370359D01*
X940907Y370397D01*
X940814Y370431D01*
X940719Y370461D01*
X940623Y370488D01*
X940526Y370511D01*
X940429Y370530D01*
X940330Y370545D01*
X940231Y370557D01*
X940132Y370565D01*
X940033Y370569D01*
X939933Y370569D01*
X939834Y370565D01*
X939735Y370557D01*
X939636Y370545D01*
X939537Y370530D01*
X939440Y370511D01*
X939343Y370488D01*
X939247Y370461D01*
X939152Y370431D01*
X939059Y370397D01*
X938967Y370359D01*
X938876Y370318D01*
X938787Y370273D01*
X938700Y370225D01*
X938615Y370174D01*
X938532Y370119D01*
X938451Y370061D01*
X938372Y370000D01*
X938296Y369936D01*
X938222Y369869D01*
X938151Y369800D01*
X938083Y369727D01*
X938017Y369652D01*
X937955Y369575D01*
X937895Y369495D01*
X937839Y369413D01*
X937786Y369329D01*
X937736Y369243D01*
X937690Y369155D01*
X937647Y369065D01*
X937608Y368973D01*
X937572Y368881D01*
X937540Y368786D01*
X937511Y368691D01*
X937486Y368595D01*
X937465Y368497D01*
X937448Y368399D01*
X937434Y368301D01*
X937425Y368202D01*
X937419Y368102D01*
X937417Y368003D01*
X937417Y363897D01*
X937419Y363798D01*
X937425Y363698D01*
X937434Y363599D01*
X937448Y363501D01*
X937465Y363403D01*
X937486Y363305D01*
X937511Y363209D01*
X937540Y363114D01*
X937572Y363019D01*
X937608Y362927D01*
X937647Y362835D01*
X937690Y362745D01*
X937736Y362657D01*
X937786Y362571D01*
X937839Y362487D01*
X937895Y362405D01*
X937955Y362325D01*
X938017Y362248D01*
X938083Y362173D01*
X938151Y362100D01*
X938222Y362031D01*
X938296Y361964D01*
X938372Y361900D01*
X938451Y361839D01*
X938532Y361781D01*
X938615Y361726D01*
X938700Y361675D01*
X938787Y361627D01*
X938876Y361582D01*
X938967Y361541D01*
X939059Y361503D01*
X939152Y361469D01*
X939247Y361439D01*
X939343Y361412D01*
X939440Y361389D01*
X939537Y361370D01*
X939636Y361355D01*
X939735Y361343D01*
X939834Y361335D01*
X939933Y361331D01*
X940033Y361331D01*
X940132Y361335D01*
X940231Y361343D01*
X940330Y361355D01*
X940429Y361370D01*
X940526Y361389D01*
X940623Y361412D01*
X940719Y361439D01*
X940814Y361469D01*
X940907Y361503D01*
X940999Y361541D01*
X941090Y361582D01*
X941179Y361627D01*
X941266Y361675D01*
X941351Y361726D01*
X941434Y361781D01*
X941515Y361839D01*
X941594Y361900D01*
X941670Y361964D01*
X941744Y362031D01*
X941815Y362100D01*
X941883Y362173D01*
X941949Y362248D01*
X942011Y362325D01*
X942071Y362405D01*
X942127Y362487D01*
X942180Y362571D01*
X942230Y362657D01*
X942276Y362745D01*
X942319Y362835D01*
X942358Y362927D01*
X942394Y363019D01*
X942426Y363114D01*
X942455Y363209D01*
X942480Y363305D01*
X942501Y363403D01*
X942518Y363501D01*
X942532Y363599D01*
X942541Y363698D01*
X942547Y363798D01*
X942549Y363897D01*
X934063Y361331D02*
X930983Y370569D01*
X927904Y361331D01*
X928674Y363641D02*
X933293Y363641D01*
X924249Y361331D02*
X924249Y370569D01*
X921683Y370569D01*
X921585Y370567D01*
X921487Y370561D01*
X921389Y370552D01*
X921291Y370539D01*
X921194Y370522D01*
X921098Y370502D01*
X921003Y370477D01*
X920909Y370449D01*
X920816Y370418D01*
X920724Y370383D01*
X920633Y370344D01*
X920544Y370303D01*
X920457Y370257D01*
X920372Y370209D01*
X920288Y370157D01*
X920207Y370102D01*
X920127Y370044D01*
X920050Y369983D01*
X919976Y369919D01*
X919904Y369852D01*
X919834Y369782D01*
X919767Y369710D01*
X919703Y369636D01*
X919642Y369559D01*
X919584Y369479D01*
X919529Y369398D01*
X919477Y369314D01*
X919429Y369229D01*
X919383Y369142D01*
X919342Y369053D01*
X919303Y368962D01*
X919268Y368870D01*
X919237Y368777D01*
X919209Y368683D01*
X919184Y368588D01*
X919164Y368492D01*
X919147Y368395D01*
X919134Y368297D01*
X919125Y368199D01*
X919119Y368101D01*
X919117Y368003D01*
X919117Y363897D01*
X919119Y363799D01*
X919125Y363701D01*
X919134Y363603D01*
X919147Y363505D01*
X919164Y363408D01*
X919184Y363312D01*
X919209Y363217D01*
X919237Y363123D01*
X919268Y363030D01*
X919303Y362938D01*
X919342Y362847D01*
X919383Y362758D01*
X919429Y362671D01*
X919477Y362586D01*
X919529Y362502D01*
X919584Y362421D01*
X919642Y362341D01*
X919703Y362264D01*
X919767Y362190D01*
X919834Y362118D01*
X919904Y362048D01*
X919976Y361981D01*
X920050Y361917D01*
X920127Y361856D01*
X920207Y361798D01*
X920288Y361743D01*
X920372Y361691D01*
X920457Y361643D01*
X920544Y361597D01*
X920633Y361556D01*
X920724Y361517D01*
X920816Y361482D01*
X920909Y361451D01*
X921003Y361423D01*
X921098Y361398D01*
X921194Y361378D01*
X921291Y361361D01*
X921389Y361348D01*
X921487Y361339D01*
X921585Y361333D01*
X921683Y361331D01*
X924249Y361331D01*
X914632Y361331D02*
X910526Y361331D01*
X914632Y361331D02*
X914632Y370569D01*
X910526Y370569D01*
X911553Y366463D02*
X914632Y366463D01*
X906793Y370569D02*
X906793Y361331D01*
X906793Y370569D02*
X904227Y370569D01*
X904128Y370567D01*
X904028Y370561D01*
X903929Y370552D01*
X903831Y370538D01*
X903733Y370521D01*
X903635Y370500D01*
X903539Y370475D01*
X903444Y370446D01*
X903349Y370414D01*
X903257Y370378D01*
X903165Y370339D01*
X903075Y370296D01*
X902987Y370250D01*
X902901Y370200D01*
X902817Y370147D01*
X902735Y370091D01*
X902655Y370031D01*
X902578Y369969D01*
X902503Y369903D01*
X902430Y369835D01*
X902361Y369764D01*
X902294Y369690D01*
X902230Y369614D01*
X902169Y369535D01*
X902111Y369454D01*
X902056Y369371D01*
X902005Y369286D01*
X901957Y369199D01*
X901912Y369110D01*
X901871Y369019D01*
X901833Y368927D01*
X901799Y368834D01*
X901769Y368739D01*
X901742Y368643D01*
X901719Y368546D01*
X901700Y368449D01*
X901685Y368350D01*
X901673Y368251D01*
X901665Y368152D01*
X901661Y368053D01*
X901661Y367953D01*
X901665Y367854D01*
X901673Y367755D01*
X901685Y367656D01*
X901700Y367557D01*
X901719Y367460D01*
X901742Y367363D01*
X901769Y367267D01*
X901799Y367172D01*
X901833Y367079D01*
X901871Y366987D01*
X901912Y366896D01*
X901957Y366807D01*
X902005Y366720D01*
X902056Y366635D01*
X902111Y366552D01*
X902169Y366471D01*
X902230Y366392D01*
X902294Y366316D01*
X902361Y366242D01*
X902430Y366171D01*
X902503Y366103D01*
X902578Y366037D01*
X902655Y365975D01*
X902735Y365915D01*
X902817Y365859D01*
X902901Y365806D01*
X902987Y365756D01*
X903075Y365710D01*
X903165Y365667D01*
X903257Y365628D01*
X903349Y365592D01*
X903444Y365560D01*
X903539Y365531D01*
X903635Y365506D01*
X903733Y365485D01*
X903831Y365468D01*
X903929Y365454D01*
X904028Y365445D01*
X904128Y365439D01*
X904227Y365437D01*
X906793Y365437D01*
X903714Y365437D02*
X901661Y361331D01*
D14*
X567180Y701890D02*
X557020Y701890D01*
D12*
X569449Y682893D02*
X569449Y679591D01*
X569449Y682893D02*
X568532Y682893D01*
X568473Y682891D01*
X568415Y682885D01*
X568357Y682876D01*
X568299Y682863D01*
X568243Y682846D01*
X568188Y682826D01*
X568134Y682802D01*
X568082Y682775D01*
X568032Y682745D01*
X567984Y682711D01*
X567938Y682674D01*
X567894Y682635D01*
X567853Y682592D01*
X567815Y682548D01*
X567780Y682501D01*
X567748Y682451D01*
X567719Y682400D01*
X567693Y682347D01*
X567671Y682293D01*
X567653Y682237D01*
X567638Y682180D01*
X567627Y682122D01*
X567619Y682064D01*
X567615Y682005D01*
X567615Y681947D01*
X567619Y681888D01*
X567627Y681830D01*
X567638Y681772D01*
X567653Y681715D01*
X567671Y681659D01*
X567693Y681605D01*
X567719Y681552D01*
X567748Y681501D01*
X567780Y681451D01*
X567815Y681404D01*
X567853Y681360D01*
X567894Y681317D01*
X567938Y681278D01*
X567984Y681241D01*
X568032Y681207D01*
X568082Y681177D01*
X568134Y681150D01*
X568188Y681126D01*
X568243Y681106D01*
X568299Y681089D01*
X568357Y681076D01*
X568415Y681067D01*
X568473Y681061D01*
X568532Y681059D01*
X569449Y681059D01*
X568348Y681059D02*
X567615Y679591D01*
X565831Y682159D02*
X564914Y682893D01*
X564914Y679591D01*
X565831Y679591D02*
X563996Y679591D01*
X562173Y682159D02*
X561256Y682893D01*
X561256Y679591D01*
X562173Y679591D02*
X560339Y679591D01*
D14*
X717920Y701890D02*
X728080Y701890D01*
D12*
X724935Y678527D02*
X724201Y678527D01*
X724935Y678527D02*
X724987Y678529D01*
X725039Y678534D01*
X725091Y678544D01*
X725142Y678557D01*
X725192Y678573D01*
X725240Y678593D01*
X725287Y678617D01*
X725332Y678644D01*
X725375Y678673D01*
X725416Y678706D01*
X725454Y678742D01*
X725490Y678780D01*
X725523Y678821D01*
X725552Y678864D01*
X725579Y678909D01*
X725603Y678956D01*
X725623Y679004D01*
X725639Y679054D01*
X725652Y679105D01*
X725662Y679157D01*
X725667Y679209D01*
X725669Y679261D01*
X725669Y681095D01*
X725667Y681147D01*
X725662Y681199D01*
X725652Y681251D01*
X725639Y681302D01*
X725623Y681352D01*
X725603Y681400D01*
X725579Y681447D01*
X725552Y681492D01*
X725523Y681535D01*
X725490Y681576D01*
X725454Y681614D01*
X725416Y681650D01*
X725375Y681683D01*
X725332Y681712D01*
X725287Y681739D01*
X725240Y681763D01*
X725192Y681783D01*
X725142Y681799D01*
X725091Y681812D01*
X725039Y681822D01*
X724987Y681827D01*
X724935Y681829D01*
X724201Y681829D01*
X721594Y681830D02*
X721538Y681828D01*
X721482Y681822D01*
X721426Y681813D01*
X721371Y681799D01*
X721317Y681782D01*
X721265Y681762D01*
X721214Y681737D01*
X721165Y681710D01*
X721118Y681679D01*
X721073Y681645D01*
X721030Y681608D01*
X720990Y681568D01*
X720953Y681525D01*
X720919Y681480D01*
X720888Y681433D01*
X720861Y681384D01*
X720836Y681333D01*
X720816Y681281D01*
X720799Y681227D01*
X720785Y681172D01*
X720776Y681116D01*
X720770Y681060D01*
X720768Y681004D01*
X721594Y681829D02*
X721658Y681827D01*
X721721Y681821D01*
X721784Y681812D01*
X721846Y681799D01*
X721907Y681782D01*
X721967Y681761D01*
X722026Y681737D01*
X722083Y681710D01*
X722139Y681679D01*
X722192Y681644D01*
X722243Y681607D01*
X722293Y681567D01*
X722339Y681523D01*
X722383Y681477D01*
X722424Y681429D01*
X722462Y681378D01*
X722497Y681325D01*
X722529Y681270D01*
X722557Y681213D01*
X722582Y681155D01*
X722603Y681095D01*
X721043Y680362D02*
X721005Y680401D01*
X720968Y680443D01*
X720935Y680487D01*
X720904Y680532D01*
X720876Y680580D01*
X720851Y680629D01*
X720829Y680680D01*
X720811Y680732D01*
X720795Y680785D01*
X720783Y680839D01*
X720775Y680894D01*
X720770Y680949D01*
X720768Y681004D01*
X721044Y680361D02*
X722603Y678527D01*
X720769Y678527D01*
X718945Y680178D02*
X718943Y680281D01*
X718937Y680384D01*
X718928Y680486D01*
X718914Y680588D01*
X718897Y680689D01*
X718875Y680790D01*
X718850Y680890D01*
X718822Y680988D01*
X718789Y681086D01*
X718753Y681182D01*
X718713Y681277D01*
X718670Y681370D01*
X718653Y681416D01*
X718631Y681461D01*
X718607Y681504D01*
X718580Y681546D01*
X718549Y681585D01*
X718516Y681622D01*
X718481Y681656D01*
X718443Y681688D01*
X718402Y681717D01*
X718360Y681742D01*
X718316Y681765D01*
X718270Y681784D01*
X718223Y681800D01*
X718175Y681813D01*
X718127Y681822D01*
X718078Y681827D01*
X718028Y681829D01*
X717978Y681827D01*
X717929Y681822D01*
X717881Y681813D01*
X717833Y681800D01*
X717786Y681784D01*
X717740Y681765D01*
X717696Y681742D01*
X717654Y681717D01*
X717613Y681688D01*
X717575Y681656D01*
X717540Y681622D01*
X717507Y681585D01*
X717476Y681546D01*
X717449Y681504D01*
X717425Y681461D01*
X717403Y681416D01*
X717386Y681370D01*
X717343Y681277D01*
X717303Y681182D01*
X717267Y681086D01*
X717234Y680988D01*
X717206Y680890D01*
X717181Y680790D01*
X717159Y680689D01*
X717142Y680588D01*
X717128Y680486D01*
X717119Y680384D01*
X717113Y680281D01*
X717111Y680178D01*
X718945Y680178D02*
X718943Y680075D01*
X718937Y679973D01*
X718928Y679870D01*
X718914Y679768D01*
X718897Y679667D01*
X718875Y679566D01*
X718850Y679466D01*
X718822Y679368D01*
X718789Y679270D01*
X718753Y679174D01*
X718713Y679079D01*
X718670Y678986D01*
X718653Y678940D01*
X718631Y678895D01*
X718607Y678852D01*
X718580Y678810D01*
X718549Y678771D01*
X718516Y678734D01*
X718481Y678700D01*
X718443Y678668D01*
X718402Y678639D01*
X718360Y678614D01*
X718316Y678591D01*
X718270Y678572D01*
X718223Y678556D01*
X718175Y678543D01*
X718127Y678534D01*
X718078Y678529D01*
X718028Y678527D01*
X717386Y678986D02*
X717343Y679079D01*
X717303Y679174D01*
X717267Y679270D01*
X717234Y679368D01*
X717206Y679466D01*
X717181Y679566D01*
X717159Y679667D01*
X717142Y679768D01*
X717128Y679870D01*
X717119Y679972D01*
X717113Y680075D01*
X717111Y680178D01*
X717386Y678986D02*
X717403Y678940D01*
X717425Y678895D01*
X717449Y678852D01*
X717476Y678810D01*
X717507Y678771D01*
X717540Y678734D01*
X717575Y678700D01*
X717613Y678668D01*
X717654Y678639D01*
X717696Y678614D01*
X717740Y678591D01*
X717786Y678572D01*
X717833Y678556D01*
X717881Y678543D01*
X717929Y678534D01*
X717978Y678529D01*
X718028Y678527D01*
X718762Y679261D02*
X717294Y681095D01*
D14*
X700180Y701890D02*
X690020Y701890D01*
D12*
X697521Y680451D02*
X698255Y680451D01*
X698307Y680453D01*
X698359Y680458D01*
X698411Y680468D01*
X698462Y680481D01*
X698512Y680497D01*
X698560Y680517D01*
X698607Y680541D01*
X698652Y680568D01*
X698695Y680597D01*
X698736Y680630D01*
X698774Y680666D01*
X698810Y680704D01*
X698843Y680745D01*
X698872Y680788D01*
X698899Y680833D01*
X698923Y680880D01*
X698943Y680928D01*
X698959Y680978D01*
X698972Y681029D01*
X698982Y681081D01*
X698987Y681133D01*
X698989Y681185D01*
X698989Y683019D01*
X698987Y683071D01*
X698982Y683123D01*
X698972Y683175D01*
X698959Y683226D01*
X698943Y683276D01*
X698923Y683324D01*
X698899Y683371D01*
X698872Y683416D01*
X698843Y683459D01*
X698810Y683500D01*
X698774Y683538D01*
X698736Y683574D01*
X698695Y683607D01*
X698652Y683636D01*
X698607Y683663D01*
X698560Y683687D01*
X698512Y683707D01*
X698462Y683723D01*
X698411Y683736D01*
X698359Y683746D01*
X698307Y683751D01*
X698255Y683753D01*
X697521Y683753D01*
X694914Y683754D02*
X694858Y683752D01*
X694802Y683746D01*
X694746Y683737D01*
X694691Y683723D01*
X694637Y683706D01*
X694585Y683686D01*
X694534Y683661D01*
X694485Y683634D01*
X694438Y683603D01*
X694393Y683569D01*
X694350Y683532D01*
X694310Y683492D01*
X694273Y683449D01*
X694239Y683404D01*
X694208Y683357D01*
X694181Y683308D01*
X694156Y683257D01*
X694136Y683205D01*
X694119Y683151D01*
X694105Y683096D01*
X694096Y683040D01*
X694090Y682984D01*
X694088Y682928D01*
X694914Y683753D02*
X694978Y683751D01*
X695041Y683745D01*
X695104Y683736D01*
X695166Y683723D01*
X695227Y683706D01*
X695287Y683685D01*
X695346Y683661D01*
X695403Y683634D01*
X695459Y683603D01*
X695512Y683568D01*
X695563Y683531D01*
X695613Y683491D01*
X695659Y683447D01*
X695703Y683401D01*
X695744Y683353D01*
X695782Y683302D01*
X695817Y683249D01*
X695849Y683194D01*
X695877Y683137D01*
X695902Y683079D01*
X695923Y683019D01*
X694363Y682286D02*
X694325Y682325D01*
X694288Y682367D01*
X694255Y682411D01*
X694224Y682456D01*
X694196Y682504D01*
X694171Y682553D01*
X694149Y682604D01*
X694131Y682656D01*
X694115Y682709D01*
X694103Y682763D01*
X694095Y682818D01*
X694090Y682873D01*
X694088Y682928D01*
X694364Y682285D02*
X695923Y680451D01*
X694089Y680451D01*
X692266Y683019D02*
X691349Y683753D01*
X691349Y680451D01*
X692266Y680451D02*
X690431Y680451D01*
D14*
X528380Y701890D02*
X518220Y701890D01*
D12*
X525331Y681601D02*
X526065Y681601D01*
X526117Y681603D01*
X526169Y681608D01*
X526221Y681618D01*
X526272Y681631D01*
X526322Y681647D01*
X526370Y681667D01*
X526417Y681691D01*
X526462Y681718D01*
X526505Y681747D01*
X526546Y681780D01*
X526584Y681816D01*
X526620Y681854D01*
X526653Y681895D01*
X526682Y681938D01*
X526709Y681983D01*
X526733Y682030D01*
X526753Y682078D01*
X526769Y682128D01*
X526782Y682179D01*
X526792Y682231D01*
X526797Y682283D01*
X526799Y682335D01*
X526799Y684169D01*
X526797Y684221D01*
X526792Y684273D01*
X526782Y684325D01*
X526769Y684376D01*
X526753Y684426D01*
X526733Y684474D01*
X526709Y684521D01*
X526682Y684566D01*
X526653Y684609D01*
X526620Y684650D01*
X526584Y684688D01*
X526546Y684724D01*
X526505Y684757D01*
X526462Y684786D01*
X526417Y684813D01*
X526370Y684837D01*
X526322Y684857D01*
X526272Y684873D01*
X526221Y684886D01*
X526169Y684896D01*
X526117Y684901D01*
X526065Y684903D01*
X525331Y684903D01*
X522724Y684904D02*
X522668Y684902D01*
X522612Y684896D01*
X522556Y684887D01*
X522501Y684873D01*
X522447Y684856D01*
X522395Y684836D01*
X522344Y684811D01*
X522295Y684784D01*
X522248Y684753D01*
X522203Y684719D01*
X522160Y684682D01*
X522120Y684642D01*
X522083Y684599D01*
X522049Y684554D01*
X522018Y684507D01*
X521991Y684458D01*
X521966Y684407D01*
X521946Y684355D01*
X521929Y684301D01*
X521915Y684246D01*
X521906Y684190D01*
X521900Y684134D01*
X521898Y684078D01*
X522724Y684903D02*
X522788Y684901D01*
X522851Y684895D01*
X522914Y684886D01*
X522976Y684873D01*
X523037Y684856D01*
X523097Y684835D01*
X523156Y684811D01*
X523213Y684784D01*
X523269Y684753D01*
X523322Y684718D01*
X523373Y684681D01*
X523423Y684641D01*
X523469Y684597D01*
X523513Y684551D01*
X523554Y684503D01*
X523592Y684452D01*
X523627Y684399D01*
X523659Y684344D01*
X523687Y684287D01*
X523712Y684229D01*
X523733Y684169D01*
X522173Y683436D02*
X522135Y683475D01*
X522098Y683517D01*
X522065Y683561D01*
X522034Y683606D01*
X522006Y683654D01*
X521981Y683703D01*
X521959Y683754D01*
X521941Y683806D01*
X521925Y683859D01*
X521913Y683913D01*
X521905Y683968D01*
X521900Y684023D01*
X521898Y684078D01*
X522174Y683435D02*
X523733Y681601D01*
X521899Y681601D01*
X519067Y684904D02*
X519011Y684902D01*
X518955Y684896D01*
X518899Y684887D01*
X518844Y684873D01*
X518790Y684856D01*
X518738Y684836D01*
X518687Y684811D01*
X518638Y684784D01*
X518591Y684753D01*
X518546Y684719D01*
X518503Y684682D01*
X518463Y684642D01*
X518426Y684599D01*
X518392Y684554D01*
X518361Y684507D01*
X518334Y684458D01*
X518309Y684407D01*
X518289Y684355D01*
X518272Y684301D01*
X518258Y684246D01*
X518249Y684190D01*
X518243Y684134D01*
X518241Y684078D01*
X519067Y684903D02*
X519131Y684901D01*
X519194Y684895D01*
X519257Y684886D01*
X519319Y684873D01*
X519380Y684856D01*
X519440Y684835D01*
X519499Y684811D01*
X519556Y684784D01*
X519612Y684753D01*
X519665Y684718D01*
X519716Y684681D01*
X519766Y684641D01*
X519812Y684597D01*
X519856Y684551D01*
X519897Y684503D01*
X519935Y684452D01*
X519970Y684399D01*
X520002Y684344D01*
X520030Y684287D01*
X520055Y684229D01*
X520076Y684169D01*
X518516Y683436D02*
X518478Y683475D01*
X518441Y683517D01*
X518408Y683561D01*
X518377Y683606D01*
X518349Y683654D01*
X518324Y683703D01*
X518302Y683754D01*
X518284Y683806D01*
X518268Y683859D01*
X518256Y683913D01*
X518248Y683968D01*
X518243Y684023D01*
X518241Y684078D01*
X518516Y683435D02*
X520076Y681601D01*
X518241Y681601D01*
D14*
X661620Y701890D02*
X671780Y701890D01*
D12*
X668635Y678527D02*
X667901Y678527D01*
X668635Y678527D02*
X668687Y678529D01*
X668739Y678534D01*
X668791Y678544D01*
X668842Y678557D01*
X668892Y678573D01*
X668940Y678593D01*
X668987Y678617D01*
X669032Y678644D01*
X669075Y678673D01*
X669116Y678706D01*
X669154Y678742D01*
X669190Y678780D01*
X669223Y678821D01*
X669252Y678864D01*
X669279Y678909D01*
X669303Y678956D01*
X669323Y679004D01*
X669339Y679054D01*
X669352Y679105D01*
X669362Y679157D01*
X669367Y679209D01*
X669369Y679261D01*
X669369Y681095D01*
X669367Y681147D01*
X669362Y681199D01*
X669352Y681251D01*
X669339Y681302D01*
X669323Y681352D01*
X669303Y681400D01*
X669279Y681447D01*
X669252Y681492D01*
X669223Y681535D01*
X669190Y681576D01*
X669154Y681614D01*
X669116Y681650D01*
X669075Y681683D01*
X669032Y681712D01*
X668987Y681739D01*
X668940Y681763D01*
X668892Y681783D01*
X668842Y681799D01*
X668791Y681812D01*
X668739Y681822D01*
X668687Y681827D01*
X668635Y681829D01*
X667901Y681829D01*
X665294Y681830D02*
X665238Y681828D01*
X665182Y681822D01*
X665126Y681813D01*
X665071Y681799D01*
X665017Y681782D01*
X664965Y681762D01*
X664914Y681737D01*
X664865Y681710D01*
X664818Y681679D01*
X664773Y681645D01*
X664730Y681608D01*
X664690Y681568D01*
X664653Y681525D01*
X664619Y681480D01*
X664588Y681433D01*
X664561Y681384D01*
X664536Y681333D01*
X664516Y681281D01*
X664499Y681227D01*
X664485Y681172D01*
X664476Y681116D01*
X664470Y681060D01*
X664468Y681004D01*
X665294Y681829D02*
X665358Y681827D01*
X665421Y681821D01*
X665484Y681812D01*
X665546Y681799D01*
X665607Y681782D01*
X665667Y681761D01*
X665726Y681737D01*
X665783Y681710D01*
X665839Y681679D01*
X665892Y681644D01*
X665943Y681607D01*
X665993Y681567D01*
X666039Y681523D01*
X666083Y681477D01*
X666124Y681429D01*
X666162Y681378D01*
X666197Y681325D01*
X666229Y681270D01*
X666257Y681213D01*
X666282Y681155D01*
X666303Y681095D01*
X664743Y680362D02*
X664705Y680401D01*
X664668Y680443D01*
X664635Y680487D01*
X664604Y680532D01*
X664576Y680580D01*
X664551Y680629D01*
X664529Y680680D01*
X664511Y680732D01*
X664495Y680785D01*
X664483Y680839D01*
X664475Y680894D01*
X664470Y680949D01*
X664468Y681004D01*
X664744Y680361D02*
X666303Y678527D01*
X664469Y678527D01*
X662645Y678527D02*
X661728Y678527D01*
X661669Y678529D01*
X661611Y678535D01*
X661553Y678544D01*
X661495Y678557D01*
X661439Y678574D01*
X661384Y678594D01*
X661330Y678618D01*
X661278Y678645D01*
X661228Y678675D01*
X661180Y678709D01*
X661134Y678746D01*
X661090Y678785D01*
X661049Y678828D01*
X661011Y678872D01*
X660976Y678919D01*
X660944Y678969D01*
X660915Y679020D01*
X660889Y679073D01*
X660867Y679127D01*
X660849Y679183D01*
X660834Y679240D01*
X660823Y679298D01*
X660815Y679356D01*
X660811Y679415D01*
X660811Y679473D01*
X660815Y679532D01*
X660823Y679590D01*
X660834Y679648D01*
X660849Y679705D01*
X660867Y679761D01*
X660889Y679815D01*
X660915Y679868D01*
X660944Y679919D01*
X660976Y679969D01*
X661011Y680016D01*
X661049Y680060D01*
X661090Y680103D01*
X661134Y680142D01*
X661180Y680179D01*
X661228Y680213D01*
X661278Y680243D01*
X661330Y680270D01*
X661384Y680294D01*
X661439Y680314D01*
X661495Y680331D01*
X661553Y680344D01*
X661611Y680353D01*
X661669Y680359D01*
X661728Y680361D01*
X661545Y681829D02*
X662645Y681829D01*
X661545Y681829D02*
X661493Y681827D01*
X661441Y681822D01*
X661389Y681812D01*
X661338Y681799D01*
X661288Y681783D01*
X661240Y681763D01*
X661193Y681739D01*
X661148Y681712D01*
X661105Y681683D01*
X661064Y681650D01*
X661026Y681614D01*
X660990Y681576D01*
X660957Y681535D01*
X660928Y681492D01*
X660901Y681447D01*
X660877Y681400D01*
X660857Y681352D01*
X660841Y681302D01*
X660828Y681251D01*
X660818Y681199D01*
X660813Y681147D01*
X660811Y681095D01*
X660813Y681043D01*
X660818Y680991D01*
X660828Y680939D01*
X660841Y680888D01*
X660857Y680838D01*
X660877Y680790D01*
X660901Y680743D01*
X660928Y680698D01*
X660957Y680655D01*
X660990Y680614D01*
X661026Y680576D01*
X661064Y680540D01*
X661105Y680507D01*
X661148Y680478D01*
X661193Y680451D01*
X661240Y680427D01*
X661288Y680407D01*
X661338Y680391D01*
X661389Y680378D01*
X661441Y680368D01*
X661493Y680363D01*
X661545Y680361D01*
X662279Y680361D01*
D14*
X547780Y701890D02*
X537620Y701890D01*
D12*
X546331Y680001D02*
X547065Y680001D01*
X547117Y680003D01*
X547169Y680008D01*
X547221Y680018D01*
X547272Y680031D01*
X547322Y680047D01*
X547370Y680067D01*
X547417Y680091D01*
X547462Y680118D01*
X547505Y680147D01*
X547546Y680180D01*
X547584Y680216D01*
X547620Y680254D01*
X547653Y680295D01*
X547682Y680338D01*
X547709Y680383D01*
X547733Y680430D01*
X547753Y680478D01*
X547769Y680528D01*
X547782Y680579D01*
X547792Y680631D01*
X547797Y680683D01*
X547799Y680735D01*
X547799Y682569D01*
X547797Y682621D01*
X547792Y682673D01*
X547782Y682725D01*
X547769Y682776D01*
X547753Y682826D01*
X547733Y682874D01*
X547709Y682921D01*
X547682Y682966D01*
X547653Y683009D01*
X547620Y683050D01*
X547584Y683088D01*
X547546Y683124D01*
X547505Y683157D01*
X547462Y683186D01*
X547417Y683213D01*
X547370Y683237D01*
X547322Y683257D01*
X547272Y683273D01*
X547221Y683286D01*
X547169Y683296D01*
X547117Y683301D01*
X547065Y683303D01*
X546331Y683303D01*
X543724Y683304D02*
X543668Y683302D01*
X543612Y683296D01*
X543556Y683287D01*
X543501Y683273D01*
X543447Y683256D01*
X543395Y683236D01*
X543344Y683211D01*
X543295Y683184D01*
X543248Y683153D01*
X543203Y683119D01*
X543160Y683082D01*
X543120Y683042D01*
X543083Y682999D01*
X543049Y682954D01*
X543018Y682907D01*
X542991Y682858D01*
X542966Y682807D01*
X542946Y682755D01*
X542929Y682701D01*
X542915Y682646D01*
X542906Y682590D01*
X542900Y682534D01*
X542898Y682478D01*
X543724Y683303D02*
X543788Y683301D01*
X543851Y683295D01*
X543914Y683286D01*
X543976Y683273D01*
X544037Y683256D01*
X544097Y683235D01*
X544156Y683211D01*
X544213Y683184D01*
X544269Y683153D01*
X544322Y683118D01*
X544373Y683081D01*
X544423Y683041D01*
X544469Y682997D01*
X544513Y682951D01*
X544554Y682903D01*
X544592Y682852D01*
X544627Y682799D01*
X544659Y682744D01*
X544687Y682687D01*
X544712Y682629D01*
X544733Y682569D01*
X543173Y681836D02*
X543135Y681875D01*
X543098Y681917D01*
X543065Y681961D01*
X543034Y682006D01*
X543006Y682054D01*
X542981Y682103D01*
X542959Y682154D01*
X542941Y682206D01*
X542925Y682259D01*
X542913Y682313D01*
X542905Y682368D01*
X542900Y682423D01*
X542898Y682478D01*
X543174Y681835D02*
X544733Y680001D01*
X542899Y680001D01*
X541076Y680735D02*
X540342Y683303D01*
X541076Y680735D02*
X539241Y680735D01*
X539792Y681469D02*
X539792Y680001D01*
D14*
X632520Y701890D02*
X642680Y701890D01*
D12*
X639535Y678527D02*
X638801Y678527D01*
X639535Y678527D02*
X639587Y678529D01*
X639639Y678534D01*
X639691Y678544D01*
X639742Y678557D01*
X639792Y678573D01*
X639840Y678593D01*
X639887Y678617D01*
X639932Y678644D01*
X639975Y678673D01*
X640016Y678706D01*
X640054Y678742D01*
X640090Y678780D01*
X640123Y678821D01*
X640152Y678864D01*
X640179Y678909D01*
X640203Y678956D01*
X640223Y679004D01*
X640239Y679054D01*
X640252Y679105D01*
X640262Y679157D01*
X640267Y679209D01*
X640269Y679261D01*
X640269Y681095D01*
X640267Y681147D01*
X640262Y681199D01*
X640252Y681251D01*
X640239Y681302D01*
X640223Y681352D01*
X640203Y681400D01*
X640179Y681447D01*
X640152Y681492D01*
X640123Y681535D01*
X640090Y681576D01*
X640054Y681614D01*
X640016Y681650D01*
X639975Y681683D01*
X639932Y681712D01*
X639887Y681739D01*
X639840Y681763D01*
X639792Y681783D01*
X639742Y681799D01*
X639691Y681812D01*
X639639Y681822D01*
X639587Y681827D01*
X639535Y681829D01*
X638801Y681829D01*
X636194Y681830D02*
X636138Y681828D01*
X636082Y681822D01*
X636026Y681813D01*
X635971Y681799D01*
X635917Y681782D01*
X635865Y681762D01*
X635814Y681737D01*
X635765Y681710D01*
X635718Y681679D01*
X635673Y681645D01*
X635630Y681608D01*
X635590Y681568D01*
X635553Y681525D01*
X635519Y681480D01*
X635488Y681433D01*
X635461Y681384D01*
X635436Y681333D01*
X635416Y681281D01*
X635399Y681227D01*
X635385Y681172D01*
X635376Y681116D01*
X635370Y681060D01*
X635368Y681004D01*
X636194Y681829D02*
X636258Y681827D01*
X636321Y681821D01*
X636384Y681812D01*
X636446Y681799D01*
X636507Y681782D01*
X636567Y681761D01*
X636626Y681737D01*
X636683Y681710D01*
X636739Y681679D01*
X636792Y681644D01*
X636843Y681607D01*
X636893Y681567D01*
X636939Y681523D01*
X636983Y681477D01*
X637024Y681429D01*
X637062Y681378D01*
X637097Y681325D01*
X637129Y681270D01*
X637157Y681213D01*
X637182Y681155D01*
X637203Y681095D01*
X635643Y680362D02*
X635605Y680401D01*
X635568Y680443D01*
X635535Y680487D01*
X635504Y680532D01*
X635476Y680580D01*
X635451Y680629D01*
X635429Y680680D01*
X635411Y680732D01*
X635395Y680785D01*
X635383Y680839D01*
X635375Y680894D01*
X635370Y680949D01*
X635368Y681004D01*
X635644Y680361D02*
X637203Y678527D01*
X635369Y678527D01*
X633545Y678527D02*
X632445Y678527D01*
X632393Y678529D01*
X632341Y678534D01*
X632289Y678544D01*
X632238Y678557D01*
X632189Y678573D01*
X632140Y678593D01*
X632093Y678617D01*
X632048Y678644D01*
X632005Y678673D01*
X631964Y678706D01*
X631926Y678742D01*
X631890Y678780D01*
X631857Y678821D01*
X631828Y678864D01*
X631801Y678909D01*
X631777Y678956D01*
X631757Y679004D01*
X631741Y679054D01*
X631728Y679105D01*
X631718Y679156D01*
X631713Y679209D01*
X631711Y679261D01*
X631711Y679628D01*
X631713Y679680D01*
X631718Y679732D01*
X631728Y679784D01*
X631741Y679835D01*
X631757Y679885D01*
X631777Y679933D01*
X631801Y679980D01*
X631828Y680025D01*
X631857Y680068D01*
X631890Y680109D01*
X631926Y680147D01*
X631964Y680183D01*
X632005Y680216D01*
X632048Y680245D01*
X632093Y680272D01*
X632140Y680296D01*
X632189Y680316D01*
X632238Y680332D01*
X632289Y680345D01*
X632341Y680355D01*
X632393Y680360D01*
X632445Y680362D01*
X632445Y680361D02*
X633545Y680361D01*
X633545Y681829D01*
X631711Y681829D01*
M02*
