G04 EAGLE Gerber RS-274X export*
G75*
%MOMM*%
%FSLAX34Y34*%
%LPD*%
%INSoldermask Top*%
%IPPOS*%
%AMOC8*
5,1,8,0,0,1.08239X$1,22.5*%
G01*
%ADD10R,2.053200X1.003200*%
%ADD11R,1.003200X2.053200*%
%ADD12R,2.053200X1.203200*%
%ADD13C,1.803200*%
%ADD14C,1.303200*%
%ADD15R,0.803200X2.203200*%
%ADD16R,2.503200X3.403200*%
%ADD17C,3.203200*%
%ADD18R,0.953200X0.503200*%
%ADD19R,0.503200X0.953200*%
%ADD20R,3.103200X3.103200*%
%ADD21R,2.703200X1.403200*%
%ADD22C,1.403200*%
%ADD23C,2.082800*%
%ADD24C,2.603200*%
%ADD25C,1.711200*%
%ADD26C,3.403200*%
%ADD27R,1.053200X2.403200*%
%ADD28R,1.203200X1.253200*%
%ADD29R,0.603200X1.653200*%
%ADD30C,1.053200*%
%ADD31R,2.000000X1.700000*%
%ADD32R,2.700000X1.700000*%
%ADD33R,0.803200X1.403200*%
%ADD34R,1.711200X1.711200*%
%ADD35R,0.503200X0.803200*%
%ADD36R,2.453200X0.803200*%
%ADD37R,0.823200X0.803200*%
%ADD38R,1.403200X1.003200*%
%ADD39R,1.003200X1.403200*%
%ADD40R,1.303200X1.203200*%
%ADD41R,1.203200X1.303200*%
%ADD42R,0.603200X0.703200*%
%ADD43R,2.003200X1.303200*%
%ADD44R,1.703200X1.103200*%
%ADD45R,2.053200X2.053200*%
%ADD46C,2.053200*%
%ADD47R,2.903200X2.753200*%
%ADD48R,1.403200X2.203200*%
%ADD49R,0.803200X1.553200*%
%ADD50C,0.603200*%
%ADD51R,0.445200X1.163200*%
%ADD52C,0.445200*%
%ADD53R,3.453200X3.453200*%
%ADD54C,0.990600*%
%ADD55C,1.219200*%
%ADD56C,0.959600*%


D10*
X857200Y595550D03*
X857200Y564350D03*
X857200Y554350D03*
X857200Y523150D03*
X857200Y513150D03*
X857200Y481950D03*
X857200Y471950D03*
X857200Y387450D03*
X857200Y377450D03*
X857200Y367450D03*
X857200Y357450D03*
X857200Y347450D03*
X857200Y337450D03*
X857200Y327450D03*
X857200Y317450D03*
X857200Y307450D03*
X857200Y297450D03*
X857200Y287450D03*
X857200Y277450D03*
X857200Y267450D03*
X857200Y257450D03*
X857200Y247450D03*
X857200Y237450D03*
D11*
X905150Y206300D03*
X915150Y206300D03*
X925150Y206300D03*
D10*
X1025200Y237450D03*
X1025200Y247450D03*
X1025200Y257450D03*
X1025200Y267450D03*
X1025200Y277450D03*
X1025200Y287450D03*
X1025200Y297450D03*
X1025200Y307450D03*
X1025200Y317450D03*
X1025200Y327450D03*
X1025200Y337450D03*
X1025200Y347450D03*
X1025200Y357450D03*
X1025200Y367450D03*
X1025200Y377450D03*
X1025200Y387450D03*
X1025200Y471950D03*
X1025200Y481950D03*
X1025200Y513150D03*
X1025200Y523150D03*
X1025200Y554350D03*
X1025200Y564350D03*
D12*
X1025200Y595550D03*
D11*
X934290Y624500D03*
X924290Y624500D03*
X914290Y624500D03*
D13*
X497070Y295470D03*
D14*
X747070Y295470D03*
D15*
X504070Y254470D03*
X508070Y336470D03*
X512070Y254470D03*
X516070Y336470D03*
X520070Y254470D03*
X524070Y336470D03*
X528070Y254470D03*
X532070Y336470D03*
X536070Y254470D03*
X540070Y336470D03*
X544070Y254470D03*
X548070Y336470D03*
X552070Y254470D03*
X556070Y336470D03*
X560070Y254470D03*
X564070Y336470D03*
X600070Y254470D03*
X604070Y336470D03*
X608070Y254470D03*
X612070Y336470D03*
X616070Y254470D03*
X620070Y336470D03*
X624070Y254470D03*
X628070Y336470D03*
X632070Y254470D03*
X636070Y336470D03*
X640070Y254470D03*
X644070Y336470D03*
X648070Y254470D03*
X652070Y336470D03*
X656070Y254470D03*
X660070Y336470D03*
X664070Y254470D03*
X668070Y336470D03*
X672070Y254470D03*
X676070Y336470D03*
X680070Y254470D03*
X684070Y336470D03*
X688070Y254470D03*
X692070Y336470D03*
X696070Y254470D03*
X700070Y336470D03*
X704070Y254470D03*
X708070Y336470D03*
X712070Y254470D03*
X716070Y336470D03*
X720070Y254470D03*
X724070Y336470D03*
X728070Y254470D03*
X732070Y336470D03*
X736070Y254470D03*
X740070Y336470D03*
D16*
X475570Y260470D03*
X768570Y260470D03*
D17*
X498070Y530470D03*
X746070Y529470D03*
D18*
X777500Y206100D03*
X777500Y201100D03*
X777500Y196100D03*
X777500Y191100D03*
X777500Y186100D03*
D19*
X787500Y176100D03*
X792500Y176100D03*
X797500Y176100D03*
X802500Y176100D03*
X807500Y176100D03*
D18*
X817500Y186100D03*
X817500Y191100D03*
X817500Y196100D03*
X817500Y201100D03*
X817500Y206100D03*
D19*
X807500Y216100D03*
X802500Y216100D03*
X797500Y216100D03*
X792500Y216100D03*
X787500Y216100D03*
D20*
X797500Y196100D03*
D21*
X360900Y112000D03*
X425900Y123000D03*
X360900Y72000D03*
X360900Y42000D03*
D22*
X393400Y26000D03*
X393400Y96000D03*
D21*
X467500Y112000D03*
X532500Y123000D03*
X467500Y72000D03*
X467500Y42000D03*
D22*
X500000Y26000D03*
X500000Y96000D03*
D23*
X704950Y184050D03*
X692250Y158650D03*
X679550Y184050D03*
X654150Y184050D03*
X628750Y184050D03*
X666850Y158650D03*
X641450Y158650D03*
X616050Y158650D03*
D24*
X584300Y125200D03*
X736300Y125200D03*
D25*
X594300Y55200D03*
X726300Y55200D03*
X701300Y55200D03*
X619300Y55200D03*
D26*
X603350Y95150D03*
X717650Y95150D03*
D27*
X937750Y696500D03*
X910250Y696500D03*
D28*
X924000Y681250D03*
X924000Y711750D03*
D27*
X901550Y146400D03*
X929050Y146400D03*
D28*
X915300Y161650D03*
X915300Y131150D03*
D29*
X288100Y762450D03*
X294600Y762450D03*
X301100Y762450D03*
X281600Y762450D03*
X275100Y762450D03*
D30*
X307100Y767700D03*
X269100Y767700D03*
D31*
X324940Y789700D03*
X251260Y789700D03*
D32*
X288100Y789700D03*
D33*
X301500Y726200D03*
X292000Y726200D03*
X282500Y726200D03*
X282500Y703200D03*
X292000Y703200D03*
X301500Y703200D03*
D34*
X123200Y246800D03*
D25*
X183200Y246800D03*
X63200Y582800D03*
X243200Y582800D03*
D35*
X350150Y538800D03*
X356650Y538800D03*
X363150Y538800D03*
X369650Y538800D03*
X369650Y557800D03*
X363150Y557800D03*
X356650Y557800D03*
X350150Y557800D03*
D36*
X359900Y548300D03*
D37*
X351740Y548300D03*
X368060Y548300D03*
X359900Y548300D03*
D38*
X397238Y542508D03*
X397238Y560508D03*
D39*
X370900Y509550D03*
X388900Y509550D03*
D40*
X345300Y509550D03*
X328300Y509550D03*
D41*
X299900Y560300D03*
X299900Y543300D03*
X324900Y542900D03*
X324900Y559900D03*
D40*
X348100Y717850D03*
X365100Y717850D03*
X348100Y687850D03*
X365100Y687850D03*
X348100Y657850D03*
X365100Y657850D03*
D39*
X224300Y626000D03*
X242300Y626000D03*
D40*
X224300Y689600D03*
X241300Y689600D03*
X223800Y655700D03*
X240800Y655700D03*
D42*
X320300Y586500D03*
X313800Y586500D03*
X307300Y586500D03*
X307300Y605500D03*
X313800Y605500D03*
X320300Y605500D03*
D43*
X333758Y384072D03*
X395758Y384072D03*
X333758Y421072D03*
X395758Y421072D03*
D41*
X1046700Y520700D03*
X1046700Y503700D03*
D43*
X332358Y297832D03*
X394358Y297832D03*
X332358Y334832D03*
X394358Y334832D03*
D44*
X820552Y760222D03*
X820552Y727222D03*
X869552Y760222D03*
X869552Y727222D03*
D40*
X820432Y698188D03*
X837432Y698188D03*
D45*
X232500Y101000D03*
D46*
X267500Y101000D03*
D40*
X773000Y85000D03*
X756000Y85000D03*
X772500Y55000D03*
X755500Y55000D03*
D41*
X752000Y213500D03*
X752000Y230500D03*
D40*
X812000Y149500D03*
X829000Y149500D03*
D41*
X752500Y172500D03*
X752500Y189500D03*
D40*
X764500Y148500D03*
X781500Y148500D03*
D47*
X819000Y39300D03*
X819000Y102700D03*
D48*
X428000Y786750D03*
X372000Y786750D03*
D49*
X415000Y750000D03*
X405000Y750000D03*
X395000Y750000D03*
X385000Y750000D03*
D50*
X701900Y777890D03*
X541900Y777890D03*
D51*
X312000Y670260D03*
D52*
X307000Y673850D02*
X307000Y666670D01*
X302000Y666670D02*
X302000Y673850D01*
X297000Y673850D02*
X297000Y666670D01*
X292000Y666670D02*
X292000Y673850D01*
X287000Y673850D02*
X287000Y666670D01*
X282000Y666670D02*
X282000Y673850D01*
X282000Y628330D02*
X282000Y621150D01*
X287000Y621150D02*
X287000Y628330D01*
X292000Y628330D02*
X292000Y621150D01*
X297000Y621150D02*
X297000Y628330D01*
X302000Y628330D02*
X302000Y621150D01*
X307000Y621150D02*
X307000Y628330D01*
X312000Y628330D02*
X312000Y621150D01*
X277830Y662500D02*
X270650Y662500D01*
X270650Y657500D02*
X277830Y657500D01*
X277830Y652500D02*
X270650Y652500D01*
X270650Y647500D02*
X277830Y647500D01*
X277830Y642500D02*
X270650Y642500D01*
X270650Y637500D02*
X277830Y637500D01*
X277830Y632500D02*
X270650Y632500D01*
X316170Y632500D02*
X323350Y632500D01*
X323350Y637500D02*
X316170Y637500D01*
X316170Y642500D02*
X323350Y642500D01*
X323350Y647500D02*
X316170Y647500D01*
X316170Y652500D02*
X323350Y652500D01*
X323350Y657500D02*
X316170Y657500D01*
X316170Y662500D02*
X323350Y662500D01*
D53*
X297000Y647500D03*
D40*
X797570Y329548D03*
X814570Y329548D03*
X798086Y300818D03*
X815086Y300818D03*
X347828Y233164D03*
X330828Y233164D03*
X379985Y232910D03*
X396985Y232910D03*
X330828Y263398D03*
X347828Y263398D03*
X379731Y263398D03*
X396731Y263398D03*
X346828Y201168D03*
X329828Y201168D03*
X380985Y200660D03*
X397985Y200660D03*
D54*
X501396Y194056D03*
X514096Y194056D03*
X526796Y194056D03*
X526796Y206756D03*
X514096Y206756D03*
X501396Y206756D03*
D55*
X488696Y200406D03*
X539496Y210566D03*
X539496Y190246D03*
D56*
X372618Y528320D03*
X296672Y647446D03*
X223012Y714756D03*
X291592Y739394D03*
X332740Y744728D03*
X356616Y743458D03*
X438150Y739902D03*
X609600Y715010D03*
X680720Y753110D03*
X495808Y738632D03*
X910082Y640080D03*
X910082Y649732D03*
X910082Y659384D03*
X910082Y668274D03*
X909828Y677926D03*
X938022Y640080D03*
X938276Y649732D03*
X938022Y659130D03*
X938022Y668274D03*
X938022Y677418D03*
X893318Y679196D03*
X893572Y659638D03*
X893318Y641604D03*
X956056Y640842D03*
X954786Y659384D03*
X955040Y678180D03*
X954278Y695198D03*
X892048Y694944D03*
X898144Y718566D03*
X949452Y720090D03*
X923544Y726694D03*
X859028Y643382D03*
X858266Y681228D03*
X979932Y680720D03*
X981964Y640334D03*
X931926Y190754D03*
X929894Y181864D03*
X930148Y173228D03*
X933196Y164592D03*
X898144Y190754D03*
X901446Y182118D03*
X901446Y173482D03*
X898144Y165354D03*
X886714Y191008D03*
X886460Y173736D03*
X886968Y153416D03*
X944118Y190754D03*
X944372Y174244D03*
X945388Y156718D03*
X865632Y174752D03*
X867410Y153416D03*
X876808Y123444D03*
X964946Y173990D03*
X964438Y190754D03*
X965454Y156464D03*
X948436Y125730D03*
X898652Y122428D03*
X930656Y123190D03*
X1014222Y640588D03*
X981456Y660654D03*
X857758Y662432D03*
X838200Y596138D03*
X839470Y553974D03*
X837438Y474218D03*
X839470Y402590D03*
X1042670Y395732D03*
X1044956Y471932D03*
X1044956Y553466D03*
X1044956Y594106D03*
X1044194Y339344D03*
X1044702Y277876D03*
X1044194Y213868D03*
X834898Y345186D03*
X623062Y315468D03*
X708660Y319024D03*
X363728Y199390D03*
X313436Y264922D03*
X351536Y383286D03*
X311912Y572008D03*
X332232Y617220D03*
X263652Y614934D03*
X192278Y688848D03*
X192786Y655320D03*
X193548Y624078D03*
X351282Y788416D03*
X221996Y787908D03*
X896620Y744728D03*
X896112Y775970D03*
X962660Y778256D03*
X962152Y743966D03*
X317500Y703580D03*
X332740Y703580D03*
X325374Y688086D03*
X524284Y185166D03*
X413004Y537464D03*
X1006602Y595376D03*
X508070Y351776D03*
X628070Y351776D03*
X740070Y351776D03*
X404992Y732804D03*
X831000Y205500D03*
X370205Y484759D03*
X696722Y238760D03*
X362204Y335788D03*
X1003046Y367284D03*
X652018Y701802D03*
X500380Y176530D03*
X861060Y536702D03*
X862330Y499872D03*
X1020826Y536956D03*
X1022096Y500888D03*
X769366Y367538D03*
X339090Y646430D03*
X761238Y360172D03*
X340254Y630428D03*
X874522Y217678D03*
X874649Y243205D03*
X559332Y303802D03*
X1003681Y267589D03*
X291500Y688500D03*
X305000Y681500D03*
X253000Y689500D03*
X274000Y692000D03*
X348100Y673000D03*
X348608Y618108D03*
X835660Y267462D03*
X565912Y313436D03*
X559928Y292326D03*
X835660Y247142D03*
X996950Y277368D03*
X572770Y321564D03*
X316738Y219074D03*
X902970Y243586D03*
X410591Y232791D03*
X892556Y242316D03*
X875500Y348000D03*
X845820Y743712D03*
X1000760Y351282D03*
X786638Y84836D03*
X1009142Y346202D03*
X787400Y55118D03*
X785500Y163500D03*
X819000Y123500D03*
X392938Y734568D03*
X807466Y340642D03*
X590296Y752856D03*
X381508Y736092D03*
X810006Y311912D03*
X604266Y756158D03*
X928878Y283972D03*
X683260Y309372D03*
M02*
