G04 EAGLE Gerber RS-274X export*
G75*
%MOMM*%
%FSLAX34Y34*%
%LPD*%
%INSolderpaste Bottom*%
%IPPOS*%
%AMOC8*
5,1,8,0,0,1.08239X$1,22.5*%
G01*
%ADD10R,0.650000X1.300000*%
%ADD11R,0.480000X1.800000*%
%ADD12R,1.030000X1.000000*%
%ADD13R,1.800000X1.100000*%
%ADD14R,0.350000X2.200000*%
%ADD15R,1.500000X1.240000*%


D10*
X908050Y479200D03*
X920750Y479200D03*
X933450Y479200D03*
X946150Y479200D03*
X958850Y479200D03*
X971550Y479200D03*
D11*
X893100Y485900D03*
X986500Y485900D03*
X893100Y543400D03*
X986500Y543400D03*
D12*
X895150Y600600D03*
X984450Y600600D03*
D13*
X976100Y314200D03*
X914100Y314200D03*
X976100Y351200D03*
X914100Y351200D03*
D14*
X723400Y735390D03*
X716400Y735390D03*
X709400Y735390D03*
X702400Y735390D03*
X695400Y735390D03*
X688400Y735390D03*
X681400Y735390D03*
X674400Y735390D03*
X667400Y735390D03*
X660400Y735390D03*
X653400Y735390D03*
X646400Y735390D03*
X639400Y735390D03*
X632400Y735390D03*
X625400Y735390D03*
X618400Y735390D03*
X611400Y735390D03*
X604400Y735390D03*
X597400Y735390D03*
X590400Y735390D03*
X583400Y735390D03*
X576400Y735390D03*
X569400Y735390D03*
X562400Y735390D03*
X555400Y735390D03*
X548400Y735390D03*
X541400Y735390D03*
X534400Y735390D03*
X527400Y735390D03*
X520400Y735390D03*
D15*
X562100Y692390D03*
X562100Y711390D03*
X723000Y692390D03*
X723000Y711390D03*
X695100Y711390D03*
X695100Y692390D03*
X523300Y692390D03*
X523300Y711390D03*
X666700Y692390D03*
X666700Y711390D03*
X542700Y692390D03*
X542700Y711390D03*
X637600Y692390D03*
X637600Y711390D03*
M02*
