G04 EAGLE Gerber RS-274X export*
G75*
%MOMM*%
%FSLAX34Y34*%
%LPD*%
%INSolderpaste Top*%
%IPPOS*%
%AMOC8*
5,1,8,0,0,1.08239X$1,22.5*%
G01*
%ADD10R,1.850000X0.800000*%
%ADD11R,0.800000X1.850000*%
%ADD12R,1.850000X1.000000*%
%ADD13R,0.600000X2.000000*%
%ADD14R,2.300000X3.200000*%
%ADD15R,0.750000X0.300000*%
%ADD16R,0.300000X0.750000*%
%ADD17R,2.900000X2.900000*%
%ADD18R,2.500000X1.200000*%
%ADD19R,0.850000X2.200000*%
%ADD20R,1.000000X1.050000*%
%ADD21R,0.400000X1.450000*%
%ADD22R,1.800000X1.500000*%
%ADD23R,1.500000X0.700000*%
%ADD24R,0.600000X1.200000*%
%ADD25R,0.300000X0.600000*%
%ADD26R,2.250000X0.600000*%
%ADD27R,0.620000X0.600000*%
%ADD28R,1.200000X0.800000*%
%ADD29R,0.800000X1.200000*%
%ADD30R,1.100000X1.000000*%
%ADD31R,1.000000X1.100000*%
%ADD32R,0.400000X0.500000*%
%ADD33R,1.800000X1.100000*%
%ADD34R,1.500000X0.900000*%
%ADD35R,2.700000X2.550000*%
%ADD36R,1.200000X2.000000*%
%ADD37R,0.600000X1.350000*%
%ADD38R,2.056000X2.056000*%
%ADD39R,0.242000X0.960000*%
%ADD40C,0.242000*%
%ADD41R,3.250000X3.250000*%


D10*
X857200Y595550D03*
X857200Y564350D03*
X857200Y554350D03*
X857200Y523150D03*
X857200Y513150D03*
X857200Y481950D03*
X857200Y471950D03*
X857200Y387450D03*
X857200Y377450D03*
X857200Y367450D03*
X857200Y357450D03*
X857200Y347450D03*
X857200Y337450D03*
X857200Y327450D03*
X857200Y317450D03*
X857200Y307450D03*
X857200Y297450D03*
X857200Y287450D03*
X857200Y277450D03*
X857200Y267450D03*
X857200Y257450D03*
X857200Y247450D03*
X857200Y237450D03*
D11*
X905150Y206300D03*
X915150Y206300D03*
X925150Y206300D03*
D10*
X1025200Y237450D03*
X1025200Y247450D03*
X1025200Y257450D03*
X1025200Y267450D03*
X1025200Y277450D03*
X1025200Y287450D03*
X1025200Y297450D03*
X1025200Y307450D03*
X1025200Y317450D03*
X1025200Y327450D03*
X1025200Y337450D03*
X1025200Y347450D03*
X1025200Y357450D03*
X1025200Y367450D03*
X1025200Y377450D03*
X1025200Y387450D03*
X1025200Y471950D03*
X1025200Y481950D03*
X1025200Y513150D03*
X1025200Y523150D03*
X1025200Y554350D03*
X1025200Y564350D03*
D12*
X1025200Y595550D03*
D11*
X934290Y624500D03*
X924290Y624500D03*
X914290Y624500D03*
D13*
X504070Y254470D03*
X508070Y336470D03*
X512070Y254470D03*
X516070Y336470D03*
X520070Y254470D03*
X524070Y336470D03*
X528070Y254470D03*
X532070Y336470D03*
X536070Y254470D03*
X540070Y336470D03*
X544070Y254470D03*
X548070Y336470D03*
X552070Y254470D03*
X556070Y336470D03*
X560070Y254470D03*
X564070Y336470D03*
X600070Y254470D03*
X604070Y336470D03*
X608070Y254470D03*
X612070Y336470D03*
X616070Y254470D03*
X620070Y336470D03*
X624070Y254470D03*
X628070Y336470D03*
X632070Y254470D03*
X636070Y336470D03*
X640070Y254470D03*
X644070Y336470D03*
X648070Y254470D03*
X652070Y336470D03*
X656070Y254470D03*
X660070Y336470D03*
X664070Y254470D03*
X668070Y336470D03*
X672070Y254470D03*
X676070Y336470D03*
X680070Y254470D03*
X684070Y336470D03*
X688070Y254470D03*
X692070Y336470D03*
X696070Y254470D03*
X700070Y336470D03*
X704070Y254470D03*
X708070Y336470D03*
X712070Y254470D03*
X716070Y336470D03*
X720070Y254470D03*
X724070Y336470D03*
X728070Y254470D03*
X732070Y336470D03*
X736070Y254470D03*
X740070Y336470D03*
D14*
X475570Y260470D03*
X768570Y260470D03*
D15*
X777500Y206100D03*
X777500Y201100D03*
X777500Y196100D03*
X777500Y191100D03*
X777500Y186100D03*
D16*
X787500Y176100D03*
X792500Y176100D03*
X797500Y176100D03*
X802500Y176100D03*
X807500Y176100D03*
D15*
X817500Y186100D03*
X817500Y191100D03*
X817500Y196100D03*
X817500Y201100D03*
X817500Y206100D03*
D16*
X807500Y216100D03*
X802500Y216100D03*
X797500Y216100D03*
X792500Y216100D03*
X787500Y216100D03*
D17*
X797500Y196100D03*
D18*
X360900Y112000D03*
X425900Y123000D03*
X360900Y72000D03*
X360900Y42000D03*
X467500Y112000D03*
X532500Y123000D03*
X467500Y72000D03*
X467500Y42000D03*
D19*
X937750Y696500D03*
X910250Y696500D03*
D20*
X924000Y681250D03*
X924000Y711750D03*
D19*
X901550Y146400D03*
X929050Y146400D03*
D20*
X915300Y161650D03*
X915300Y131150D03*
D21*
X288100Y762450D03*
X294600Y762450D03*
X301100Y762450D03*
X281600Y762450D03*
X275100Y762450D03*
D22*
X324940Y789700D03*
D23*
X288100Y789700D03*
D22*
X251260Y789700D03*
D24*
X301500Y726200D03*
X292000Y726200D03*
X282500Y726200D03*
X282500Y703200D03*
X292000Y703200D03*
X301500Y703200D03*
D25*
X350150Y538800D03*
X356650Y538800D03*
X363150Y538800D03*
X369650Y538800D03*
X369650Y557800D03*
X363150Y557800D03*
X356650Y557800D03*
X350150Y557800D03*
D26*
X359900Y548300D03*
D27*
X351740Y548300D03*
X368060Y548300D03*
X359900Y548300D03*
D28*
X397238Y542508D03*
X397238Y560508D03*
D29*
X370900Y509550D03*
X388900Y509550D03*
D30*
X345300Y509550D03*
X328300Y509550D03*
D31*
X299900Y560300D03*
X299900Y543300D03*
X324900Y542900D03*
X324900Y559900D03*
D30*
X348100Y717850D03*
X365100Y717850D03*
X348100Y687850D03*
X365100Y687850D03*
X348100Y657850D03*
X365100Y657850D03*
D29*
X224300Y626000D03*
X242300Y626000D03*
D30*
X224300Y689600D03*
X241300Y689600D03*
X223800Y655700D03*
X240800Y655700D03*
D32*
X320300Y586500D03*
X313800Y586500D03*
X307300Y586500D03*
X307300Y605500D03*
X313800Y605500D03*
X320300Y605500D03*
D33*
X333758Y384072D03*
X395758Y384072D03*
X333758Y421072D03*
X395758Y421072D03*
D31*
X1046700Y520700D03*
X1046700Y503700D03*
D33*
X332358Y297832D03*
X394358Y297832D03*
X332358Y334832D03*
X394358Y334832D03*
D34*
X820552Y760222D03*
X820552Y727222D03*
X869552Y760222D03*
X869552Y727222D03*
D30*
X820432Y698188D03*
X837432Y698188D03*
X773000Y85000D03*
X756000Y85000D03*
X772500Y55000D03*
X755500Y55000D03*
D31*
X752000Y213500D03*
X752000Y230500D03*
D30*
X812000Y149500D03*
X829000Y149500D03*
D31*
X752500Y172500D03*
X752500Y189500D03*
D30*
X764500Y148500D03*
X781500Y148500D03*
D35*
X819000Y39300D03*
X819000Y102700D03*
D36*
X428000Y786750D03*
X372000Y786750D03*
D37*
X415000Y750000D03*
X405000Y750000D03*
X395000Y750000D03*
X385000Y750000D03*
D38*
X297000Y647500D03*
D39*
X312000Y670260D03*
D40*
X307000Y673850D02*
X307000Y666670D01*
X302000Y666670D02*
X302000Y673850D01*
X297000Y673850D02*
X297000Y666670D01*
X292000Y666670D02*
X292000Y673850D01*
X287000Y673850D02*
X287000Y666670D01*
X282000Y666670D02*
X282000Y673850D01*
X282000Y628330D02*
X282000Y621150D01*
X287000Y621150D02*
X287000Y628330D01*
X292000Y628330D02*
X292000Y621150D01*
X297000Y621150D02*
X297000Y628330D01*
X302000Y628330D02*
X302000Y621150D01*
X307000Y621150D02*
X307000Y628330D01*
X312000Y628330D02*
X312000Y621150D01*
X277830Y662500D02*
X270650Y662500D01*
X270650Y657500D02*
X277830Y657500D01*
X277830Y652500D02*
X270650Y652500D01*
X270650Y647500D02*
X277830Y647500D01*
X277830Y642500D02*
X270650Y642500D01*
X270650Y637500D02*
X277830Y637500D01*
X277830Y632500D02*
X270650Y632500D01*
X316170Y632500D02*
X323350Y632500D01*
X323350Y637500D02*
X316170Y637500D01*
X316170Y642500D02*
X323350Y642500D01*
X323350Y647500D02*
X316170Y647500D01*
X316170Y652500D02*
X323350Y652500D01*
X323350Y657500D02*
X316170Y657500D01*
X316170Y662500D02*
X323350Y662500D01*
D41*
X297000Y647500D03*
D30*
X797570Y329548D03*
X814570Y329548D03*
X798086Y300818D03*
X815086Y300818D03*
X347828Y233164D03*
X330828Y233164D03*
X379985Y232910D03*
X396985Y232910D03*
X330828Y263398D03*
X347828Y263398D03*
X379731Y263398D03*
X396731Y263398D03*
X346828Y201168D03*
X329828Y201168D03*
X380985Y200660D03*
X397985Y200660D03*
M02*
