G04 EAGLE Gerber RS-274X export*
G75*
%MOMM*%
%FSLAX34Y34*%
%LPD*%
%INSoldermask Bottom*%
%IPPOS*%
%AMOC8*
5,1,8,0,0,1.08239X$1,22.5*%
G01*
%ADD10C,1.803200*%
%ADD11C,1.303200*%
%ADD12C,3.203200*%
%ADD13R,0.853200X1.503200*%
%ADD14R,0.683200X2.003200*%
%ADD15R,1.233200X1.203200*%
%ADD16C,1.403200*%
%ADD17C,2.082800*%
%ADD18C,2.603200*%
%ADD19C,1.711200*%
%ADD20C,3.403200*%
%ADD21C,1.053200*%
%ADD22R,1.711200X1.711200*%
%ADD23R,2.003200X1.303200*%
%ADD24R,2.053200X2.053200*%
%ADD25C,2.053200*%
%ADD26R,0.553200X2.403200*%
%ADD27C,0.603200*%
%ADD28R,1.703200X1.443200*%
%ADD29C,1.219200*%
%ADD30C,0.959600*%


D10*
X497070Y295470D03*
D11*
X747070Y295470D03*
D12*
X498070Y530470D03*
X746070Y529470D03*
D13*
X908050Y479200D03*
X920750Y479200D03*
X933450Y479200D03*
X946150Y479200D03*
X958850Y479200D03*
X971550Y479200D03*
D14*
X893100Y485900D03*
X986500Y485900D03*
X893100Y543400D03*
X986500Y543400D03*
D15*
X895150Y600600D03*
X984450Y600600D03*
D16*
X393400Y26000D03*
X393400Y96000D03*
X500000Y26000D03*
X500000Y96000D03*
D17*
X704950Y184050D03*
X692250Y158650D03*
X679550Y184050D03*
X654150Y184050D03*
X628750Y184050D03*
X666850Y158650D03*
X641450Y158650D03*
X616050Y158650D03*
D18*
X584300Y125200D03*
X736300Y125200D03*
D19*
X594300Y55200D03*
X726300Y55200D03*
X701300Y55200D03*
X619300Y55200D03*
D20*
X603350Y95150D03*
X717650Y95150D03*
D21*
X307100Y767700D03*
X269100Y767700D03*
D22*
X123200Y246800D03*
D19*
X183200Y246800D03*
X63200Y582800D03*
X243200Y582800D03*
D23*
X976100Y314200D03*
X914100Y314200D03*
X976100Y351200D03*
X914100Y351200D03*
D24*
X232500Y101000D03*
D25*
X267500Y101000D03*
D26*
X723400Y735390D03*
X716400Y735390D03*
X709400Y735390D03*
X702400Y735390D03*
X695400Y735390D03*
X688400Y735390D03*
X681400Y735390D03*
X674400Y735390D03*
X667400Y735390D03*
X660400Y735390D03*
X653400Y735390D03*
X646400Y735390D03*
X639400Y735390D03*
X632400Y735390D03*
X625400Y735390D03*
X618400Y735390D03*
X611400Y735390D03*
X604400Y735390D03*
X597400Y735390D03*
X590400Y735390D03*
X583400Y735390D03*
X576400Y735390D03*
X569400Y735390D03*
X562400Y735390D03*
X555400Y735390D03*
X548400Y735390D03*
X541400Y735390D03*
X534400Y735390D03*
X527400Y735390D03*
X520400Y735390D03*
D27*
X701900Y777890D03*
X541900Y777890D03*
D28*
X562100Y692390D03*
X562100Y711390D03*
X723000Y692390D03*
X723000Y711390D03*
X695100Y711390D03*
X695100Y692390D03*
X523300Y692390D03*
X523300Y711390D03*
X666700Y692390D03*
X666700Y711390D03*
X542700Y692390D03*
X542700Y711390D03*
X637600Y692390D03*
X637600Y711390D03*
D29*
X488696Y200406D03*
X539496Y210566D03*
X539496Y190246D03*
D30*
X372618Y528320D03*
X296672Y647446D03*
X223012Y714756D03*
X291592Y739394D03*
X332740Y744728D03*
X356616Y743458D03*
X438150Y739902D03*
X609600Y715010D03*
X680720Y753110D03*
X495808Y738632D03*
X910082Y640080D03*
X910082Y649732D03*
X910082Y659384D03*
X910082Y668274D03*
X909828Y677926D03*
X938022Y640080D03*
X938276Y649732D03*
X938022Y659130D03*
X938022Y668274D03*
X938022Y677418D03*
X893318Y679196D03*
X893572Y659638D03*
X893318Y641604D03*
X956056Y640842D03*
X954786Y659384D03*
X955040Y678180D03*
X954278Y695198D03*
X892048Y694944D03*
X898144Y718566D03*
X949452Y720090D03*
X923544Y726694D03*
X859028Y643382D03*
X858266Y681228D03*
X979932Y680720D03*
X981964Y640334D03*
X931926Y190754D03*
X929894Y181864D03*
X930148Y173228D03*
X933196Y164592D03*
X898144Y190754D03*
X901446Y182118D03*
X901446Y173482D03*
X898144Y165354D03*
X886714Y191008D03*
X886460Y173736D03*
X886968Y153416D03*
X944118Y190754D03*
X944372Y174244D03*
X945388Y156718D03*
X865632Y174752D03*
X867410Y153416D03*
X876808Y123444D03*
X964946Y173990D03*
X964438Y190754D03*
X965454Y156464D03*
X948436Y125730D03*
X898652Y122428D03*
X930656Y123190D03*
X1014222Y640588D03*
X981456Y660654D03*
X857758Y662432D03*
X838200Y596138D03*
X839470Y553974D03*
X837438Y474218D03*
X839470Y402590D03*
X1042670Y395732D03*
X1044956Y471932D03*
X1044956Y553466D03*
X1044956Y594106D03*
X1044194Y339344D03*
X1044702Y277876D03*
X1044194Y213868D03*
X834898Y345186D03*
X623062Y315468D03*
X708660Y319024D03*
X363728Y199390D03*
X313436Y264922D03*
X351536Y383286D03*
X311912Y572008D03*
X332232Y617220D03*
X263652Y614934D03*
X192278Y688848D03*
X192786Y655320D03*
X193548Y624078D03*
X351282Y788416D03*
X221996Y787908D03*
X896620Y744728D03*
X896112Y775970D03*
X962660Y778256D03*
X962152Y743966D03*
X317500Y703580D03*
X332740Y703580D03*
X325374Y688086D03*
X524284Y185166D03*
X413004Y537464D03*
X1006602Y595376D03*
X508070Y351776D03*
X628070Y351776D03*
X740070Y351776D03*
X404992Y732804D03*
X831000Y205500D03*
X370205Y484759D03*
X696722Y238760D03*
X362204Y335788D03*
X1003046Y367284D03*
X652018Y701802D03*
X500380Y176530D03*
X861060Y536702D03*
X862330Y499872D03*
X1020826Y536956D03*
X1022096Y500888D03*
X769366Y367538D03*
X339090Y646430D03*
X761238Y360172D03*
X340254Y630428D03*
X874522Y217678D03*
X874649Y243205D03*
X559332Y303802D03*
X1003681Y267589D03*
X291500Y688500D03*
X305000Y681500D03*
X253000Y689500D03*
X274000Y692000D03*
X348100Y673000D03*
X348608Y618108D03*
X835660Y267462D03*
X565912Y313436D03*
X559928Y292326D03*
X835660Y247142D03*
X996950Y277368D03*
X572770Y321564D03*
X316738Y219074D03*
X902970Y243586D03*
X410591Y232791D03*
X892556Y242316D03*
X875500Y348000D03*
X845820Y743712D03*
X1000760Y351282D03*
X786638Y84836D03*
X1009142Y346202D03*
X787400Y55118D03*
X785500Y163500D03*
X819000Y123500D03*
X392938Y734568D03*
X807466Y340642D03*
X590296Y752856D03*
X381508Y736092D03*
X810006Y311912D03*
X604266Y756158D03*
X928878Y283972D03*
X683260Y309372D03*
M02*
