M48
;GenerationSoftware,Autodesk,EAGLE,9.5.2*%
;CreationDate,2020-04-27T15:03:22Z*%
FMAT,2
ICI,OFF
METRIC,TZ,000.000
T10C0.350
T9C0.400
T8C0.850
T7C1.000
T6C1.016
T5C1.100
T4C1.200
T3C1.600
T2C3.000
T1C3.200
%
G90
M71
T1
X60335Y9515
X71765Y9515
T2
X49807Y53047
X74607Y52947
T3
X49707Y29547
X58430Y12520
X73630Y12520
T4
X26750Y10100
X50000Y9600
X50000Y2600
X39340Y9600
X39340Y2600
X23250Y10100
T5
X74707Y29547
T6
X53950Y19025
X53950Y21057
X48870Y20041
T7
X72630Y5520
X59430Y5520
X61930Y5520
X12320Y24680
X61605Y15865
X64145Y15865
X66685Y15865
X62875Y18405
X65415Y18405
X67955Y18405
X70130Y5520
X70495Y18405
X18320Y24680
X6320Y58280
X24320Y58280
X69225Y15865
T8
X26910Y76770
X30710Y76770
T9
X54190Y77789
X70190Y77789
T10
X93015Y17323
X93320Y16459
X89814Y19075
X90145Y18212
X90145Y17348
X89814Y16535
X88671Y19101
X88646Y17374
X88697Y15342
X94412Y19075
X94437Y17424
X94539Y15672
X86563Y17475
X86741Y15342
X87681Y12344
X96495Y17399
X96444Y19075
X96545Y15646
X94844Y12573
X89865Y12243
X93066Y12319
X101422Y64059
X98146Y66065
X85776Y66243
X83820Y59614
X83947Y55397
X83744Y47422
X83947Y40259
X104267Y39573
X104496Y47193
X104496Y55347
X104496Y59411
X104419Y33934
X104470Y27788
X104419Y21387
X83490Y34519
X62306Y31547
X70866Y31902
X36373Y19939
X31344Y26492
X35154Y38329
X31191Y57201
X33223Y61722
X26365Y61493
X19228Y68885
X19279Y65532
X19355Y62408
X35128Y78842
X22200Y78791
X89662Y74473
X89611Y77597
X96266Y77826
X96215Y74397
X31750Y70358
X33274Y70358
X32537Y68809
X52428Y18517
X37262Y52832
X100660Y59538
X50807Y35178
X62807Y35178
X74007Y35178
X40499Y73280
X83100Y20550
X37021Y48476
X69672Y23876
X36220Y33579
X100305Y36728
X65202Y70180
X50038Y17653
X86106Y53670
X86233Y49987
X102083Y53696
X102210Y50089
X76937Y36754
X33909Y64643
X76124Y36017
X34025Y63043
X87452Y21768
X87465Y24320
X55933Y30380
X100368Y26759
X29150Y68850
X30500Y68150
X25300Y68950
X27400Y69200
X34810Y67300
X34861Y61811
X83566Y26746
X56591Y31344
X55993Y29233
X83566Y24714
X99695Y27737
X57277Y32156
X31674Y21907
X90297Y24359
X41059Y23279
X89256Y24232
X87550Y34800
X84582Y74371
X100076Y35128
X78664Y8484
X100914Y34620
X78740Y5512
X78550Y16350
X81900Y12350
X39294Y73457
X80747Y34064
X59030Y75286
X38151Y73609
X81001Y31191
X60427Y75616
X92888Y28397
X68326Y30937
X92989Y18186
X93193Y19075
X98196Y64033
X97993Y68072
X85827Y68123
X85903Y64338
X92354Y72669
X94945Y72009
X89814Y71857
X89205Y69494
X95428Y69520
X95504Y67818
X95479Y65938
X95606Y64084
X89332Y64160
X89357Y65964
X89332Y67920
X93802Y67742
X93802Y66827
X93802Y65913
X93828Y64973
X93802Y64008
X90983Y67793
X91008Y66827
X91008Y65938
X91008Y64973
X91008Y64008
X49581Y73863
X68072Y75311
X60960Y71501
X43815Y73990
X35662Y74346
X33274Y74473
X29159Y73939
X22301Y71476
X29667Y64745
X41300Y53746
M30